<svg width="140" height="40" viewBox="0 0 140 40" fill="none" xmlns="http://www.w3.org/2000/svg">
<path fill-rule="evenodd" clip-rule="evenodd" d="M19.2437 40C16.0407 40 13.0472 39.3081 10.2633 37.9244C7.50926 36.5707 5.24004 34.4529 3.3987 31.7531C1.28265 28.6504 0.0929671 25.0652 0 20.8233C0 17.1534 0.933217 13.3782 2.6395 10.3099C4.37571 7.24163 7.01065 4.52858 10.0939 2.75378C13.1772 0.948894 16.6704 -0.138881 21.2378 0.0143084C24.4408 0.0143084 27.4636 1.13488 30.1736 2.51489C32.7355 3.96128 35.1092 5.93284 36.7556 8.45967C38.402 10.9865 39.2252 14.0849 39.2252 17.7548C39.2252 20.4621 38.7313 21.7549 37.7434 23.9208C36.7556 26.0566 35.4235 27.7411 33.7471 28.9745C32.1007 30.1777 30.6682 30.7299 27.6853 30.7299C26.4118 30.7299 26.0906 30.4691 25.3301 29.8518L25.3055 29.8318C24.5307 29.1729 24.1415 28.3203 24.1381 27.2739L24.0187 18.9785L27.6853 22.3356V25.0037V25.5491C27.6853 26.4091 28.3824 27.1062 29.2424 27.1062C30.1703 27.1062 31.068 27.0342 31.9959 26.222C32.9239 25.3797 33.6873 24.1464 34.2859 22.522L34.2989 22.4884C34.9189 20.8865 35.2289 20.0856 35.2289 17.8451C35.2289 15.228 34.6901 12.9268 33.6124 10.9414C32.5647 8.92594 31.1208 7.03714 28.9655 5.89405C26.8655 4.66404 23.8752 3.5139 20.7619 3.5139C17.6942 3.5139 14.7467 4.12366 12.292 5.56757C9.69706 6.96159 7.21836 9.30079 5.78149 11.8577C3.96538 14.9038 3.36648 17.8424 3.47917 21.097C3.59185 24.3516 4.76455 27.5142 6.29082 29.7273C7.60795 32.0135 10.0379 34.0325 12.2231 35.1756C14.4383 36.3488 16.9387 36.4354 19.6029 36.4354C21.4289 36.4354 22.9855 36.2097 24.2727 35.7585C24.9826 35.5316 25.6663 35.2522 26.324 34.9204C27.242 34.4572 28.4018 34.6988 28.9308 35.5805C29.4165 36.39 29.1919 37.4476 28.3667 37.9061C27.3146 38.4907 26.2343 38.948 25.1259 39.278C23.5094 39.7593 21.5487 40 19.2437 40ZM27.6853 13.3139V10.3549C27.6853 9.30821 26.8368 8.45967 25.7901 8.45967C24.901 8.45967 24.1564 9.07143 23.951 9.89483L27.6853 13.3139Z" fill="#15BEB6"/>
<path fill-rule="evenodd" clip-rule="evenodd" d="M28.6035 21.1631L20.1302 13.405L16.2683 16.8939V25.9271C16.2683 26.6233 16.8786 27.1876 17.6314 27.1876H20.1109C21.1146 27.1876 21.9283 27.9401 21.9283 28.8683C21.9283 29.7966 21.1146 30.5491 20.1109 30.5491H17.6314C14.8711 30.5491 12.6334 28.4797 12.6334 25.9271V20.1779L10.613 22.0032C9.86821 22.6761 8.71893 22.6178 8.04603 21.873C7.37313 21.1282 7.43143 19.9789 8.17624 19.306L13.1021 14.8558C13.1529 14.8038 13.2072 14.7547 13.2646 14.709L18.3067 10.1537C19.3498 9.21135 20.9384 9.21663 21.9752 10.1659L31.0581 18.4822C31.7984 19.16 31.8491 20.3097 31.1713 21.05C30.4934 21.7903 29.3438 21.841 28.6035 21.1631Z" fill="#02636C"/>
<path d="M77.6645 30.1687L72.203 15.4521H76.1364L79.8717 26.7423L83.6353 15.4521H87.2291L81.7959 30.1687H77.6645Z" fill="#02636C"/>
<path d="M89.5157 30.1687V15.4521H93.3076V30.1687H89.5157ZM89.5157 13.4018V9.6665H93.3076V13.4018H89.5157Z" fill="#02636C"/>
<path d="M103.888 30.4495C102.699 30.4495 101.624 30.253 100.662 29.8598C99.6996 29.4478 98.879 28.8955 98.1998 28.2027C97.5207 27.4912 96.9924 26.6861 96.6151 25.7874C96.2567 24.87 96.0775 23.9057 96.0775 22.8946C96.0775 21.4904 96.3888 20.2078 97.0113 19.047C97.6527 17.8861 98.5582 16.9593 99.7279 16.2665C100.916 15.555 102.312 15.1993 103.916 15.1993C105.538 15.1993 106.925 15.555 108.076 16.2665C109.227 16.9593 110.104 17.8861 110.707 19.047C111.33 20.1891 111.641 21.4248 111.641 22.7542C111.641 22.9789 111.632 23.2129 111.613 23.4563C111.594 23.681 111.575 23.8682 111.556 24.018H100.096C100.171 24.767 100.388 25.4223 100.747 25.984C101.124 26.5457 101.596 26.9763 102.161 27.2759C102.746 27.5568 103.369 27.6972 104.029 27.6972C104.784 27.6972 105.491 27.5193 106.151 27.1636C106.831 26.7891 107.293 26.3023 107.538 25.7031L110.792 26.6019C110.434 27.3508 109.915 28.0155 109.236 28.5959C108.576 29.1763 107.793 29.6351 106.887 29.9721C105.982 30.2904 104.982 30.4495 103.888 30.4495ZM100.011 21.6308H107.764C107.689 20.8819 107.472 20.2359 107.114 19.6929C106.774 19.1312 106.321 18.7006 105.755 18.401C105.189 18.0827 104.557 17.9236 103.859 17.9236C103.18 17.9236 102.558 18.0827 101.992 18.401C101.445 18.7006 100.992 19.1312 100.633 19.6929C100.294 20.2359 100.086 20.8819 100.011 21.6308Z" fill="#02636C"/>
<path d="M123.063 18.7099C121.912 18.7099 120.884 18.9346 119.979 19.384C119.073 19.8146 118.422 20.4419 118.026 21.2657V30.1687H114.234V15.4521H117.715V18.5976C118.243 17.5865 118.913 16.7908 119.724 16.2104C120.535 15.6299 121.394 15.3116 122.299 15.2555C122.507 15.2555 122.667 15.2555 122.78 15.2555C122.893 15.2555 122.988 15.2648 123.063 15.2835V18.7099Z" fill="#02636C"/>
<path d="M132.115 30.4495C130.908 30.4495 129.823 30.253 128.861 29.8598C127.899 29.4478 127.078 28.8861 126.399 28.1746C125.739 27.4632 125.229 26.6487 124.871 25.7312C124.512 24.8138 124.333 23.8495 124.333 22.8385C124.333 21.8087 124.512 20.835 124.871 19.9176C125.229 19.0001 125.739 18.1857 126.399 17.4742C127.078 16.7627 127.899 16.2104 128.861 15.8172C129.823 15.4052 130.908 15.1993 132.115 15.1993C133.323 15.1993 134.398 15.4052 135.341 15.8172C136.303 16.2104 137.124 16.7627 137.803 17.4742C138.482 18.1857 138.991 19.0001 139.331 19.9176C139.689 20.835 139.869 21.8087 139.869 22.8385C139.869 23.8495 139.689 24.8138 139.331 25.7312C138.991 26.6487 138.482 27.4632 137.803 28.1746C137.143 28.8861 136.331 29.4478 135.369 29.8598C134.407 30.253 133.323 30.4495 132.115 30.4495ZM128.238 22.8385C128.238 23.6997 128.408 24.4674 128.748 25.1414C129.087 25.7968 129.549 26.3117 130.134 26.6861C130.719 27.0606 131.379 27.2478 132.115 27.2478C132.832 27.2478 133.483 27.0606 134.068 26.6861C134.652 26.2929 135.115 25.7687 135.454 25.1134C135.813 24.4393 135.992 23.6717 135.992 22.8104C135.992 21.9678 135.813 21.2095 135.454 20.5355C135.115 19.8614 134.652 19.3372 134.068 18.9627C133.483 18.5882 132.832 18.401 132.115 18.401C131.379 18.401 130.719 18.5976 130.134 18.9908C129.549 19.3653 129.087 19.8895 128.748 20.5636C128.408 21.2189 128.238 21.9772 128.238 22.8385Z" fill="#02636C"/>
<path d="M54.433 18.5436C53.2843 18.5436 52.2581 18.7714 51.3542 19.2272C50.4503 19.6639 49.8006 20.3 49.4052 21.1356V30.1648H45.6201V15.2395H49.0944V18.4296C49.6217 17.4042 50.2902 16.5972 51.0999 16.0086C51.9097 15.4199 52.7665 15.0971 53.6704 15.0401C53.8775 15.0401 54.0376 15.0401 54.1506 15.0401C54.2636 15.0401 54.3577 15.0496 54.433 15.0686V18.5436Z" fill="#15BEB6"/>
<path d="M63.4969 30.4496C62.3105 30.4496 61.2371 30.2502 60.2768 29.8515C59.3164 29.4337 58.4972 28.8735 57.8193 28.1709C57.1414 27.4494 56.6141 26.6328 56.2375 25.7214C55.8797 24.7909 55.7008 23.813 55.7008 22.7876C55.7008 21.3634 56.0115 20.0627 56.633 18.8854C57.2732 17.7081 58.1771 16.7681 59.3446 16.0655C60.531 15.3439 61.9245 14.9832 63.5251 14.9832C65.1446 14.9832 66.5287 15.3439 67.6774 16.0655C68.8261 16.7681 69.7017 17.7081 70.3043 18.8854C70.9257 20.0437 71.2364 21.297 71.2364 22.6452C71.2364 22.873 71.227 23.1104 71.2082 23.3573C71.1894 23.5851 71.1705 23.775 71.1517 23.9269H59.7118C59.7872 24.6865 60.0037 25.3511 60.3615 25.9208C60.7381 26.4904 61.2089 26.9272 61.7738 27.231C62.3576 27.5158 62.979 27.6582 63.6381 27.6582C64.3913 27.6582 65.0975 27.4778 65.7566 27.1171C66.4345 26.7373 66.8959 26.2436 67.1407 25.6359L70.389 26.5474C70.0312 27.3069 69.5134 27.981 68.8355 28.5697C68.1764 29.1584 67.3949 29.6236 66.491 29.9654C65.5871 30.2882 64.5891 30.4496 63.4969 30.4496ZM59.6271 21.5058H67.3666C67.2913 20.7463 67.0748 20.0912 66.717 19.5405C66.378 18.9708 65.9261 18.5341 65.3611 18.2303C64.7962 17.9074 64.1654 17.746 63.4686 17.746C62.7907 17.746 62.1693 17.9074 61.6044 18.2303C61.0583 18.5341 60.6063 18.9708 60.2485 19.5405C59.9096 20.0912 59.7024 20.7463 59.6271 21.5058Z" fill="#15BEB6"/>
</svg>
