<svg width="444" height="107" viewBox="0 0 444 107" fill="none" xmlns="http://www.w3.org/2000/svg">
<g filter="url(#filter0_b_2453_73613)">
<rect width="444" height="107" rx="18" fill="#F2E2D0" fill-opacity="0.59"/>
<rect x="16" y="25.5" width="55.6749" height="56" rx="14" fill="white"/>
<path fill-rule="evenodd" clip-rule="evenodd" d="M43.477 73.0449C40.347 73.0449 37.4217 72.3688 34.7012 71.0166C32.0099 69.6938 29.7924 67.6242 27.993 64.9858C25.9251 61.9539 24.7625 58.4503 24.6717 54.305C24.6717 50.7187 25.5837 47.0296 27.2511 44.0311C28.9477 41.0327 31.5226 38.3815 34.5357 36.6471C37.5487 34.8833 40.9624 33.8203 45.4257 33.97C48.5558 33.97 51.5097 35.0651 54.158 36.4137C56.6615 37.8271 58.9811 39.7538 60.59 42.223C62.1989 44.6923 63.0034 47.7201 63.0034 51.3064C63.0034 53.9521 62.5207 55.2154 61.5554 57.332C60.59 59.4191 59.2882 61.0653 57.6501 62.2705C56.0412 63.4464 54.6413 63.986 51.7264 63.986C50.4819 63.986 50.168 63.7311 49.4248 63.1279L49.4008 63.1083C48.6436 62.4645 48.2633 61.6313 48.2599 60.6087L48.1433 52.502L51.7264 55.7826V58.3902V58.9232C51.7264 59.7636 52.4076 60.4448 53.2479 60.4448C54.1548 60.4448 55.032 60.3745 55.9388 59.5808C56.8456 58.7577 57.5916 57.5524 58.1766 55.965L58.1894 55.9322C58.7952 54.3668 59.0981 53.5841 59.0981 51.3946C59.0981 48.8372 58.5716 46.5884 57.5185 44.6482C56.4946 42.6787 55.0836 40.8329 52.9774 39.7158C50.9252 38.5139 48.003 37.3899 44.9607 37.3899C41.9628 37.3899 39.0825 37.9858 36.6837 39.3968C34.1479 40.7591 31.7256 43.045 30.3215 45.5437C28.5467 48.5204 27.9615 51.392 28.0716 54.5725C28.1817 57.753 29.3277 60.8435 30.8192 63.0062C32.1063 65.2403 34.4809 67.2134 36.6164 68.3304C38.7811 69.4769 41.2246 69.5615 43.8281 69.5615C45.6125 69.5615 47.1337 69.341 48.3915 68.9001C49.0852 68.6783 49.7533 68.4053 50.396 68.081C51.2932 67.6284 52.4265 67.8645 52.9435 68.7261C53.4182 69.5171 53.1986 70.5506 52.3922 70.9987C51.3641 71.57 50.3084 72.0169 49.2252 72.3394C47.6456 72.8098 45.7295 73.0449 43.477 73.0449ZM51.7264 46.9665V44.0751C51.7264 43.0522 50.8972 42.223 49.8743 42.223C49.0055 42.223 48.278 42.8208 48.0772 43.6253L51.7264 46.9665Z" fill="#17C1B9"/>
<path fill-rule="evenodd" clip-rule="evenodd" d="M52.6234 54.6373L44.3431 47.0559L40.5687 50.4658V59.2931C40.5687 59.9734 41.1651 60.5249 41.9008 60.5249H44.3237C45.3046 60.5249 46.0998 61.2603 46.0998 62.1674C46.0998 63.0745 45.3046 63.8098 44.3237 63.8098H41.9008C39.2033 63.8098 37.0166 61.7876 37.0166 59.2931V53.675L35.0427 55.4583C34.3149 56.1158 33.1918 56.0589 32.5342 55.331C31.8766 54.6032 31.9336 53.4801 32.6614 52.8225L37.4742 48.4744C37.5241 48.4233 37.5775 48.3751 37.6339 48.3302L42.5611 43.8787C43.5804 42.9578 45.1329 42.9629 46.1461 43.8906L55.0221 52.0174C55.7456 52.6798 55.7951 53.8033 55.1327 54.5267C54.4703 55.2502 53.3468 55.2997 52.6234 54.6373Z" fill="#02636C"/>
<path d="M87.7109 21.4H90.2849L93.1289 29.446L93.5969 31.048L94.0649 29.446L96.9089 21.4H99.4829L94.8029 34H92.3909L87.7109 21.4ZM102.002 34.252C101.114 34.252 100.388 34 99.8238 33.496C99.2718 32.98 98.9958 32.302 98.9958 31.462C98.9958 30.61 99.2898 29.944 99.8778 29.464C100.478 28.972 101.246 28.654 102.182 28.51L104.864 28.096V27.754C104.864 27.322 104.726 26.992 104.45 26.764C104.174 26.524 103.766 26.404 103.226 26.404C102.722 26.404 102.326 26.5 102.038 26.692C101.762 26.884 101.624 27.124 101.624 27.412C101.624 27.484 101.636 27.556 101.66 27.628L99.6258 28.312C99.5178 28.072 99.4638 27.82 99.4638 27.556C99.4638 27.088 99.6138 26.644 99.9138 26.224C100.214 25.804 100.646 25.468 101.21 25.216C101.786 24.952 102.458 24.82 103.226 24.82C104.498 24.82 105.464 25.09 106.124 25.63C106.796 26.17 107.132 26.98 107.132 28.06V31.786C107.132 32.29 107.174 32.704 107.258 33.028C107.354 33.352 107.51 33.676 107.726 34H105.422C105.314 33.868 105.212 33.682 105.116 33.442C105.032 33.202 104.99 32.914 104.99 32.578C104.678 33.13 104.264 33.55 103.748 33.838C103.232 34.114 102.65 34.252 102.002 34.252ZM102.542 32.416C103.226 32.416 103.784 32.194 104.216 31.75C104.648 31.294 104.864 30.652 104.864 29.824V29.662L102.704 30.022C101.708 30.19 101.21 30.628 101.21 31.336C101.21 31.684 101.33 31.954 101.57 32.146C101.81 32.326 102.134 32.416 102.542 32.416ZM113.657 34.252C112.781 34.252 111.983 34.06 111.263 33.676C110.555 33.28 109.991 32.722 109.571 32.002C109.163 31.282 108.959 30.46 108.959 29.536C108.959 28.612 109.169 27.796 109.589 27.088C110.021 26.368 110.591 25.81 111.299 25.414C112.019 25.018 112.805 24.82 113.657 24.82C114.629 24.82 115.457 25.012 116.141 25.396C116.825 25.768 117.329 26.32 117.653 27.052L115.727 28.222C115.475 27.754 115.175 27.424 114.827 27.232C114.479 27.04 114.083 26.944 113.639 26.944C112.955 26.944 112.385 27.184 111.929 27.664C111.485 28.132 111.263 28.756 111.263 29.536C111.263 30.328 111.485 30.958 111.929 31.426C112.373 31.894 112.943 32.128 113.639 32.128C114.191 32.128 114.635 32.02 114.971 31.804C115.319 31.576 115.619 31.216 115.871 30.724L117.743 31.858C117.275 32.65 116.705 33.25 116.033 33.658C115.373 34.054 114.581 34.252 113.657 34.252ZM121.935 34.252C121.047 34.252 120.321 34 119.757 33.496C119.205 32.98 118.929 32.302 118.929 31.462C118.929 30.61 119.223 29.944 119.811 29.464C120.411 28.972 121.179 28.654 122.115 28.51L124.797 28.096V27.754C124.797 27.322 124.659 26.992 124.383 26.764C124.107 26.524 123.699 26.404 123.159 26.404C122.655 26.404 122.259 26.5 121.971 26.692C121.695 26.884 121.557 27.124 121.557 27.412C121.557 27.484 121.569 27.556 121.593 27.628L119.559 28.312C119.451 28.072 119.397 27.82 119.397 27.556C119.397 27.088 119.547 26.644 119.847 26.224C120.147 25.804 120.579 25.468 121.143 25.216C121.719 24.952 122.391 24.82 123.159 24.82C124.431 24.82 125.397 25.09 126.057 25.63C126.729 26.17 127.065 26.98 127.065 28.06V31.786C127.065 32.29 127.107 32.704 127.191 33.028C127.287 33.352 127.443 33.676 127.659 34H125.355C125.247 33.868 125.145 33.682 125.049 33.442C124.965 33.202 124.923 32.914 124.923 32.578C124.611 33.13 124.197 33.55 123.681 33.838C123.165 34.114 122.583 34.252 121.935 34.252ZM122.475 32.416C123.159 32.416 123.717 32.194 124.149 31.75C124.581 31.294 124.797 30.652 124.797 29.824V29.662L122.637 30.022C121.641 30.19 121.143 30.628 121.143 31.336C121.143 31.684 121.263 31.954 121.503 32.146C121.743 32.326 122.067 32.416 122.475 32.416ZM132.644 34.252C131.78 34.252 131.084 34.036 130.556 33.604C130.04 33.16 129.782 32.428 129.782 31.408V26.908H128.396V25.072H129.782V22.66H132.05V25.072H133.994V26.908H132.05V30.976C132.05 31.816 132.428 32.236 133.184 32.236C133.448 32.236 133.7 32.2 133.94 32.128L134.156 34C133.7 34.168 133.196 34.252 132.644 34.252ZM135.725 25.072H137.993V34H135.725V25.072ZM135.617 21.4H138.101V23.776H135.617V21.4ZM144.634 34.252C143.794 34.252 142.996 34.072 142.24 33.712C141.496 33.352 140.896 32.818 140.44 32.11C139.984 31.39 139.756 30.532 139.756 29.536C139.756 28.54 139.984 27.688 140.44 26.98C140.896 26.26 141.496 25.72 142.24 25.36C142.996 25 143.794 24.82 144.634 24.82C145.474 24.82 146.266 25 147.01 25.36C147.766 25.72 148.372 26.26 148.828 26.98C149.284 27.688 149.512 28.54 149.512 29.536C149.512 30.532 149.284 31.39 148.828 32.11C148.372 32.818 147.766 33.352 147.01 33.712C146.266 34.072 145.474 34.252 144.634 34.252ZM144.634 32.128C145.09 32.128 145.51 32.026 145.894 31.822C146.29 31.606 146.608 31.306 146.848 30.922C147.088 30.526 147.208 30.064 147.208 29.536C147.208 29.008 147.088 28.552 146.848 28.168C146.608 27.772 146.29 27.472 145.894 27.268C145.51 27.052 145.09 26.944 144.634 26.944C144.178 26.944 143.752 27.052 143.356 27.268C142.972 27.472 142.66 27.772 142.42 28.168C142.18 28.552 142.06 29.008 142.06 29.536C142.06 30.064 142.18 30.526 142.42 30.922C142.66 31.306 142.972 31.606 143.356 31.822C143.752 32.026 144.178 32.128 144.634 32.128ZM151.282 25.072H153.55V26.512C153.898 25.984 154.33 25.57 154.846 25.27C155.362 24.97 155.938 24.82 156.574 24.82C157.522 24.82 158.278 25.102 158.842 25.666C159.418 26.23 159.706 26.98 159.706 27.916V34H157.438V28.852C157.438 28.252 157.288 27.784 156.988 27.448C156.688 27.112 156.232 26.944 155.62 26.944C155.02 26.944 154.522 27.178 154.126 27.646C153.742 28.114 153.55 28.72 153.55 29.464V34H151.282V25.072ZM166.944 25.072H169.212V26.494C169.476 25.966 169.812 25.558 170.22 25.27C170.64 24.97 171.132 24.82 171.696 24.82C171.972 24.82 172.23 24.856 172.47 24.928L172.11 27.07C171.882 26.986 171.636 26.944 171.372 26.944C170.712 26.944 170.184 27.196 169.788 27.7C169.404 28.192 169.212 28.822 169.212 29.59V34H166.944V25.072ZM177.534 34.252C176.706 34.252 175.938 34.054 175.23 33.658C174.534 33.262 173.976 32.704 173.556 31.984C173.148 31.264 172.944 30.448 172.944 29.536C172.944 28.612 173.154 27.796 173.574 27.088C173.994 26.368 174.558 25.81 175.266 25.414C175.986 25.018 176.778 24.82 177.642 24.82C178.482 24.82 179.232 25.012 179.892 25.396C180.552 25.768 181.068 26.296 181.44 26.98C181.812 27.652 181.998 28.42 181.998 29.284V30.076H175.122C175.194 30.76 175.452 31.306 175.896 31.714C176.34 32.11 176.898 32.308 177.57 32.308C178.158 32.308 178.644 32.176 179.028 31.912C179.424 31.636 179.76 31.222 180.036 30.67L181.728 31.642C181.284 32.542 180.72 33.202 180.036 33.622C179.352 34.042 178.518 34.252 177.534 34.252ZM179.892 28.348C179.784 27.784 179.526 27.346 179.118 27.034C178.71 26.71 178.194 26.548 177.57 26.548C176.994 26.548 176.49 26.716 176.058 27.052C175.626 27.388 175.326 27.82 175.158 28.348H179.892ZM183.801 25.072H186.069V26.26C186.381 25.768 186.765 25.408 187.221 25.18C187.677 24.94 188.157 24.82 188.661 24.82C189.909 24.82 190.737 25.33 191.145 26.35C191.457 25.846 191.865 25.468 192.369 25.216C192.873 24.952 193.413 24.82 193.989 24.82C194.901 24.82 195.609 25.084 196.113 25.612C196.617 26.14 196.869 26.854 196.869 27.754V34H194.601V28.474C194.601 27.358 194.133 26.8 193.197 26.8C192.681 26.8 192.261 26.992 191.937 27.376C191.625 27.76 191.469 28.312 191.469 29.032V34H189.201V28.51C189.201 27.37 188.721 26.8 187.761 26.8C187.293 26.8 186.891 26.998 186.555 27.394C186.231 27.778 186.069 28.312 186.069 28.996V34H183.801V25.072ZM199.129 25.072H201.397V34H199.129V25.072ZM199.021 21.4H201.505V23.776H199.021V21.4ZM203.664 25.072H205.932V26.512C206.28 25.984 206.712 25.57 207.228 25.27C207.744 24.97 208.32 24.82 208.956 24.82C209.904 24.82 210.66 25.102 211.224 25.666C211.8 26.23 212.088 26.98 212.088 27.916V34H209.82V28.852C209.82 28.252 209.67 27.784 209.37 27.448C209.07 27.112 208.614 26.944 208.002 26.944C207.402 26.944 206.904 27.178 206.508 27.646C206.124 28.114 205.932 28.72 205.932 29.464V34H203.664V25.072ZM218.117 34.252C217.301 34.252 216.557 34.066 215.885 33.694C215.225 33.31 214.697 32.764 214.301 32.056C213.917 31.336 213.725 30.496 213.725 29.536C213.725 28.588 213.929 27.76 214.337 27.052C214.757 26.332 215.303 25.78 215.975 25.396C216.659 25.012 217.373 24.82 218.117 24.82C218.765 24.82 219.329 24.94 219.809 25.18C220.301 25.42 220.673 25.75 220.925 26.17V21.4H223.193V34H220.925V32.74C220.673 33.184 220.301 33.55 219.809 33.838C219.329 34.114 218.765 34.252 218.117 34.252ZM218.549 32.128C219.269 32.128 219.869 31.888 220.349 31.408C220.829 30.916 221.069 30.292 221.069 29.536C221.069 28.78 220.829 28.162 220.349 27.682C219.869 27.19 219.269 26.944 218.549 26.944C217.829 26.944 217.229 27.19 216.749 27.682C216.269 28.162 216.029 28.78 216.029 29.536C216.029 30.292 216.269 30.916 216.749 31.408C217.229 31.888 217.829 32.128 218.549 32.128ZM229.547 34.252C228.719 34.252 227.951 34.054 227.243 33.658C226.547 33.262 225.989 32.704 225.569 31.984C225.161 31.264 224.957 30.448 224.957 29.536C224.957 28.612 225.167 27.796 225.587 27.088C226.007 26.368 226.571 25.81 227.279 25.414C227.999 25.018 228.791 24.82 229.655 24.82C230.495 24.82 231.245 25.012 231.905 25.396C232.565 25.768 233.081 26.296 233.453 26.98C233.825 27.652 234.011 28.42 234.011 29.284V30.076H227.135C227.207 30.76 227.465 31.306 227.909 31.714C228.353 32.11 228.911 32.308 229.583 32.308C230.171 32.308 230.657 32.176 231.041 31.912C231.437 31.636 231.773 31.222 232.049 30.67L233.741 31.642C233.297 32.542 232.733 33.202 232.049 33.622C231.365 34.042 230.531 34.252 229.547 34.252ZM231.905 28.348C231.797 27.784 231.539 27.346 231.131 27.034C230.723 26.71 230.207 26.548 229.583 26.548C229.007 26.548 228.503 26.716 228.071 27.052C227.639 27.388 227.339 27.82 227.171 28.348H231.905ZM235.815 25.072H238.083V26.494C238.347 25.966 238.683 25.558 239.091 25.27C239.511 24.97 240.003 24.82 240.567 24.82C240.843 24.82 241.101 24.856 241.341 24.928L240.981 27.07C240.753 26.986 240.507 26.944 240.243 26.944C239.583 26.944 239.055 27.196 238.659 27.7C238.275 28.192 238.083 28.822 238.083 29.59V34H235.815V25.072Z" fill="black"/>
<path opacity="0.5" d="M360.088 24.408C359.789 24.696 359.459 24.8933 359.096 25C358.733 25.1067 358.28 25.16 357.736 25.16V23.208C358.365 23.208 358.872 23.096 359.256 22.872C359.651 22.6373 359.971 22.28 360.216 21.8H362.2V33H360.088V24.408ZM368.727 25.064H370.743V26.12C371.02 25.6827 371.361 25.3627 371.767 25.16C372.172 24.9467 372.599 24.84 373.047 24.84C374.156 24.84 374.892 25.2933 375.255 26.2C375.532 25.752 375.895 25.416 376.343 25.192C376.791 24.9573 377.271 24.84 377.783 24.84C378.593 24.84 379.223 25.0747 379.671 25.544C380.119 26.0133 380.343 26.648 380.343 27.448V33H378.327V28.088C378.327 27.096 377.911 26.6 377.079 26.6C376.62 26.6 376.247 26.7707 375.959 27.112C375.681 27.4533 375.543 27.944 375.543 28.584V33H373.527V28.12C373.527 27.1067 373.1 26.6 372.247 26.6C371.831 26.6 371.473 26.776 371.175 27.128C370.887 27.4693 370.743 27.944 370.743 28.552V33H368.727V25.064ZM382.352 25.064H384.368V33H382.352V25.064ZM382.256 21.8H384.464V23.912H382.256V21.8ZM386.383 25.064H388.399V26.344C388.708 25.8747 389.092 25.5067 389.551 25.24C390.01 24.9733 390.522 24.84 391.087 24.84C391.93 24.84 392.602 25.0907 393.103 25.592C393.615 26.0933 393.871 26.76 393.871 27.592V33H391.855V28.424C391.855 27.8907 391.722 27.4747 391.455 27.176C391.188 26.8773 390.783 26.728 390.239 26.728C389.706 26.728 389.263 26.936 388.911 27.352C388.57 27.768 388.399 28.3067 388.399 28.968V33H386.383V25.064ZM402.657 33.224C401.868 33.224 401.222 33 400.721 32.552C400.23 32.0933 399.985 31.4907 399.985 30.744C399.985 29.9867 400.246 29.3947 400.769 28.968C401.302 28.5307 401.985 28.248 402.817 28.12L405.201 27.752V27.448C405.201 27.064 405.078 26.7707 404.833 26.568C404.588 26.3547 404.225 26.248 403.745 26.248C403.297 26.248 402.945 26.3333 402.689 26.504C402.444 26.6747 402.321 26.888 402.321 27.144C402.321 27.208 402.332 27.272 402.353 27.336L400.545 27.944C400.449 27.7307 400.401 27.5067 400.401 27.272C400.401 26.856 400.534 26.4613 400.801 26.088C401.068 25.7147 401.452 25.416 401.953 25.192C402.465 24.9573 403.062 24.84 403.745 24.84C404.876 24.84 405.734 25.08 406.321 25.56C406.918 26.04 407.217 26.76 407.217 27.72V31.032C407.217 31.48 407.254 31.848 407.329 32.136C407.414 32.424 407.553 32.712 407.745 33H405.697C405.601 32.8827 405.51 32.7173 405.425 32.504C405.35 32.2907 405.313 32.0347 405.313 31.736C405.036 32.2267 404.668 32.6 404.209 32.856C403.75 33.1013 403.233 33.224 402.657 33.224ZM403.137 31.592C403.745 31.592 404.241 31.3947 404.625 31C405.009 30.5947 405.201 30.024 405.201 29.288V29.144L403.281 29.464C402.396 29.6133 401.953 30.0027 401.953 30.632C401.953 30.9413 402.06 31.1813 402.273 31.352C402.486 31.512 402.774 31.592 403.137 31.592ZM412.985 36.488C411.801 36.488 410.868 36.2427 410.185 35.752C409.513 35.272 409.177 34.6107 409.177 33.768C409.177 33.4267 409.252 33.1227 409.401 32.856L411.321 33.448C411.257 33.6293 411.225 33.8107 411.225 33.992C411.225 34.2587 411.38 34.472 411.689 34.632C411.998 34.8027 412.43 34.888 412.985 34.888C414.286 34.888 414.937 34.1627 414.937 32.712V31.688C414.724 32.04 414.425 32.328 414.041 32.552C413.668 32.7653 413.214 32.872 412.681 32.872C411.988 32.872 411.348 32.7013 410.761 32.36C410.174 32.0187 409.71 31.544 409.369 30.936C409.028 30.3173 408.857 29.624 408.857 28.856C408.857 28.088 409.033 27.4 409.385 26.792C409.737 26.1733 410.206 25.6933 410.793 25.352C411.38 25.0107 412.014 24.84 412.697 24.84C413.177 24.84 413.609 24.936 413.993 25.128C414.388 25.3093 414.702 25.576 414.937 25.928V25.064H416.953V32.456C416.953 33.768 416.596 34.7653 415.881 35.448C415.166 36.1413 414.201 36.488 412.985 36.488ZM412.905 31.112C413.502 31.112 414.009 30.9093 414.425 30.504C414.841 30.0987 415.049 29.5493 415.049 28.856C415.049 28.1627 414.841 27.6133 414.425 27.208C414.009 26.8027 413.502 26.6 412.905 26.6C412.318 26.6 411.822 26.8027 411.417 27.208C411.012 27.6027 410.809 28.152 410.809 28.856C410.809 29.56 411.012 30.1147 411.417 30.52C411.822 30.9147 412.318 31.112 412.905 31.112ZM422.74 33.224C421.993 33.224 421.284 33.064 420.612 32.744C419.95 32.424 419.417 31.9493 419.012 31.32C418.606 30.68 418.404 29.9173 418.404 29.032C418.404 28.1467 418.606 27.3893 419.012 26.76C419.417 26.12 419.95 25.64 420.612 25.32C421.284 25 421.993 24.84 422.74 24.84C423.486 24.84 424.19 25 424.852 25.32C425.524 25.64 426.062 26.12 426.468 26.76C426.873 27.3893 427.076 28.1467 427.076 29.032C427.076 29.9173 426.873 30.68 426.468 31.32C426.062 31.9493 425.524 32.424 424.852 32.744C424.19 33.064 423.486 33.224 422.74 33.224ZM422.74 31.336C423.145 31.336 423.518 31.2453 423.86 31.064C424.212 30.872 424.494 30.6053 424.708 30.264C424.921 29.912 425.028 29.5013 425.028 29.032C425.028 28.5627 424.921 28.1573 424.708 27.816C424.494 27.464 424.212 27.1973 423.86 27.016C423.518 26.824 423.145 26.728 422.74 26.728C422.334 26.728 421.956 26.824 421.604 27.016C421.262 27.1973 420.985 27.464 420.772 27.816C420.558 28.1573 420.452 28.5627 420.452 29.032C420.452 29.5013 420.558 29.912 420.772 30.264C420.985 30.6053 421.262 30.872 421.604 31.064C421.956 31.2453 422.334 31.336 422.74 31.336Z" fill="black"/>
<path opacity="0.8" d="M87.7549 48.8H89.5469L91.5469 56.512C91.6856 57.0667 91.7816 57.472 91.8349 57.728L92.1069 56.496L94.1069 48.8H95.9309L97.9309 56.496L98.2029 57.728C98.2563 57.472 98.3523 57.0667 98.4909 56.512L100.491 48.8H102.283L99.1629 60H97.3069L95.0189 51.2L92.7309 60H90.8749L87.7549 48.8ZM106.267 60.224C105.542 60.224 104.87 60.048 104.251 59.696C103.643 59.344 103.158 58.848 102.795 58.208C102.433 57.568 102.251 56.8427 102.251 56.032C102.251 55.2213 102.433 54.5013 102.795 53.872C103.158 53.232 103.649 52.736 104.267 52.384C104.897 52.0213 105.59 51.84 106.347 51.84C107.105 51.84 107.771 52.0107 108.347 52.352C108.934 52.6827 109.387 53.152 109.707 53.76C110.027 54.3573 110.187 55.04 110.187 55.808V56.384H103.851C103.905 57.0987 104.155 57.68 104.603 58.128C105.051 58.576 105.617 58.8 106.299 58.8C106.886 58.8 107.371 58.6667 107.755 58.4C108.139 58.1227 108.465 57.7227 108.731 57.2L109.947 57.904C109.563 58.6827 109.073 59.264 108.475 59.648C107.878 60.032 107.142 60.224 106.267 60.224ZM108.603 55.088C108.539 54.48 108.294 54.0053 107.867 53.664C107.441 53.312 106.918 53.136 106.299 53.136C105.702 53.136 105.185 53.3227 104.747 53.696C104.31 54.0587 104.022 54.5227 103.883 55.088H108.603ZM118.629 60.224C117.84 60.224 117.2 60 116.709 59.552C116.219 59.0933 115.973 58.496 115.973 57.76C115.973 57.0133 116.229 56.4267 116.741 56C117.264 55.5733 117.931 55.296 118.741 55.168L121.269 54.768V54.448C121.269 53.9893 121.125 53.6427 120.837 53.408C120.56 53.1733 120.155 53.056 119.621 53.056C119.099 53.056 118.688 53.1627 118.389 53.376C118.101 53.5787 117.957 53.8347 117.957 54.144C117.957 54.2187 117.968 54.288 117.989 54.352L116.533 54.848C116.448 54.6453 116.405 54.4267 116.405 54.192C116.405 53.776 116.533 53.392 116.789 53.04C117.056 52.6773 117.435 52.3893 117.925 52.176C118.416 51.952 118.981 51.84 119.621 51.84C120.688 51.84 121.504 52.0747 122.069 52.544C122.645 53.0133 122.933 53.696 122.933 54.592V58.032C122.933 58.48 122.971 58.848 123.045 59.136C123.12 59.4133 123.253 59.7013 123.445 60H121.765C121.477 59.6267 121.333 59.1573 121.333 58.592C121.088 59.104 120.72 59.504 120.229 59.792C119.749 60.08 119.216 60.224 118.629 60.224ZM118.981 58.848C119.664 58.848 120.213 58.6027 120.629 58.112C121.056 57.6107 121.269 56.9707 121.269 56.192V55.968L119.109 56.336C118.619 56.4213 118.24 56.576 117.973 56.8C117.717 57.024 117.589 57.3173 117.589 57.68C117.589 58.0427 117.712 58.3307 117.957 58.544C118.213 58.7467 118.555 58.848 118.981 58.848ZM124.997 52.064H126.661V53.408C126.874 52.928 127.173 52.5493 127.557 52.272C127.952 51.984 128.394 51.84 128.885 51.84C129.12 51.84 129.349 51.872 129.573 51.936L129.301 53.472C129.098 53.3973 128.885 53.36 128.661 53.36C128.074 53.36 127.594 53.6107 127.221 54.112C126.848 54.6027 126.661 55.2107 126.661 55.936V60H124.997V52.064ZM134.033 60.224C133.308 60.224 132.636 60.048 132.017 59.696C131.409 59.344 130.924 58.848 130.561 58.208C130.198 57.568 130.017 56.8427 130.017 56.032C130.017 55.2213 130.198 54.5013 130.561 53.872C130.924 53.232 131.414 52.736 132.033 52.384C132.662 52.0213 133.356 51.84 134.113 51.84C134.87 51.84 135.537 52.0107 136.113 52.352C136.7 52.6827 137.153 53.152 137.473 53.76C137.793 54.3573 137.953 55.04 137.953 55.808V56.384H131.617C131.67 57.0987 131.921 57.68 132.369 58.128C132.817 58.576 133.382 58.8 134.065 58.8C134.652 58.8 135.137 58.6667 135.521 58.4C135.905 58.1227 136.23 57.7227 136.497 57.2L137.713 57.904C137.329 58.6827 136.838 59.264 136.241 59.648C135.644 60.032 134.908 60.224 134.033 60.224ZM136.369 55.088C136.305 54.48 136.06 54.0053 135.633 53.664C135.206 53.312 134.684 53.136 134.065 53.136C133.468 53.136 132.95 53.3227 132.513 53.696C132.076 54.0587 131.788 54.5227 131.649 55.088H136.369ZM143.099 52.064H144.715L146.203 57.936L147.803 52.064H149.435L151.019 57.936L152.507 52.064H154.123L151.883 60H150.219L148.619 54.032L147.003 60H145.339L143.099 52.064ZM157.379 60.224C156.59 60.224 155.95 60 155.459 59.552C154.969 59.0933 154.723 58.496 154.723 57.76C154.723 57.0133 154.979 56.4267 155.491 56C156.014 55.5733 156.681 55.296 157.491 55.168L160.019 54.768V54.448C160.019 53.9893 159.875 53.6427 159.587 53.408C159.31 53.1733 158.905 53.056 158.371 53.056C157.849 53.056 157.438 53.1627 157.139 53.376C156.851 53.5787 156.707 53.8347 156.707 54.144C156.707 54.2187 156.718 54.288 156.739 54.352L155.283 54.848C155.198 54.6453 155.155 54.4267 155.155 54.192C155.155 53.776 155.283 53.392 155.539 53.04C155.806 52.6773 156.185 52.3893 156.675 52.176C157.166 51.952 157.731 51.84 158.371 51.84C159.438 51.84 160.254 52.0747 160.819 52.544C161.395 53.0133 161.683 53.696 161.683 54.592V58.032C161.683 58.48 161.721 58.848 161.795 59.136C161.87 59.4133 162.003 59.7013 162.195 60H160.515C160.227 59.6267 160.083 59.1573 160.083 58.592C159.838 59.104 159.47 59.504 158.979 59.792C158.499 60.08 157.966 60.224 157.379 60.224ZM157.731 58.848C158.414 58.848 158.963 58.6027 159.379 58.112C159.806 57.6107 160.019 56.9707 160.019 56.192V55.968L157.859 56.336C157.369 56.4213 156.99 56.576 156.723 56.8C156.467 57.024 156.339 57.3173 156.339 57.68C156.339 58.0427 156.462 58.3307 156.707 58.544C156.963 58.7467 157.305 58.848 157.731 58.848ZM163.919 52.064H165.583V60H163.919V52.064ZM163.823 48.96H165.695V50.8H163.823V48.96ZM170.675 60.224C169.982 60.224 169.422 60.0373 168.995 59.664C168.569 59.28 168.355 58.6667 168.355 57.824V53.392H167.075V52.064H168.355V49.92H170.003V52.064H171.811V53.392H170.003V57.584C170.003 58.3733 170.355 58.768 171.059 58.768C171.273 58.768 171.486 58.736 171.699 58.672L171.859 60.032C171.497 60.16 171.102 60.224 170.675 60.224ZM173.434 52.064H175.098V60H173.434V52.064ZM173.338 48.96H175.21V50.8H173.338V48.96ZM177.247 52.064H178.911V53.408C179.199 52.9173 179.583 52.5333 180.063 52.256C180.543 51.9787 181.066 51.84 181.631 51.84C182.452 51.84 183.119 52.0853 183.631 52.576C184.154 53.056 184.415 53.728 184.415 54.592V60H182.751V55.184C182.751 54.608 182.596 54.16 182.287 53.84C181.988 53.52 181.556 53.36 180.991 53.36C180.607 53.36 180.255 53.4667 179.935 53.68C179.626 53.8933 179.375 54.1867 179.183 54.56C179.002 54.9227 178.911 55.3387 178.911 55.808V60H177.247V52.064ZM189.924 63.488C188.772 63.488 187.871 63.2587 187.22 62.8C186.58 62.3413 186.26 61.7227 186.26 60.944C186.26 60.624 186.335 60.3307 186.484 60.064L188.052 60.544C187.977 60.736 187.94 60.9227 187.94 61.104C187.94 61.424 188.116 61.68 188.468 61.872C188.82 62.064 189.305 62.16 189.924 62.16C191.396 62.16 192.132 61.3173 192.132 59.632V58.544C191.887 58.9493 191.556 59.2747 191.14 59.52C190.735 59.7547 190.244 59.872 189.668 59.872C188.975 59.872 188.34 59.7067 187.764 59.376C187.188 59.0347 186.729 58.56 186.388 57.952C186.057 57.344 185.892 56.6453 185.892 55.856C185.892 55.0667 186.063 54.368 186.404 53.76C186.756 53.1413 187.22 52.6667 187.796 52.336C188.383 52.0053 189.012 51.84 189.684 51.84C190.228 51.84 190.708 51.952 191.124 52.176C191.551 52.3893 191.887 52.688 192.132 53.072V52.064H193.78V59.472C193.78 60.7627 193.439 61.7547 192.756 62.448C192.073 63.1413 191.129 63.488 189.924 63.488ZM189.86 58.432C190.543 58.432 191.108 58.2027 191.556 57.744C192.015 57.2747 192.244 56.6453 192.244 55.856C192.244 55.0667 192.015 54.4427 191.556 53.984C191.108 53.5147 190.543 53.28 189.86 53.28C189.177 53.28 188.617 53.5147 188.18 53.984C187.743 54.4427 187.524 55.0667 187.524 55.856C187.524 56.6453 187.743 57.2747 188.18 57.744C188.617 58.2027 189.177 58.432 189.86 58.432ZM200.679 53.392H199.479V52.064H200.679V50.768C200.679 49.8933 200.909 49.216 201.367 48.736C201.837 48.2453 202.482 48 203.303 48C203.645 48 203.954 48.0533 204.231 48.16L203.943 49.616C203.73 49.5413 203.533 49.504 203.351 49.504C203.031 49.504 202.781 49.6053 202.599 49.808C202.418 50.0107 202.327 50.3093 202.327 50.704V52.064H204.119V53.392H202.327V60H200.679V53.392ZM208.976 60.224C208.229 60.224 207.531 60.064 206.88 59.744C206.229 59.4133 205.707 58.9333 205.312 58.304C204.917 57.664 204.72 56.9067 204.72 56.032C204.72 55.1573 204.917 54.4053 205.312 53.776C205.707 53.136 206.229 52.656 206.88 52.336C207.531 52.0053 208.229 51.84 208.976 51.84C209.712 51.84 210.405 52.0053 211.056 52.336C211.707 52.656 212.229 53.136 212.624 53.776C213.019 54.4053 213.216 55.1573 213.216 56.032C213.216 56.9067 213.019 57.664 212.624 58.304C212.229 58.9333 211.707 59.4133 211.056 59.744C210.405 60.064 209.712 60.224 208.976 60.224ZM208.976 58.704C209.435 58.704 209.861 58.5973 210.256 58.384C210.651 58.16 210.96 57.8453 211.184 57.44C211.419 57.0347 211.536 56.5653 211.536 56.032C211.536 55.4987 211.419 55.0293 211.184 54.624C210.96 54.2187 210.651 53.9093 210.256 53.696C209.861 53.472 209.435 53.36 208.976 53.36C208.507 53.36 208.075 53.472 207.68 53.696C207.296 53.9093 206.987 54.2187 206.752 54.624C206.517 55.0293 206.4 55.4987 206.4 56.032C206.4 56.5653 206.517 57.0347 206.752 57.44C206.987 57.8453 207.296 58.16 207.68 58.384C208.075 58.5973 208.507 58.704 208.976 58.704ZM214.888 52.064H216.552V53.408C216.765 52.928 217.064 52.5493 217.448 52.272C217.842 51.984 218.285 51.84 218.776 51.84C219.01 51.84 219.24 51.872 219.464 51.936L219.192 53.472C218.989 53.3973 218.776 53.36 218.552 53.36C217.965 53.36 217.485 53.6107 217.112 54.112C216.738 54.6027 216.552 55.2107 216.552 55.936V60H214.888V52.064ZM226.176 63.376C225.803 63.376 225.472 63.3173 225.184 63.2L225.44 61.68C225.675 61.7867 225.899 61.84 226.112 61.84C226.336 61.84 226.523 61.776 226.672 61.648C226.822 61.5307 226.95 61.3333 227.056 61.056L227.456 60.048L224.192 52.064H226.064L228.32 57.744L230.528 52.064H232.4L228.528 61.6C228.272 62.2293 227.952 62.6827 227.568 62.96C227.195 63.2373 226.731 63.376 226.176 63.376ZM237.132 60.224C236.386 60.224 235.687 60.064 235.036 59.744C234.386 59.4133 233.863 58.9333 233.468 58.304C233.074 57.664 232.876 56.9067 232.876 56.032C232.876 55.1573 233.074 54.4053 233.468 53.776C233.863 53.136 234.386 52.656 235.036 52.336C235.687 52.0053 236.386 51.84 237.132 51.84C237.868 51.84 238.562 52.0053 239.212 52.336C239.863 52.656 240.386 53.136 240.78 53.776C241.175 54.4053 241.372 55.1573 241.372 56.032C241.372 56.9067 241.175 57.664 240.78 58.304C240.386 58.9333 239.863 59.4133 239.212 59.744C238.562 60.064 237.868 60.224 237.132 60.224ZM237.132 58.704C237.591 58.704 238.018 58.5973 238.412 58.384C238.807 58.16 239.116 57.8453 239.34 57.44C239.575 57.0347 239.692 56.5653 239.692 56.032C239.692 55.4987 239.575 55.0293 239.34 54.624C239.116 54.2187 238.807 53.9093 238.412 53.696C238.018 53.472 237.591 53.36 237.132 53.36C236.663 53.36 236.231 53.472 235.836 53.696C235.452 53.9093 235.143 54.2187 234.908 54.624C234.674 55.0293 234.556 55.4987 234.556 56.032C234.556 56.5653 234.674 57.0347 234.908 57.44C235.143 57.8453 235.452 58.16 235.836 58.384C236.231 58.5973 236.663 58.704 237.132 58.704ZM245.893 60.224C245.04 60.224 244.341 59.9627 243.797 59.44C243.253 58.9067 242.981 58.1333 242.981 57.12V52.064H244.645V56.8C244.645 57.4187 244.795 57.8933 245.093 58.224C245.403 58.544 245.84 58.704 246.405 58.704C247.003 58.704 247.499 58.4747 247.893 58.016C248.288 57.5467 248.485 56.9493 248.485 56.224V52.064H250.133V60H248.485V58.688C248.229 59.168 247.872 59.5467 247.413 59.824C246.955 60.0907 246.448 60.224 245.893 60.224ZM256.7 52.064H258.364V60H256.7V52.064ZM256.604 48.96H258.476V50.8H256.604V48.96ZM260.513 52.064H262.177V53.408C262.465 52.9173 262.849 52.5333 263.329 52.256C263.809 51.9787 264.331 51.84 264.897 51.84C265.718 51.84 266.385 52.0853 266.897 52.576C267.419 53.056 267.681 53.728 267.681 54.592V60H266.017V55.184C266.017 54.608 265.862 54.16 265.553 53.84C265.254 53.52 264.822 53.36 264.257 53.36C263.873 53.36 263.521 53.4667 263.201 53.68C262.891 53.8933 262.641 54.1867 262.449 54.56C262.267 54.9227 262.177 55.3387 262.177 55.808V60H260.513V52.064ZM275.239 63.376C274.866 63.376 274.535 63.3173 274.247 63.2L274.503 61.68C274.738 61.7867 274.962 61.84 275.175 61.84C275.399 61.84 275.586 61.776 275.735 61.648C275.884 61.5307 276.012 61.3333 276.119 61.056L276.519 60.048L273.255 52.064H275.127L277.383 57.744L279.591 52.064H281.463L277.591 61.6C277.335 62.2293 277.015 62.6827 276.631 62.96C276.258 63.2373 275.794 63.376 275.239 63.376ZM286.195 60.224C285.448 60.224 284.749 60.064 284.099 59.744C283.448 59.4133 282.925 58.9333 282.531 58.304C282.136 57.664 281.939 56.9067 281.939 56.032C281.939 55.1573 282.136 54.4053 282.531 53.776C282.925 53.136 283.448 52.656 284.099 52.336C284.749 52.0053 285.448 51.84 286.195 51.84C286.931 51.84 287.624 52.0053 288.275 52.336C288.925 52.656 289.448 53.136 289.843 53.776C290.237 54.4053 290.435 55.1573 290.435 56.032C290.435 56.9067 290.237 57.664 289.843 58.304C289.448 58.9333 288.925 59.4133 288.275 59.744C287.624 60.064 286.931 60.224 286.195 60.224ZM286.195 58.704C286.653 58.704 287.08 58.5973 287.475 58.384C287.869 58.16 288.179 57.8453 288.403 57.44C288.637 57.0347 288.755 56.5653 288.755 56.032C288.755 55.4987 288.637 55.0293 288.403 54.624C288.179 54.2187 287.869 53.9093 287.475 53.696C287.08 53.472 286.653 53.36 286.195 53.36C285.725 53.36 285.293 53.472 284.899 53.696C284.515 53.9093 284.205 54.2187 283.971 54.624C283.736 55.0293 283.619 55.4987 283.619 56.032C283.619 56.5653 283.736 57.0347 283.971 57.44C284.205 57.8453 284.515 58.16 284.899 58.384C285.293 58.5973 285.725 58.704 286.195 58.704ZM294.956 60.224C294.102 60.224 293.404 59.9627 292.86 59.44C292.316 58.9067 292.044 58.1333 292.044 57.12V52.064H293.708V56.8C293.708 57.4187 293.857 57.8933 294.156 58.224C294.465 58.544 294.902 58.704 295.468 58.704C296.065 58.704 296.561 58.4747 296.956 58.016C297.35 57.5467 297.548 56.9493 297.548 56.224V52.064H299.196V60H297.548V58.688C297.292 59.168 296.934 59.5467 296.476 59.824C296.017 60.0907 295.51 60.224 294.956 60.224ZM301.263 52.064H302.927V53.408C303.14 52.928 303.439 52.5493 303.823 52.272C304.217 51.984 304.66 51.84 305.151 51.84C305.385 51.84 305.615 51.872 305.839 51.936L305.567 53.472C305.364 53.3973 305.151 53.36 304.927 53.36C304.34 53.36 303.86 53.6107 303.487 54.112C303.113 54.6027 302.927 55.2107 302.927 55.936V60H301.263V52.064ZM91.0669 83.224C90.2776 83.224 89.6376 83 89.1469 82.552C88.6563 82.0933 88.4109 81.496 88.4109 80.76C88.4109 80.0133 88.6669 79.4267 89.1789 79C89.7016 78.5733 90.3683 78.296 91.1789 78.168L93.7069 77.768V77.448C93.7069 76.9893 93.5629 76.6427 93.2749 76.408C92.9976 76.1733 92.5923 76.056 92.0589 76.056C91.5363 76.056 91.1256 76.1627 90.8269 76.376C90.5389 76.5787 90.3949 76.8347 90.3949 77.144C90.3949 77.2187 90.4056 77.288 90.4269 77.352L88.9709 77.848C88.8856 77.6453 88.8429 77.4267 88.8429 77.192C88.8429 76.776 88.9709 76.392 89.2269 76.04C89.4936 75.6773 89.8723 75.3893 90.3629 75.176C90.8536 74.952 91.4189 74.84 92.0589 74.84C93.1256 74.84 93.9416 75.0747 94.5069 75.544C95.0829 76.0133 95.3709 76.696 95.3709 77.592V81.032C95.3709 81.48 95.4083 81.848 95.4829 82.136C95.5576 82.4133 95.6909 82.7013 95.8829 83H94.2029C93.9149 82.6267 93.7709 82.1573 93.7709 81.592C93.5256 82.104 93.1576 82.504 92.6669 82.792C92.1869 83.08 91.6536 83.224 91.0669 83.224ZM91.4189 81.848C92.1016 81.848 92.6509 81.6027 93.0669 81.112C93.4936 80.6107 93.7069 79.9707 93.7069 79.192V78.968L91.5469 79.336C91.0563 79.4213 90.6776 79.576 90.4109 79.8C90.1549 80.024 90.0269 80.3173 90.0269 80.68C90.0269 81.0427 90.1496 81.3307 90.3949 81.544C90.6509 81.7467 90.9923 81.848 91.4189 81.848ZM97.4657 75.064H99.1297V76.36C99.3857 75.9227 99.7643 75.56 100.266 75.272C100.778 74.984 101.338 74.84 101.946 74.84C102.628 74.84 103.247 75.016 103.802 75.368C104.367 75.7093 104.81 76.2 105.13 76.84C105.46 77.4693 105.626 78.2 105.626 79.032C105.626 79.8427 105.455 80.568 105.114 81.208C104.783 81.8373 104.33 82.3333 103.754 82.696C103.178 83.048 102.532 83.224 101.818 83.224C101.242 83.224 100.719 83.1067 100.25 82.872C99.791 82.6267 99.4177 82.296 99.1297 81.88V86.264H97.4657V75.064ZM101.466 81.704C101.935 81.704 102.356 81.592 102.73 81.368C103.114 81.1333 103.407 80.8133 103.61 80.408C103.823 79.992 103.93 79.5333 103.93 79.032C103.93 78.5307 103.823 78.0773 103.61 77.672C103.407 77.256 103.114 76.936 102.73 76.712C102.356 76.4773 101.935 76.36 101.466 76.36C100.996 76.36 100.575 76.4773 100.202 76.712C99.8283 76.9467 99.535 77.2667 99.3217 77.672C99.1083 78.0773 99.0017 78.5307 99.0017 79.032C99.0017 79.5333 99.1083 79.9867 99.3217 80.392C99.535 80.7973 99.8283 81.1173 100.202 81.352C100.575 81.5867 100.996 81.704 101.466 81.704ZM109.567 83.224C108.778 83.224 108.138 83 107.647 82.552C107.156 82.0933 106.911 81.496 106.911 80.76C106.911 80.0133 107.167 79.4267 107.679 79C108.202 78.5733 108.868 78.296 109.679 78.168L112.207 77.768V77.448C112.207 76.9893 112.063 76.6427 111.775 76.408C111.498 76.1733 111.092 76.056 110.559 76.056C110.036 76.056 109.626 76.1627 109.327 76.376C109.039 76.5787 108.895 76.8347 108.895 77.144C108.895 77.2187 108.906 77.288 108.927 77.352L107.471 77.848C107.386 77.6453 107.343 77.4267 107.343 77.192C107.343 76.776 107.471 76.392 107.727 76.04C107.994 75.6773 108.372 75.3893 108.863 75.176C109.354 74.952 109.919 74.84 110.559 74.84C111.626 74.84 112.442 75.0747 113.007 75.544C113.583 76.0133 113.871 76.696 113.871 77.592V81.032C113.871 81.48 113.908 81.848 113.983 82.136C114.058 82.4133 114.191 82.7013 114.383 83H112.703C112.415 82.6267 112.271 82.1573 112.271 81.592C112.026 82.104 111.658 82.504 111.167 82.792C110.687 83.08 110.154 83.224 109.567 83.224ZM109.919 81.848C110.602 81.848 111.151 81.6027 111.567 81.112C111.994 80.6107 112.207 79.9707 112.207 79.192V78.968L110.047 79.336C109.556 79.4213 109.178 79.576 108.911 79.8C108.655 80.024 108.527 80.3173 108.527 80.68C108.527 81.0427 108.65 81.3307 108.895 81.544C109.151 81.7467 109.492 81.848 109.919 81.848ZM115.934 75.064H117.598V76.408C117.812 75.928 118.11 75.5493 118.494 75.272C118.889 74.984 119.332 74.84 119.822 74.84C120.057 74.84 120.286 74.872 120.51 74.936L120.238 76.472C120.036 76.3973 119.822 76.36 119.598 76.36C119.012 76.36 118.532 76.6107 118.158 77.112C117.785 77.6027 117.598 78.2107 117.598 78.936V83H115.934V75.064ZM125.019 83.224C124.326 83.224 123.766 83.0373 123.339 82.664C122.912 82.28 122.699 81.6667 122.699 80.824V76.392H121.419V75.064H122.699V72.92H124.347V75.064H126.155V76.392H124.347V80.584C124.347 81.3733 124.699 81.768 125.403 81.768C125.616 81.768 125.83 81.736 126.043 81.672L126.203 83.032C125.84 83.16 125.446 83.224 125.019 83.224ZM127.778 75.064H129.442V76.216C129.698 75.7787 130.034 75.4427 130.45 75.208C130.866 74.9627 131.309 74.84 131.778 74.84C132.322 74.84 132.781 74.968 133.154 75.224C133.538 75.4693 133.81 75.8213 133.97 76.28C134.237 75.832 134.594 75.48 135.042 75.224C135.501 74.968 135.986 74.84 136.498 74.84C137.277 74.84 137.885 75.064 138.322 75.512C138.77 75.96 138.994 76.568 138.994 77.336V83H137.346V77.832C137.346 76.7973 136.882 76.28 135.954 76.28C135.453 76.28 135.037 76.488 134.706 76.904C134.376 77.3093 134.21 77.896 134.21 78.664V83H132.562V77.88C132.562 77.368 132.445 76.9733 132.21 76.696C131.976 76.4187 131.629 76.28 131.17 76.28C130.69 76.28 130.28 76.488 129.938 76.904C129.608 77.32 129.442 77.8907 129.442 78.616V83H127.778V75.064ZM144.58 83.224C143.854 83.224 143.182 83.048 142.564 82.696C141.956 82.344 141.47 81.848 141.108 81.208C140.745 80.568 140.564 79.8427 140.564 79.032C140.564 78.2213 140.745 77.5013 141.108 76.872C141.47 76.232 141.961 75.736 142.58 75.384C143.209 75.0213 143.902 74.84 144.66 74.84C145.417 74.84 146.084 75.0107 146.66 75.352C147.246 75.6827 147.7 76.152 148.02 76.76C148.34 77.3573 148.5 78.04 148.5 78.808V79.384H142.164C142.217 80.0987 142.468 80.68 142.916 81.128C143.364 81.576 143.929 81.8 144.612 81.8C145.198 81.8 145.684 81.6667 146.068 81.4C146.452 81.1227 146.777 80.7227 147.044 80.2L148.26 80.904C147.876 81.6827 147.385 82.264 146.788 82.648C146.19 83.032 145.454 83.224 144.58 83.224ZM146.916 78.088C146.852 77.48 146.606 77.0053 146.18 76.664C145.753 76.312 145.23 76.136 144.612 76.136C144.014 76.136 143.497 76.3227 143.06 76.696C142.622 77.0587 142.334 77.5227 142.196 78.088H146.916ZM150.2 75.064H151.864V76.408C152.152 75.9173 152.536 75.5333 153.016 75.256C153.496 74.9787 154.019 74.84 154.584 74.84C155.405 74.84 156.072 75.0853 156.584 75.576C157.107 76.056 157.368 76.728 157.368 77.592V83H155.704V78.184C155.704 77.608 155.549 77.16 155.24 76.84C154.941 76.52 154.509 76.36 153.944 76.36C153.56 76.36 153.208 76.4667 152.888 76.68C152.579 76.8933 152.328 77.1867 152.136 77.56C151.955 77.9227 151.864 78.3387 151.864 78.808V83H150.2V75.064ZM162.05 83.224C161.357 83.224 160.797 83.0373 160.37 82.664C159.944 82.28 159.73 81.6667 159.73 80.824V76.392H158.45V75.064H159.73V72.92H161.378V75.064H163.186V76.392H161.378V80.584C161.378 81.3733 161.73 81.768 162.434 81.768C162.648 81.768 162.861 81.736 163.074 81.672L163.234 83.032C162.872 83.16 162.477 83.224 162.05 83.224ZM173.007 83.224C172.261 83.224 171.562 83.064 170.911 82.744C170.261 82.4133 169.738 81.9333 169.343 81.304C168.949 80.664 168.751 79.9067 168.751 79.032C168.751 78.1573 168.949 77.4053 169.343 76.776C169.738 76.136 170.261 75.656 170.911 75.336C171.562 75.0053 172.261 74.84 173.007 74.84C173.743 74.84 174.437 75.0053 175.087 75.336C175.738 75.656 176.261 76.136 176.655 76.776C177.05 77.4053 177.247 78.1573 177.247 79.032C177.247 79.9067 177.05 80.664 176.655 81.304C176.261 81.9333 175.738 82.4133 175.087 82.744C174.437 83.064 173.743 83.224 173.007 83.224ZM173.007 81.704C173.466 81.704 173.893 81.5973 174.287 81.384C174.682 81.16 174.991 80.8453 175.215 80.44C175.45 80.0347 175.567 79.5653 175.567 79.032C175.567 78.4987 175.45 78.0293 175.215 77.624C174.991 77.2187 174.682 76.9093 174.287 76.696C173.893 76.472 173.466 76.36 173.007 76.36C172.538 76.36 172.106 76.472 171.711 76.696C171.327 76.9093 171.018 77.2187 170.783 77.624C170.549 78.0293 170.431 78.4987 170.431 79.032C170.431 79.5653 170.549 80.0347 170.783 80.44C171.018 80.8453 171.327 81.16 171.711 81.384C172.106 81.5973 172.538 81.704 173.007 81.704ZM178.919 75.064H180.583V76.408C180.871 75.9173 181.255 75.5333 181.735 75.256C182.215 74.9787 182.737 74.84 183.303 74.84C184.124 74.84 184.791 75.0853 185.303 75.576C185.825 76.056 186.087 76.728 186.087 77.592V83H184.423V78.184C184.423 77.608 184.268 77.16 183.959 76.84C183.66 76.52 183.228 76.36 182.663 76.36C182.279 76.36 181.927 76.4667 181.607 76.68C181.297 76.8933 181.047 77.1867 180.855 77.56C180.673 77.9227 180.583 78.3387 180.583 78.808V83H178.919V75.064ZM196.909 83.224C195.629 83.224 194.6 82.904 193.821 82.264C193.053 81.6133 192.557 80.76 192.333 79.704L193.869 78.904C194.211 80.7707 195.224 81.704 196.909 81.704C197.635 81.704 198.216 81.5333 198.653 81.192C199.091 80.8507 199.309 80.424 199.309 79.912C199.309 79.3573 199.075 78.9253 198.605 78.616C198.136 78.296 197.411 78.0453 196.429 77.864C195.309 77.6507 194.429 77.2773 193.789 76.744C193.16 76.2 192.845 75.4747 192.845 74.568C192.845 73.9813 193.005 73.464 193.325 73.016C193.656 72.5573 194.109 72.2053 194.685 71.96C195.261 71.704 195.923 71.576 196.669 71.576C197.704 71.576 198.579 71.816 199.293 72.296C200.008 72.776 200.525 73.4693 200.845 74.376L199.469 75.176C199.235 74.504 198.877 73.992 198.397 73.64C197.917 73.2773 197.336 73.096 196.653 73.096C196.035 73.096 195.517 73.224 195.101 73.48C194.696 73.7253 194.493 74.0773 194.493 74.536C194.493 75.0373 194.728 75.4373 195.197 75.736C195.677 76.0347 196.413 76.2853 197.405 76.488C198.621 76.744 199.528 77.1387 200.125 77.672C200.733 78.2053 201.037 78.92 201.037 79.816C201.037 80.4347 200.867 81.0053 200.525 81.528C200.184 82.0507 199.699 82.4667 199.069 82.776C198.451 83.0747 197.731 83.224 196.909 83.224ZM206.564 83.224C205.839 83.224 205.167 83.048 204.548 82.696C203.94 82.344 203.455 81.848 203.092 81.208C202.73 80.568 202.548 79.8427 202.548 79.032C202.548 78.2213 202.73 77.5013 203.092 76.872C203.455 76.232 203.946 75.736 204.564 75.384C205.194 75.0213 205.887 74.84 206.644 74.84C207.402 74.84 208.068 75.0107 208.644 75.352C209.231 75.6827 209.684 76.152 210.004 76.76C210.324 77.3573 210.484 78.04 210.484 78.808V79.384H204.148C204.202 80.0987 204.452 80.68 204.9 81.128C205.348 81.576 205.914 81.8 206.596 81.8C207.183 81.8 207.668 81.6667 208.052 81.4C208.436 81.1227 208.762 80.7227 209.028 80.2L210.244 80.904C209.86 81.6827 209.37 82.264 208.772 82.648C208.175 83.032 207.439 83.224 206.564 83.224ZM208.9 78.088C208.836 77.48 208.591 77.0053 208.164 76.664C207.738 76.312 207.215 76.136 206.596 76.136C205.999 76.136 205.482 76.3227 205.044 76.696C204.607 77.0587 204.319 77.5227 204.18 78.088H208.9ZM212.153 75.064H213.817V76.36C214.073 75.9227 214.452 75.56 214.953 75.272C215.465 74.984 216.025 74.84 216.633 74.84C217.316 74.84 217.935 75.016 218.489 75.368C219.055 75.7093 219.497 76.2 219.817 76.84C220.148 77.4693 220.313 78.2 220.313 79.032C220.313 79.8427 220.143 80.568 219.801 81.208C219.471 81.8373 219.017 82.3333 218.441 82.696C217.865 83.048 217.22 83.224 216.505 83.224C215.929 83.224 215.407 83.1067 214.937 82.872C214.479 82.6267 214.105 82.296 213.817 81.88V86.264H212.153V75.064ZM216.153 81.704C216.623 81.704 217.044 81.592 217.417 81.368C217.801 81.1333 218.095 80.8133 218.297 80.408C218.511 79.992 218.617 79.5333 218.617 79.032C218.617 78.5307 218.511 78.0773 218.297 77.672C218.095 77.256 217.801 76.936 217.417 76.712C217.044 76.4773 216.623 76.36 216.153 76.36C215.684 76.36 215.263 76.4773 214.889 76.712C214.516 76.9467 214.223 77.2667 214.009 77.672C213.796 78.0773 213.689 78.5307 213.689 79.032C213.689 79.5333 213.796 79.9867 214.009 80.392C214.223 80.7973 214.516 81.1173 214.889 81.352C215.263 81.5867 215.684 81.704 216.153 81.704ZM224.644 83.224C223.951 83.224 223.391 83.0373 222.964 82.664C222.537 82.28 222.324 81.6667 222.324 80.824V76.392H221.044V75.064H222.324V72.92H223.972V75.064H225.78V76.392H223.972V80.584C223.972 81.3733 224.324 81.768 225.028 81.768C225.241 81.768 225.455 81.736 225.668 81.672L225.828 83.032C225.465 83.16 225.071 83.224 224.644 83.224ZM230.689 83.224C229.964 83.224 229.292 83.048 228.673 82.696C228.065 82.344 227.58 81.848 227.217 81.208C226.855 80.568 226.673 79.8427 226.673 79.032C226.673 78.2213 226.855 77.5013 227.217 76.872C227.58 76.232 228.071 75.736 228.689 75.384C229.319 75.0213 230.012 74.84 230.769 74.84C231.527 74.84 232.193 75.0107 232.769 75.352C233.356 75.6827 233.809 76.152 234.129 76.76C234.449 77.3573 234.609 78.04 234.609 78.808V79.384H228.273C228.327 80.0987 228.577 80.68 229.025 81.128C229.473 81.576 230.039 81.8 230.721 81.8C231.308 81.8 231.793 81.6667 232.177 81.4C232.561 81.1227 232.887 80.7227 233.153 80.2L234.369 80.904C233.985 81.6827 233.495 82.264 232.897 82.648C232.3 83.032 231.564 83.224 230.689 83.224ZM233.025 78.088C232.961 77.48 232.716 77.0053 232.289 76.664C231.863 76.312 231.34 76.136 230.721 76.136C230.124 76.136 229.607 76.3227 229.169 76.696C228.732 77.0587 228.444 77.5227 228.305 78.088H233.025ZM236.309 75.064H237.973V76.216C238.229 75.7787 238.565 75.4427 238.981 75.208C239.397 74.9627 239.84 74.84 240.309 74.84C240.853 74.84 241.312 74.968 241.685 75.224C242.069 75.4693 242.341 75.8213 242.501 76.28C242.768 75.832 243.125 75.48 243.573 75.224C244.032 74.968 244.517 74.84 245.029 74.84C245.808 74.84 246.416 75.064 246.853 75.512C247.301 75.96 247.525 76.568 247.525 77.336V83H245.877V77.832C245.877 76.7973 245.413 76.28 244.485 76.28C243.984 76.28 243.568 76.488 243.237 76.904C242.907 77.3093 242.741 77.896 242.741 78.664V83H241.093V77.88C241.093 77.368 240.976 76.9733 240.741 76.696C240.507 76.4187 240.16 76.28 239.701 76.28C239.221 76.28 238.811 76.488 238.469 76.904C238.139 77.32 237.973 77.8907 237.973 78.616V83H236.309V75.064ZM253.88 83.224C253.272 83.224 252.733 83.0907 252.264 82.824C251.805 82.5573 251.453 82.2267 251.208 81.832V83H249.544V71.8H251.208V76.216C251.506 75.7893 251.896 75.4533 252.376 75.208C252.866 74.9627 253.394 74.84 253.96 74.84C254.664 74.84 255.298 75.016 255.864 75.368C256.44 75.7093 256.888 76.2 257.208 76.84C257.538 77.4693 257.704 78.2 257.704 79.032C257.704 79.864 257.533 80.6 257.192 81.24C256.861 81.8693 256.402 82.36 255.816 82.712C255.24 83.0533 254.594 83.224 253.88 83.224ZM253.544 81.704C254.269 81.704 254.861 81.4533 255.32 80.952C255.778 80.4507 256.008 79.8107 256.008 79.032C256.008 78.2533 255.778 77.6133 255.32 77.112C254.861 76.6107 254.269 76.36 253.544 76.36C253.074 76.36 252.653 76.4773 252.28 76.712C251.906 76.936 251.613 77.2507 251.4 77.656C251.186 78.0613 251.08 78.52 251.08 79.032C251.08 79.544 251.181 80.0027 251.384 80.408C251.597 80.8133 251.89 81.1333 252.264 81.368C252.648 81.592 253.074 81.704 253.544 81.704ZM262.908 83.224C262.183 83.224 261.511 83.048 260.892 82.696C260.284 82.344 259.799 81.848 259.436 81.208C259.073 80.568 258.892 79.8427 258.892 79.032C258.892 78.2213 259.073 77.5013 259.436 76.872C259.799 76.232 260.289 75.736 260.908 75.384C261.537 75.0213 262.231 74.84 262.988 74.84C263.745 74.84 264.412 75.0107 264.988 75.352C265.575 75.6827 266.028 76.152 266.348 76.76C266.668 77.3573 266.828 78.04 266.828 78.808V79.384H260.492C260.545 80.0987 260.796 80.68 261.244 81.128C261.692 81.576 262.257 81.8 262.94 81.8C263.527 81.8 264.012 81.6667 264.396 81.4C264.78 81.1227 265.105 80.7227 265.372 80.2L266.588 80.904C266.204 81.6827 265.713 82.264 265.116 82.648C264.519 83.032 263.783 83.224 262.908 83.224ZM265.244 78.088C265.18 77.48 264.935 77.0053 264.508 76.664C264.081 76.312 263.559 76.136 262.94 76.136C262.343 76.136 261.825 76.3227 261.388 76.696C260.951 77.0587 260.663 77.5227 260.524 78.088H265.244ZM268.528 75.064H270.192V76.408C270.406 75.928 270.704 75.5493 271.088 75.272C271.483 74.984 271.926 74.84 272.416 74.84C272.651 74.84 272.88 74.872 273.104 74.936L272.832 76.472C272.63 76.3973 272.416 76.36 272.192 76.36C271.606 76.36 271.126 76.6107 270.752 77.112C270.379 77.6027 270.192 78.2107 270.192 78.936V83H268.528V75.064ZM280.889 73.992C280.601 74.2907 280.276 74.4987 279.913 74.616C279.55 74.7333 279.092 74.792 278.537 74.792V73.208C279.166 73.208 279.673 73.096 280.057 72.872C280.452 72.6373 280.772 72.28 281.017 71.8H282.601V83H280.889V73.992ZM289.944 80.968H284.488V79.384L289.944 71.8H291.672V79.384H292.856V80.968H291.672V83H289.944V80.968ZM289.944 79.384V74.28L286.312 79.384H289.944ZM301.145 83.224C300.356 83.224 299.716 83 299.225 82.552C298.734 82.0933 298.489 81.496 298.489 80.76C298.489 80.0133 298.745 79.4267 299.257 79C299.78 78.5733 300.446 78.296 301.257 78.168L303.785 77.768V77.448C303.785 76.9893 303.641 76.6427 303.353 76.408C303.076 76.1733 302.67 76.056 302.137 76.056C301.614 76.056 301.204 76.1627 300.905 76.376C300.617 76.5787 300.473 76.8347 300.473 77.144C300.473 77.2187 300.484 77.288 300.505 77.352L299.049 77.848C298.964 77.6453 298.921 77.4267 298.921 77.192C298.921 76.776 299.049 76.392 299.305 76.04C299.572 75.6773 299.95 75.3893 300.441 75.176C300.932 74.952 301.497 74.84 302.137 74.84C303.204 74.84 304.02 75.0747 304.585 75.544C305.161 76.0133 305.449 76.696 305.449 77.592V81.032C305.449 81.48 305.486 81.848 305.561 82.136C305.636 82.4133 305.769 82.7013 305.961 83H304.281C303.993 82.6267 303.849 82.1573 303.849 81.592C303.604 82.104 303.236 82.504 302.745 82.792C302.265 83.08 301.732 83.224 301.145 83.224ZM301.497 81.848C302.18 81.848 302.729 81.6027 303.145 81.112C303.572 80.6107 303.785 79.9707 303.785 79.192V78.968L301.625 79.336C301.134 79.4213 300.756 79.576 300.489 79.8C300.233 80.024 300.105 80.3173 300.105 80.68C300.105 81.0427 300.228 81.3307 300.473 81.544C300.729 81.7467 301.07 81.848 301.497 81.848ZM310.269 83.224C309.576 83.224 309.016 83.0373 308.589 82.664C308.162 82.28 307.949 81.6667 307.949 80.824V76.392H306.669V75.064H307.949V72.92H309.597V75.064H311.405V76.392H309.597V80.584C309.597 81.3733 309.949 81.768 310.653 81.768C310.866 81.768 311.08 81.736 311.293 81.672L311.453 83.032C311.09 83.16 310.696 83.224 310.269 83.224ZM319.514 73.992C319.226 74.2907 318.901 74.4987 318.538 74.616C318.175 74.7333 317.717 74.792 317.162 74.792V73.208C317.791 73.208 318.298 73.096 318.682 72.872C319.077 72.6373 319.397 72.28 319.642 71.8H321.226V83H319.514V73.992ZM323.209 81.768L327.497 77.56C328.02 77.048 328.388 76.6 328.601 76.216C328.825 75.8213 328.937 75.3947 328.937 74.936C328.937 74.3813 328.756 73.9387 328.393 73.608C328.031 73.2667 327.545 73.096 326.937 73.096C326.351 73.096 325.871 73.2667 325.497 73.608C325.135 73.9387 324.953 74.3973 324.953 74.984C324.953 75.2613 324.996 75.512 325.081 75.736L323.433 76.04C323.295 75.688 323.225 75.2933 323.225 74.856C323.225 74.28 323.375 73.7413 323.673 73.24C323.983 72.7387 324.42 72.3387 324.985 72.04C325.551 71.7307 326.207 71.576 326.953 71.576C327.721 71.576 328.377 71.7147 328.921 71.992C329.476 72.2693 329.897 72.648 330.185 73.128C330.473 73.608 330.617 74.152 330.617 74.76C330.617 75.4747 330.473 76.1147 330.185 76.68C329.897 77.2453 329.38 77.8907 328.633 78.616L325.817 81.384H330.649V83H323.209V81.768ZM332.41 75.32H334.266V77.192H332.41V75.32ZM332.41 81.128H334.266V83H332.41V81.128ZM340.669 83.224C339.709 83.224 338.85 82.984 338.093 82.504C337.346 82.0133 336.759 81.3307 336.333 80.456C335.917 79.5707 335.709 78.552 335.709 77.4C335.709 76.248 335.917 75.2347 336.333 74.36C336.759 73.4747 337.346 72.792 338.093 72.312C338.85 71.8213 339.709 71.576 340.669 71.576C341.629 71.576 342.482 71.8213 343.229 72.312C343.986 72.792 344.578 73.4747 345.005 74.36C345.431 75.2347 345.645 76.248 345.645 77.4C345.645 78.552 345.431 79.5707 345.005 80.456C344.578 81.3307 343.986 82.0133 343.229 82.504C342.482 82.984 341.629 83.224 340.669 83.224ZM340.669 81.64C341.298 81.64 341.858 81.4693 342.349 81.128C342.839 80.7867 343.223 80.296 343.501 79.656C343.778 79.016 343.917 78.264 343.917 77.4C343.917 76.536 343.778 75.784 343.501 75.144C343.223 74.504 342.839 74.0133 342.349 73.672C341.858 73.3307 341.298 73.16 340.669 73.16C340.039 73.16 339.479 73.3307 338.989 73.672C338.498 74.0133 338.114 74.504 337.837 75.144C337.559 75.784 337.421 76.536 337.421 77.4C337.421 78.264 337.559 79.016 337.837 79.656C338.114 80.296 338.498 80.7867 338.989 81.128C339.479 81.4693 340.039 81.64 340.669 81.64ZM352.137 83.224C351.177 83.224 350.319 82.984 349.561 82.504C348.815 82.0133 348.228 81.3307 347.801 80.456C347.385 79.5707 347.177 78.552 347.177 77.4C347.177 76.248 347.385 75.2347 347.801 74.36C348.228 73.4747 348.815 72.792 349.561 72.312C350.319 71.8213 351.177 71.576 352.137 71.576C353.097 71.576 353.951 71.8213 354.697 72.312C355.455 72.792 356.047 73.4747 356.473 74.36C356.9 75.2347 357.113 76.248 357.113 77.4C357.113 78.552 356.9 79.5707 356.473 80.456C356.047 81.3307 355.455 82.0133 354.697 82.504C353.951 82.984 353.097 83.224 352.137 83.224ZM352.137 81.64C352.767 81.64 353.327 81.4693 353.817 81.128C354.308 80.7867 354.692 80.296 354.969 79.656C355.247 79.016 355.385 78.264 355.385 77.4C355.385 76.536 355.247 75.784 354.969 75.144C354.692 74.504 354.308 74.0133 353.817 73.672C353.327 73.3307 352.767 73.16 352.137 73.16C351.508 73.16 350.948 73.3307 350.457 73.672C349.967 74.0133 349.583 74.504 349.305 75.144C349.028 75.784 348.889 76.536 348.889 77.4C348.889 78.264 349.028 79.016 349.305 79.656C349.583 80.296 349.967 80.7867 350.457 81.128C350.948 81.4693 351.508 81.64 352.137 81.64Z" fill="black"/>
</g>
<defs>
<filter id="filter0_b_2453_73613" x="-50" y="-50" width="544" height="207" filterUnits="userSpaceOnUse" color-interpolation-filters="sRGB">
<feFlood flood-opacity="0" result="BackgroundImageFix"/>
<feGaussianBlur in="BackgroundImageFix" stdDeviation="25"/>
<feComposite in2="SourceAlpha" operator="in" result="effect1_backgroundBlur_2453_73613"/>
<feBlend mode="normal" in="SourceGraphic" in2="effect1_backgroundBlur_2453_73613" result="shape"/>
</filter>
</defs>
</svg>
