<svg width="433" height="107" viewBox="0 0 433 107" fill="none" xmlns="http://www.w3.org/2000/svg">
<g filter="url(#filter0_b_2453_73630)">
<rect width="433" height="107" rx="18" fill="#F2E2D0" fill-opacity="0.59"/>
<rect x="16" y="25.5" width="55.6749" height="56" rx="14" fill="white"/>
<path fill-rule="evenodd" clip-rule="evenodd" d="M43.477 73.0449C40.347 73.0449 37.4217 72.3688 34.7012 71.0166C32.0099 69.6938 29.7924 67.6242 27.993 64.9858C25.9251 61.9539 24.7625 58.4503 24.6717 54.305C24.6717 50.7187 25.5837 47.0296 27.2511 44.0311C28.9477 41.0327 31.5226 38.3815 34.5357 36.6471C37.5487 34.8833 40.9624 33.8203 45.4257 33.97C48.5558 33.97 51.5097 35.0651 54.158 36.4137C56.6615 37.8271 58.9811 39.7538 60.59 42.223C62.1989 44.6923 63.0034 47.7201 63.0034 51.3064C63.0034 53.9521 62.5207 55.2154 61.5554 57.332C60.59 59.4191 59.2882 61.0653 57.6501 62.2705C56.0412 63.4464 54.6413 63.986 51.7264 63.986C50.4819 63.986 50.168 63.7311 49.4248 63.1279L49.4008 63.1083C48.6436 62.4645 48.2633 61.6313 48.2599 60.6087L48.1433 52.502L51.7264 55.7826V58.3902V58.9232C51.7264 59.7636 52.4076 60.4448 53.2479 60.4448C54.1548 60.4448 55.032 60.3745 55.9388 59.5808C56.8456 58.7577 57.5916 57.5524 58.1766 55.965L58.1894 55.9322C58.7952 54.3668 59.0981 53.5841 59.0981 51.3946C59.0981 48.8372 58.5716 46.5884 57.5185 44.6482C56.4946 42.6787 55.0836 40.8329 52.9774 39.7158C50.9252 38.5139 48.003 37.3899 44.9607 37.3899C41.9628 37.3899 39.0825 37.9858 36.6837 39.3968C34.1479 40.7591 31.7256 43.045 30.3215 45.5437C28.5467 48.5204 27.9615 51.392 28.0716 54.5725C28.1817 57.753 29.3277 60.8435 30.8192 63.0062C32.1063 65.2403 34.4809 67.2134 36.6164 68.3304C38.7811 69.4769 41.2246 69.5615 43.8281 69.5615C45.6125 69.5615 47.1337 69.341 48.3915 68.9001C49.0852 68.6783 49.7533 68.4053 50.396 68.081C51.2932 67.6284 52.4265 67.8645 52.9435 68.7261C53.4182 69.5171 53.1986 70.5506 52.3922 70.9987C51.3641 71.57 50.3084 72.0169 49.2252 72.3394C47.6456 72.8098 45.7295 73.0449 43.477 73.0449ZM51.7264 46.9665V44.0751C51.7264 43.0522 50.8972 42.223 49.8743 42.223C49.0055 42.223 48.278 42.8208 48.0772 43.6253L51.7264 46.9665Z" fill="#17C1B9"/>
<path fill-rule="evenodd" clip-rule="evenodd" d="M52.6234 54.6373L44.3431 47.0559L40.5687 50.4658V59.2931C40.5687 59.9734 41.1651 60.5249 41.9008 60.5249H44.3237C45.3046 60.5249 46.0998 61.2603 46.0998 62.1674C46.0998 63.0745 45.3046 63.8098 44.3237 63.8098H41.9008C39.2033 63.8098 37.0166 61.7876 37.0166 59.2931V53.675L35.0427 55.4583C34.3149 56.1158 33.1918 56.0589 32.5342 55.331C31.8766 54.6032 31.9336 53.4801 32.6614 52.8225L37.4742 48.4744C37.5241 48.4233 37.5775 48.3751 37.6339 48.3302L42.5611 43.8787C43.5804 42.9578 45.1329 42.9629 46.1461 43.8906L55.0221 52.0174C55.7456 52.6798 55.7951 53.8033 55.1327 54.5267C54.4703 55.2502 53.3468 55.2997 52.6234 54.6373Z" fill="#02636C"/>
<path d="M91.8149 23.596H87.9629V21.4H98.0429V23.596H94.1909V34H91.8149V23.596ZM99.4613 21.4H101.729V26.476C102.065 25.948 102.503 25.54 103.043 25.252C103.583 24.964 104.177 24.82 104.825 24.82C105.797 24.82 106.565 25.108 107.129 25.684C107.705 26.248 107.993 27.01 107.993 27.97V34H105.725V28.852C105.725 28.252 105.569 27.784 105.257 27.448C104.957 27.112 104.513 26.944 103.925 26.944C103.289 26.944 102.761 27.178 102.341 27.646C101.933 28.114 101.729 28.72 101.729 29.464V34H99.4613V21.4ZM114.217 34.252C113.389 34.252 112.621 34.054 111.913 33.658C111.217 33.262 110.659 32.704 110.239 31.984C109.831 31.264 109.627 30.448 109.627 29.536C109.627 28.612 109.837 27.796 110.257 27.088C110.677 26.368 111.241 25.81 111.949 25.414C112.669 25.018 113.461 24.82 114.325 24.82C115.165 24.82 115.915 25.012 116.575 25.396C117.235 25.768 117.751 26.296 118.123 26.98C118.495 27.652 118.681 28.42 118.681 29.284V30.076H111.805C111.877 30.76 112.135 31.306 112.579 31.714C113.023 32.11 113.581 32.308 114.253 32.308C114.841 32.308 115.327 32.176 115.711 31.912C116.107 31.636 116.443 31.222 116.719 30.67L118.411 31.642C117.967 32.542 117.403 33.202 116.719 33.622C116.035 34.042 115.201 34.252 114.217 34.252ZM116.575 28.348C116.467 27.784 116.209 27.346 115.801 27.034C115.393 26.71 114.877 26.548 114.253 26.548C113.677 26.548 113.173 26.716 112.741 27.052C112.309 27.388 112.009 27.82 111.841 28.348H116.575ZM125.459 25.072H127.727V26.35C128.039 25.894 128.471 25.528 129.023 25.252C129.575 24.964 130.175 24.82 130.823 24.82C131.579 24.82 132.269 25.012 132.893 25.396C133.517 25.768 134.009 26.314 134.369 27.034C134.741 27.742 134.927 28.576 134.927 29.536C134.927 30.472 134.735 31.3 134.351 32.02C133.967 32.728 133.445 33.28 132.785 33.676C132.137 34.06 131.417 34.252 130.625 34.252C130.013 34.252 129.461 34.132 128.969 33.892C128.477 33.652 128.063 33.322 127.727 32.902V37.672H125.459V25.072ZM130.103 32.128C130.823 32.128 131.423 31.882 131.903 31.39C132.383 30.886 132.623 30.268 132.623 29.536C132.623 28.804 132.383 28.192 131.903 27.7C131.423 27.196 130.823 26.944 130.103 26.944C129.383 26.944 128.783 27.196 128.303 27.7C127.823 28.192 127.583 28.804 127.583 29.536C127.583 30.268 127.823 30.886 128.303 31.39C128.783 31.882 129.383 32.128 130.103 32.128ZM139.303 34.252C138.415 34.252 137.689 34 137.125 33.496C136.573 32.98 136.297 32.302 136.297 31.462C136.297 30.61 136.591 29.944 137.179 29.464C137.779 28.972 138.547 28.654 139.483 28.51L142.165 28.096V27.754C142.165 27.322 142.027 26.992 141.751 26.764C141.475 26.524 141.067 26.404 140.527 26.404C140.023 26.404 139.627 26.5 139.339 26.692C139.063 26.884 138.925 27.124 138.925 27.412C138.925 27.484 138.937 27.556 138.961 27.628L136.927 28.312C136.819 28.072 136.765 27.82 136.765 27.556C136.765 27.088 136.915 26.644 137.215 26.224C137.515 25.804 137.947 25.468 138.511 25.216C139.087 24.952 139.759 24.82 140.527 24.82C141.799 24.82 142.765 25.09 143.425 25.63C144.097 26.17 144.433 26.98 144.433 28.06V31.786C144.433 32.29 144.475 32.704 144.559 33.028C144.655 33.352 144.811 33.676 145.027 34H142.723C142.615 33.868 142.513 33.682 142.417 33.442C142.333 33.202 142.291 32.914 142.291 32.578C141.979 33.13 141.565 33.55 141.049 33.838C140.533 34.114 139.951 34.252 139.303 34.252ZM139.843 32.416C140.527 32.416 141.085 32.194 141.517 31.75C141.949 31.294 142.165 30.652 142.165 29.824V29.662L140.005 30.022C139.009 30.19 138.511 30.628 138.511 31.336C138.511 31.684 138.631 31.954 138.871 32.146C139.111 32.326 139.435 32.416 139.843 32.416ZM148.203 37.798C147.711 37.798 147.297 37.732 146.961 37.6L147.321 35.494C147.585 35.638 147.855 35.71 148.131 35.71C148.383 35.71 148.587 35.644 148.743 35.512C148.899 35.38 149.031 35.164 149.139 34.864L149.427 34.072L145.755 25.072H148.329L150.633 30.868L152.829 25.072H155.403L151.155 35.62C150.843 36.388 150.447 36.94 149.967 37.276C149.499 37.624 148.911 37.798 148.203 37.798ZM156.942 25.072H159.21V26.26C159.522 25.768 159.906 25.408 160.362 25.18C160.818 24.94 161.298 24.82 161.802 24.82C163.05 24.82 163.878 25.33 164.286 26.35C164.598 25.846 165.006 25.468 165.51 25.216C166.014 24.952 166.554 24.82 167.13 24.82C168.042 24.82 168.75 25.084 169.254 25.612C169.758 26.14 170.01 26.854 170.01 27.754V34H167.742V28.474C167.742 27.358 167.274 26.8 166.338 26.8C165.822 26.8 165.402 26.992 165.078 27.376C164.766 27.76 164.61 28.312 164.61 29.032V34H162.342V28.51C162.342 27.37 161.862 26.8 160.902 26.8C160.434 26.8 160.032 26.998 159.696 27.394C159.372 27.778 159.21 28.312 159.21 28.996V34H156.942V25.072ZM176.233 34.252C175.405 34.252 174.637 34.054 173.929 33.658C173.233 33.262 172.675 32.704 172.255 31.984C171.847 31.264 171.643 30.448 171.643 29.536C171.643 28.612 171.853 27.796 172.273 27.088C172.693 26.368 173.257 25.81 173.965 25.414C174.685 25.018 175.477 24.82 176.341 24.82C177.181 24.82 177.931 25.012 178.591 25.396C179.251 25.768 179.767 26.296 180.139 26.98C180.511 27.652 180.697 28.42 180.697 29.284V30.076H173.821C173.893 30.76 174.151 31.306 174.595 31.714C175.039 32.11 175.597 32.308 176.269 32.308C176.857 32.308 177.343 32.176 177.727 31.912C178.123 31.636 178.459 31.222 178.735 30.67L180.427 31.642C179.983 32.542 179.419 33.202 178.735 33.622C178.051 34.042 177.217 34.252 176.233 34.252ZM178.591 28.348C178.483 27.784 178.225 27.346 177.817 27.034C177.409 26.71 176.893 26.548 176.269 26.548C175.693 26.548 175.189 26.716 174.757 27.052C174.325 27.388 174.025 27.82 173.857 28.348H178.591ZM182.5 25.072H184.768V26.512C185.116 25.984 185.548 25.57 186.064 25.27C186.58 24.97 187.156 24.82 187.792 24.82C188.74 24.82 189.496 25.102 190.06 25.666C190.636 26.23 190.924 26.98 190.924 27.916V34H188.656V28.852C188.656 28.252 188.506 27.784 188.206 27.448C187.906 27.112 187.45 26.944 186.838 26.944C186.238 26.944 185.74 27.178 185.344 27.646C184.96 28.114 184.768 28.72 184.768 29.464V34H182.5V25.072ZM196.294 34.252C195.43 34.252 194.734 34.036 194.206 33.604C193.69 33.16 193.432 32.428 193.432 31.408V26.908H192.046V25.072H193.432V22.66H195.7V25.072H197.644V26.908H195.7V30.976C195.7 31.816 196.078 32.236 196.834 32.236C197.098 32.236 197.35 32.2 197.59 32.128L197.806 34C197.35 34.168 196.846 34.252 196.294 34.252ZM204.35 21.4H206.618V26.476C206.954 25.948 207.392 25.54 207.932 25.252C208.472 24.964 209.066 24.82 209.714 24.82C210.686 24.82 211.454 25.108 212.018 25.684C212.594 26.248 212.882 27.01 212.882 27.97V34H210.614V28.852C210.614 28.252 210.458 27.784 210.146 27.448C209.846 27.112 209.402 26.944 208.814 26.944C208.178 26.944 207.65 27.178 207.23 27.646C206.822 28.114 206.618 28.72 206.618 29.464V34H204.35V21.4ZM217.596 34.252C216.708 34.252 215.982 34 215.418 33.496C214.866 32.98 214.59 32.302 214.59 31.462C214.59 30.61 214.884 29.944 215.472 29.464C216.072 28.972 216.84 28.654 217.776 28.51L220.458 28.096V27.754C220.458 27.322 220.32 26.992 220.044 26.764C219.768 26.524 219.36 26.404 218.82 26.404C218.316 26.404 217.92 26.5 217.632 26.692C217.356 26.884 217.218 27.124 217.218 27.412C217.218 27.484 217.23 27.556 217.254 27.628L215.22 28.312C215.112 28.072 215.058 27.82 215.058 27.556C215.058 27.088 215.208 26.644 215.508 26.224C215.808 25.804 216.24 25.468 216.804 25.216C217.38 24.952 218.052 24.82 218.82 24.82C220.092 24.82 221.058 25.09 221.718 25.63C222.39 26.17 222.726 26.98 222.726 28.06V31.786C222.726 32.29 222.768 32.704 222.852 33.028C222.948 33.352 223.104 33.676 223.32 34H221.016C220.908 33.868 220.806 33.682 220.71 33.442C220.626 33.202 220.584 32.914 220.584 32.578C220.272 33.13 219.858 33.55 219.342 33.838C218.826 34.114 218.244 34.252 217.596 34.252ZM218.136 32.416C218.82 32.416 219.378 32.194 219.81 31.75C220.242 31.294 220.458 30.652 220.458 29.824V29.662L218.298 30.022C217.302 30.19 216.804 30.628 216.804 31.336C216.804 31.684 216.924 31.954 217.164 32.146C217.404 32.326 217.728 32.416 218.136 32.416ZM228.43 34.252C227.398 34.252 226.54 34 225.856 33.496C225.184 32.992 224.68 32.35 224.344 31.57L226.162 30.418C226.366 31.006 226.66 31.474 227.044 31.822C227.44 32.17 227.914 32.344 228.466 32.344C228.838 32.344 229.162 32.26 229.438 32.092C229.726 31.912 229.87 31.666 229.87 31.354C229.87 31.066 229.72 30.838 229.42 30.67C229.12 30.49 228.634 30.334 227.962 30.202C227.014 30.022 226.258 29.704 225.694 29.248C225.13 28.792 224.848 28.18 224.848 27.412C224.848 26.872 224.998 26.41 225.298 26.026C225.61 25.63 226.018 25.33 226.522 25.126C227.026 24.922 227.578 24.82 228.178 24.82C229.126 24.82 229.882 25 230.446 25.36C231.022 25.72 231.496 26.29 231.868 27.07L230.23 28.042C230.038 27.55 229.768 27.166 229.42 26.89C229.072 26.614 228.67 26.476 228.214 26.476C227.818 26.476 227.494 26.542 227.242 26.674C226.99 26.806 226.864 27.004 226.864 27.268C226.864 27.556 227.038 27.802 227.386 28.006C227.734 28.21 228.262 28.384 228.97 28.528C230.014 28.744 230.77 29.074 231.238 29.518C231.718 29.95 231.958 30.538 231.958 31.282C231.958 31.846 231.814 32.356 231.526 32.812C231.25 33.256 230.842 33.61 230.302 33.874C229.774 34.126 229.15 34.252 228.43 34.252ZM243.705 34.252C243.045 34.252 242.469 34.132 241.977 33.892C241.497 33.64 241.107 33.31 240.807 32.902V34H238.539V21.4H240.807V26.17C241.143 25.75 241.569 25.42 242.085 25.18C242.601 24.94 243.153 24.82 243.741 24.82C244.545 24.82 245.271 25.012 245.919 25.396C246.567 25.768 247.077 26.314 247.449 27.034C247.821 27.742 248.007 28.576 248.007 29.536C248.007 30.496 247.815 31.336 247.431 32.056C247.047 32.764 246.525 33.31 245.865 33.694C245.217 34.066 244.497 34.252 243.705 34.252ZM243.183 32.128C243.915 32.128 244.515 31.888 244.983 31.408C245.463 30.916 245.703 30.292 245.703 29.536C245.703 28.78 245.463 28.162 244.983 27.682C244.515 27.19 243.915 26.944 243.183 26.944C242.451 26.944 241.845 27.19 241.365 27.682C240.897 28.162 240.663 28.78 240.663 29.536C240.663 30.292 240.897 30.916 241.365 31.408C241.845 31.888 242.451 32.128 243.183 32.128ZM253.858 34.252C253.03 34.252 252.262 34.054 251.554 33.658C250.858 33.262 250.3 32.704 249.88 31.984C249.472 31.264 249.268 30.448 249.268 29.536C249.268 28.612 249.478 27.796 249.898 27.088C250.318 26.368 250.882 25.81 251.59 25.414C252.31 25.018 253.102 24.82 253.966 24.82C254.806 24.82 255.556 25.012 256.216 25.396C256.876 25.768 257.392 26.296 257.764 26.98C258.136 27.652 258.322 28.42 258.322 29.284V30.076H251.446C251.518 30.76 251.776 31.306 252.22 31.714C252.664 32.11 253.222 32.308 253.894 32.308C254.482 32.308 254.968 32.176 255.352 31.912C255.748 31.636 256.084 31.222 256.36 30.67L258.052 31.642C257.608 32.542 257.044 33.202 256.36 33.622C255.676 34.042 254.842 34.252 253.858 34.252ZM256.216 28.348C256.108 27.784 255.85 27.346 255.442 27.034C255.034 26.71 254.518 26.548 253.894 26.548C253.318 26.548 252.814 26.716 252.382 27.052C251.95 27.388 251.65 27.82 251.482 28.348H256.216ZM264.211 34.252C263.383 34.252 262.615 34.054 261.907 33.658C261.211 33.262 260.653 32.704 260.233 31.984C259.825 31.264 259.621 30.448 259.621 29.536C259.621 28.612 259.831 27.796 260.251 27.088C260.671 26.368 261.235 25.81 261.943 25.414C262.663 25.018 263.455 24.82 264.319 24.82C265.159 24.82 265.909 25.012 266.569 25.396C267.229 25.768 267.745 26.296 268.117 26.98C268.489 27.652 268.675 28.42 268.675 29.284V30.076H261.799C261.871 30.76 262.129 31.306 262.573 31.714C263.017 32.11 263.575 32.308 264.247 32.308C264.835 32.308 265.321 32.176 265.705 31.912C266.101 31.636 266.437 31.222 266.713 30.67L268.405 31.642C267.961 32.542 267.397 33.202 266.713 33.622C266.029 34.042 265.195 34.252 264.211 34.252ZM266.569 28.348C266.461 27.784 266.203 27.346 265.795 27.034C265.387 26.71 264.871 26.548 264.247 26.548C263.671 26.548 263.167 26.716 262.735 27.052C262.303 27.388 262.003 27.82 261.835 28.348H266.569ZM270.479 25.072H272.747V26.512C273.095 25.984 273.527 25.57 274.043 25.27C274.559 24.97 275.135 24.82 275.771 24.82C276.719 24.82 277.475 25.102 278.039 25.666C278.615 26.23 278.903 26.98 278.903 27.916V34H276.635V28.852C276.635 28.252 276.485 27.784 276.185 27.448C275.885 27.112 275.429 26.944 274.817 26.944C274.217 26.944 273.719 27.178 273.323 27.646C272.939 28.114 272.747 28.72 272.747 29.464V34H270.479V25.072ZM289.813 34.252C288.781 34.252 287.923 34 287.239 33.496C286.567 32.992 286.063 32.35 285.727 31.57L287.545 30.418C287.749 31.006 288.043 31.474 288.427 31.822C288.823 32.17 289.297 32.344 289.849 32.344C290.221 32.344 290.545 32.26 290.821 32.092C291.109 31.912 291.253 31.666 291.253 31.354C291.253 31.066 291.103 30.838 290.803 30.67C290.503 30.49 290.017 30.334 289.345 30.202C288.397 30.022 287.641 29.704 287.077 29.248C286.513 28.792 286.231 28.18 286.231 27.412C286.231 26.872 286.381 26.41 286.681 26.026C286.993 25.63 287.401 25.33 287.905 25.126C288.409 24.922 288.961 24.82 289.561 24.82C290.509 24.82 291.265 25 291.829 25.36C292.405 25.72 292.879 26.29 293.251 27.07L291.613 28.042C291.421 27.55 291.151 27.166 290.803 26.89C290.455 26.614 290.053 26.476 289.597 26.476C289.201 26.476 288.877 26.542 288.625 26.674C288.373 26.806 288.247 27.004 288.247 27.268C288.247 27.556 288.421 27.802 288.769 28.006C289.117 28.21 289.645 28.384 290.353 28.528C291.397 28.744 292.153 29.074 292.621 29.518C293.101 29.95 293.341 30.538 293.341 31.282C293.341 31.846 293.197 32.356 292.909 32.812C292.633 33.256 292.225 33.61 291.685 33.874C291.157 34.126 290.533 34.252 289.813 34.252ZM298.998 34.252C298.17 34.252 297.402 34.054 296.694 33.658C295.998 33.262 295.44 32.704 295.02 31.984C294.612 31.264 294.408 30.448 294.408 29.536C294.408 28.612 294.618 27.796 295.038 27.088C295.458 26.368 296.022 25.81 296.73 25.414C297.45 25.018 298.242 24.82 299.106 24.82C299.946 24.82 300.696 25.012 301.356 25.396C302.016 25.768 302.532 26.296 302.904 26.98C303.276 27.652 303.462 28.42 303.462 29.284V30.076H296.586C296.658 30.76 296.916 31.306 297.36 31.714C297.804 32.11 298.362 32.308 299.034 32.308C299.622 32.308 300.108 32.176 300.492 31.912C300.888 31.636 301.224 31.222 301.5 30.67L303.192 31.642C302.748 32.542 302.184 33.202 301.5 33.622C300.816 34.042 299.982 34.252 298.998 34.252ZM301.356 28.348C301.248 27.784 300.99 27.346 300.582 27.034C300.174 26.71 299.658 26.548 299.034 26.548C298.458 26.548 297.954 26.716 297.522 27.052C297.09 27.388 296.79 27.82 296.622 28.348H301.356ZM305.266 25.072H307.534V26.512C307.882 25.984 308.314 25.57 308.83 25.27C309.346 24.97 309.922 24.82 310.558 24.82C311.506 24.82 312.262 25.102 312.826 25.666C313.402 26.23 313.69 26.98 313.69 27.916V34H311.422V28.852C311.422 28.252 311.272 27.784 310.972 27.448C310.672 27.112 310.216 26.944 309.604 26.944C309.004 26.944 308.506 27.178 308.11 27.646C307.726 28.114 307.534 28.72 307.534 29.464V34H305.266V25.072ZM319.06 34.252C318.196 34.252 317.5 34.036 316.972 33.604C316.456 33.16 316.198 32.428 316.198 31.408V26.908H314.812V25.072H316.198V22.66H318.466V25.072H320.41V26.908H318.466V30.976C318.466 31.816 318.844 32.236 319.6 32.236C319.864 32.236 320.116 32.2 320.356 32.128L320.572 34C320.116 34.168 319.612 34.252 319.06 34.252Z" fill="black"/>
<path opacity="0.5" d="M349.088 24.408C348.789 24.696 348.459 24.8933 348.096 25C347.733 25.1067 347.28 25.16 346.736 25.16V23.208C347.365 23.208 347.872 23.096 348.256 22.872C348.651 22.6373 348.971 22.28 349.216 21.8H351.2V33H349.088V24.408ZM357.727 25.064H359.743V26.12C360.02 25.6827 360.361 25.3627 360.767 25.16C361.172 24.9467 361.599 24.84 362.047 24.84C363.156 24.84 363.892 25.2933 364.255 26.2C364.532 25.752 364.895 25.416 365.343 25.192C365.791 24.9573 366.271 24.84 366.783 24.84C367.593 24.84 368.223 25.0747 368.671 25.544C369.119 26.0133 369.343 26.648 369.343 27.448V33H367.327V28.088C367.327 27.096 366.911 26.6 366.079 26.6C365.62 26.6 365.247 26.7707 364.959 27.112C364.681 27.4533 364.543 27.944 364.543 28.584V33H362.527V28.12C362.527 27.1067 362.1 26.6 361.247 26.6C360.831 26.6 360.473 26.776 360.175 27.128C359.887 27.4693 359.743 27.944 359.743 28.552V33H357.727V25.064ZM371.352 25.064H373.368V33H371.352V25.064ZM371.256 21.8H373.464V23.912H371.256V21.8ZM375.383 25.064H377.399V26.344C377.708 25.8747 378.092 25.5067 378.551 25.24C379.01 24.9733 379.522 24.84 380.087 24.84C380.93 24.84 381.602 25.0907 382.103 25.592C382.615 26.0933 382.871 26.76 382.871 27.592V33H380.855V28.424C380.855 27.8907 380.722 27.4747 380.455 27.176C380.188 26.8773 379.783 26.728 379.239 26.728C378.706 26.728 378.263 26.936 377.911 27.352C377.57 27.768 377.399 28.3067 377.399 28.968V33H375.383V25.064ZM391.657 33.224C390.868 33.224 390.222 33 389.721 32.552C389.23 32.0933 388.985 31.4907 388.985 30.744C388.985 29.9867 389.246 29.3947 389.769 28.968C390.302 28.5307 390.985 28.248 391.817 28.12L394.201 27.752V27.448C394.201 27.064 394.078 26.7707 393.833 26.568C393.588 26.3547 393.225 26.248 392.745 26.248C392.297 26.248 391.945 26.3333 391.689 26.504C391.444 26.6747 391.321 26.888 391.321 27.144C391.321 27.208 391.332 27.272 391.353 27.336L389.545 27.944C389.449 27.7307 389.401 27.5067 389.401 27.272C389.401 26.856 389.534 26.4613 389.801 26.088C390.068 25.7147 390.452 25.416 390.953 25.192C391.465 24.9573 392.062 24.84 392.745 24.84C393.876 24.84 394.734 25.08 395.321 25.56C395.918 26.04 396.217 26.76 396.217 27.72V31.032C396.217 31.48 396.254 31.848 396.329 32.136C396.414 32.424 396.553 32.712 396.745 33H394.697C394.601 32.8827 394.51 32.7173 394.425 32.504C394.35 32.2907 394.313 32.0347 394.313 31.736C394.036 32.2267 393.668 32.6 393.209 32.856C392.75 33.1013 392.233 33.224 391.657 33.224ZM392.137 31.592C392.745 31.592 393.241 31.3947 393.625 31C394.009 30.5947 394.201 30.024 394.201 29.288V29.144L392.281 29.464C391.396 29.6133 390.953 30.0027 390.953 30.632C390.953 30.9413 391.06 31.1813 391.273 31.352C391.486 31.512 391.774 31.592 392.137 31.592ZM401.985 36.488C400.801 36.488 399.868 36.2427 399.185 35.752C398.513 35.272 398.177 34.6107 398.177 33.768C398.177 33.4267 398.252 33.1227 398.401 32.856L400.321 33.448C400.257 33.6293 400.225 33.8107 400.225 33.992C400.225 34.2587 400.38 34.472 400.689 34.632C400.998 34.8027 401.43 34.888 401.985 34.888C403.286 34.888 403.937 34.1627 403.937 32.712V31.688C403.724 32.04 403.425 32.328 403.041 32.552C402.668 32.7653 402.214 32.872 401.681 32.872C400.988 32.872 400.348 32.7013 399.761 32.36C399.174 32.0187 398.71 31.544 398.369 30.936C398.028 30.3173 397.857 29.624 397.857 28.856C397.857 28.088 398.033 27.4 398.385 26.792C398.737 26.1733 399.206 25.6933 399.793 25.352C400.38 25.0107 401.014 24.84 401.697 24.84C402.177 24.84 402.609 24.936 402.993 25.128C403.388 25.3093 403.702 25.576 403.937 25.928V25.064H405.953V32.456C405.953 33.768 405.596 34.7653 404.881 35.448C404.166 36.1413 403.201 36.488 401.985 36.488ZM401.905 31.112C402.502 31.112 403.009 30.9093 403.425 30.504C403.841 30.0987 404.049 29.5493 404.049 28.856C404.049 28.1627 403.841 27.6133 403.425 27.208C403.009 26.8027 402.502 26.6 401.905 26.6C401.318 26.6 400.822 26.8027 400.417 27.208C400.012 27.6027 399.809 28.152 399.809 28.856C399.809 29.56 400.012 30.1147 400.417 30.52C400.822 30.9147 401.318 31.112 401.905 31.112ZM411.74 33.224C410.993 33.224 410.284 33.064 409.612 32.744C408.95 32.424 408.417 31.9493 408.012 31.32C407.606 30.68 407.404 29.9173 407.404 29.032C407.404 28.1467 407.606 27.3893 408.012 26.76C408.417 26.12 408.95 25.64 409.612 25.32C410.284 25 410.993 24.84 411.74 24.84C412.486 24.84 413.19 25 413.852 25.32C414.524 25.64 415.062 26.12 415.468 26.76C415.873 27.3893 416.076 28.1467 416.076 29.032C416.076 29.9173 415.873 30.68 415.468 31.32C415.062 31.9493 414.524 32.424 413.852 32.744C413.19 33.064 412.486 33.224 411.74 33.224ZM411.74 31.336C412.145 31.336 412.518 31.2453 412.86 31.064C413.212 30.872 413.494 30.6053 413.708 30.264C413.921 29.912 414.028 29.5013 414.028 29.032C414.028 28.5627 413.921 28.1573 413.708 27.816C413.494 27.464 413.212 27.1973 412.86 27.016C412.518 26.824 412.145 26.728 411.74 26.728C411.334 26.728 410.956 26.824 410.604 27.016C410.262 27.1973 409.985 27.464 409.772 27.816C409.558 28.1573 409.452 28.5627 409.452 29.032C409.452 29.5013 409.558 29.912 409.772 30.264C409.985 30.6053 410.262 30.872 410.604 31.064C410.956 31.2453 411.334 31.336 411.74 31.336Z" fill="black"/>
<path opacity="0.8" d="M94.0429 60.224C92.9869 60.224 92.0323 59.9787 91.1789 59.488C90.3256 58.9867 89.6589 58.2933 89.1789 57.408C88.6989 56.5227 88.4589 55.52 88.4589 54.4C88.4589 53.2907 88.7096 52.2933 89.2109 51.408C89.7229 50.5227 90.4109 49.8293 91.2749 49.328C92.1389 48.8267 93.0883 48.576 94.1229 48.576C95.2323 48.576 96.2083 48.8427 97.0509 49.376C97.9043 49.8987 98.5283 50.5973 98.9229 51.472L97.5469 52.464C97.1523 51.6747 96.6723 51.0933 96.1069 50.72C95.5416 50.3467 94.8643 50.16 94.0749 50.16C93.3709 50.16 92.7256 50.3413 92.1389 50.704C91.5523 51.056 91.0829 51.5573 90.7309 52.208C90.3896 52.848 90.2189 53.5787 90.2189 54.4C90.2189 55.2107 90.3843 55.9413 90.7149 56.592C91.0563 57.232 91.5203 57.7333 92.1069 58.096C92.6936 58.4587 93.3496 58.64 94.0749 58.64C95.6323 58.64 96.8163 57.8667 97.6269 56.32L98.9709 57.264C98.3203 58.288 97.6216 59.04 96.8749 59.52C96.1389 59.9893 95.1949 60.224 94.0429 60.224ZM104.242 60.224C103.495 60.224 102.796 60.064 102.146 59.744C101.495 59.4133 100.972 58.9333 100.578 58.304C100.183 57.664 99.9857 56.9067 99.9857 56.032C99.9857 55.1573 100.183 54.4053 100.578 53.776C100.972 53.136 101.495 52.656 102.146 52.336C102.796 52.0053 103.495 51.84 104.242 51.84C104.978 51.84 105.671 52.0053 106.322 52.336C106.972 52.656 107.495 53.136 107.89 53.776C108.284 54.4053 108.482 55.1573 108.482 56.032C108.482 56.9067 108.284 57.664 107.89 58.304C107.495 58.9333 106.972 59.4133 106.322 59.744C105.671 60.064 104.978 60.224 104.242 60.224ZM104.242 58.704C104.7 58.704 105.127 58.5973 105.522 58.384C105.916 58.16 106.226 57.8453 106.45 57.44C106.684 57.0347 106.802 56.5653 106.802 56.032C106.802 55.4987 106.684 55.0293 106.45 54.624C106.226 54.2187 105.916 53.9093 105.522 53.696C105.127 53.472 104.7 53.36 104.242 53.36C103.772 53.36 103.34 53.472 102.946 53.696C102.562 53.9093 102.252 54.2187 102.018 54.624C101.783 55.0293 101.666 55.4987 101.666 56.032C101.666 56.5653 101.783 57.0347 102.018 57.44C102.252 57.8453 102.562 58.16 102.946 58.384C103.34 58.5973 103.772 58.704 104.242 58.704ZM110.153 52.064H111.817V53.408C112.105 52.9173 112.489 52.5333 112.969 52.256C113.449 51.9787 113.972 51.84 114.537 51.84C115.359 51.84 116.025 52.0853 116.537 52.576C117.06 53.056 117.321 53.728 117.321 54.592V60H115.657V55.184C115.657 54.608 115.503 54.16 115.193 53.84C114.895 53.52 114.463 53.36 113.897 53.36C113.513 53.36 113.161 53.4667 112.841 53.68C112.532 53.8933 112.281 54.1867 112.089 54.56C111.908 54.9227 111.817 55.3387 111.817 55.808V60H110.153V52.064ZM122.83 63.488C121.678 63.488 120.777 63.2587 120.126 62.8C119.486 62.3413 119.166 61.7227 119.166 60.944C119.166 60.624 119.241 60.3307 119.39 60.064L120.958 60.544C120.884 60.736 120.846 60.9227 120.846 61.104C120.846 61.424 121.022 61.68 121.374 61.872C121.726 62.064 122.212 62.16 122.83 62.16C124.302 62.16 125.038 61.3173 125.038 59.632V58.544C124.793 58.9493 124.462 59.2747 124.046 59.52C123.641 59.7547 123.15 59.872 122.574 59.872C121.881 59.872 121.246 59.7067 120.67 59.376C120.094 59.0347 119.636 58.56 119.294 57.952C118.964 57.344 118.798 56.6453 118.798 55.856C118.798 55.0667 118.969 54.368 119.31 53.76C119.662 53.1413 120.126 52.6667 120.702 52.336C121.289 52.0053 121.918 51.84 122.59 51.84C123.134 51.84 123.614 51.952 124.03 52.176C124.457 52.3893 124.793 52.688 125.038 53.072V52.064H126.686V59.472C126.686 60.7627 126.345 61.7547 125.662 62.448C124.98 63.1413 124.036 63.488 122.83 63.488ZM122.766 58.432C123.449 58.432 124.014 58.2027 124.462 57.744C124.921 57.2747 125.15 56.6453 125.15 55.856C125.15 55.0667 124.921 54.4427 124.462 53.984C124.014 53.5147 123.449 53.28 122.766 53.28C122.084 53.28 121.524 53.5147 121.086 53.984C120.649 54.4427 120.43 55.0667 120.43 55.856C120.43 56.6453 120.649 57.2747 121.086 57.744C121.524 58.2027 122.084 58.432 122.766 58.432ZM128.716 52.064H130.38V53.408C130.593 52.928 130.892 52.5493 131.276 52.272C131.67 51.984 132.113 51.84 132.604 51.84C132.838 51.84 133.068 51.872 133.292 51.936L133.02 53.472C132.817 53.3973 132.604 53.36 132.38 53.36C131.793 53.36 131.313 53.6107 130.94 54.112C130.566 54.6027 130.38 55.2107 130.38 55.936V60H128.716V52.064ZM136.551 60.224C135.762 60.224 135.122 60 134.631 59.552C134.141 59.0933 133.895 58.496 133.895 57.76C133.895 57.0133 134.151 56.4267 134.663 56C135.186 55.5733 135.853 55.296 136.663 55.168L139.191 54.768V54.448C139.191 53.9893 139.047 53.6427 138.759 53.408C138.482 53.1733 138.077 53.056 137.543 53.056C137.021 53.056 136.61 53.1627 136.311 53.376C136.023 53.5787 135.879 53.8347 135.879 54.144C135.879 54.2187 135.89 54.288 135.911 54.352L134.455 54.848C134.37 54.6453 134.327 54.4267 134.327 54.192C134.327 53.776 134.455 53.392 134.711 53.04C134.978 52.6773 135.357 52.3893 135.847 52.176C136.338 51.952 136.903 51.84 137.543 51.84C138.61 51.84 139.426 52.0747 139.991 52.544C140.567 53.0133 140.855 53.696 140.855 54.592V58.032C140.855 58.48 140.893 58.848 140.967 59.136C141.042 59.4133 141.175 59.7013 141.367 60H139.687C139.399 59.6267 139.255 59.1573 139.255 58.592C139.01 59.104 138.642 59.504 138.151 59.792C137.671 60.08 137.138 60.224 136.551 60.224ZM136.903 58.848C137.586 58.848 138.135 58.6027 138.551 58.112C138.978 57.6107 139.191 56.9707 139.191 56.192V55.968L137.031 56.336C136.541 56.4213 136.162 56.576 135.895 56.8C135.639 57.024 135.511 57.3173 135.511 57.68C135.511 58.0427 135.634 58.3307 135.879 58.544C136.135 58.7467 136.477 58.848 136.903 58.848ZM145.675 60.224C144.982 60.224 144.422 60.0373 143.995 59.664C143.569 59.28 143.355 58.6667 143.355 57.824V53.392H142.075V52.064H143.355V49.92H145.003V52.064H146.811V53.392H145.003V57.584C145.003 58.3733 145.355 58.768 146.059 58.768C146.273 58.768 146.486 58.736 146.699 58.672L146.859 60.032C146.497 60.16 146.102 60.224 145.675 60.224ZM151.19 60.224C150.337 60.224 149.638 59.9627 149.094 59.44C148.55 58.9067 148.278 58.1333 148.278 57.12V52.064H149.942V56.8C149.942 57.4187 150.092 57.8933 150.39 58.224C150.7 58.544 151.137 58.704 151.702 58.704C152.3 58.704 152.796 58.4747 153.19 58.016C153.585 57.5467 153.782 56.9493 153.782 56.224V52.064H155.43V60H153.782V58.688C153.526 59.168 153.169 59.5467 152.71 59.824C152.252 60.0907 151.745 60.224 151.19 60.224ZM157.575 48.8H159.239V60H157.575V48.8ZM163.567 60.224C162.778 60.224 162.138 60 161.647 59.552C161.156 59.0933 160.911 58.496 160.911 57.76C160.911 57.0133 161.167 56.4267 161.679 56C162.202 55.5733 162.868 55.296 163.679 55.168L166.207 54.768V54.448C166.207 53.9893 166.063 53.6427 165.775 53.408C165.498 53.1733 165.092 53.056 164.559 53.056C164.036 53.056 163.626 53.1627 163.327 53.376C163.039 53.5787 162.895 53.8347 162.895 54.144C162.895 54.2187 162.906 54.288 162.927 54.352L161.471 54.848C161.386 54.6453 161.343 54.4267 161.343 54.192C161.343 53.776 161.471 53.392 161.727 53.04C161.994 52.6773 162.372 52.3893 162.863 52.176C163.354 51.952 163.919 51.84 164.559 51.84C165.626 51.84 166.442 52.0747 167.007 52.544C167.583 53.0133 167.871 53.696 167.871 54.592V58.032C167.871 58.48 167.908 58.848 167.983 59.136C168.058 59.4133 168.191 59.7013 168.383 60H166.703C166.415 59.6267 166.271 59.1573 166.271 58.592C166.026 59.104 165.658 59.504 165.167 59.792C164.687 60.08 164.154 60.224 163.567 60.224ZM163.919 58.848C164.602 58.848 165.151 58.6027 165.567 58.112C165.994 57.6107 166.207 56.9707 166.207 56.192V55.968L164.047 56.336C163.556 56.4213 163.178 56.576 162.911 56.8C162.655 57.024 162.527 57.3173 162.527 57.68C162.527 58.0427 162.65 58.3307 162.895 58.544C163.151 58.7467 163.492 58.848 163.919 58.848ZM172.691 60.224C171.998 60.224 171.438 60.0373 171.011 59.664C170.584 59.28 170.371 58.6667 170.371 57.824V53.392H169.091V52.064H170.371V49.92H172.019V52.064H173.827V53.392H172.019V57.584C172.019 58.3733 172.371 58.768 173.075 58.768C173.288 58.768 173.502 58.736 173.715 58.672L173.875 60.032C173.512 60.16 173.118 60.224 172.691 60.224ZM175.45 52.064H177.114V60H175.45V52.064ZM175.354 48.96H177.226V50.8H175.354V48.96ZM183.007 60.224C182.261 60.224 181.562 60.064 180.911 59.744C180.261 59.4133 179.738 58.9333 179.343 58.304C178.949 57.664 178.751 56.9067 178.751 56.032C178.751 55.1573 178.949 54.4053 179.343 53.776C179.738 53.136 180.261 52.656 180.911 52.336C181.562 52.0053 182.261 51.84 183.007 51.84C183.743 51.84 184.437 52.0053 185.087 52.336C185.738 52.656 186.261 53.136 186.655 53.776C187.05 54.4053 187.247 55.1573 187.247 56.032C187.247 56.9067 187.05 57.664 186.655 58.304C186.261 58.9333 185.738 59.4133 185.087 59.744C184.437 60.064 183.743 60.224 183.007 60.224ZM183.007 58.704C183.466 58.704 183.893 58.5973 184.287 58.384C184.682 58.16 184.991 57.8453 185.215 57.44C185.45 57.0347 185.567 56.5653 185.567 56.032C185.567 55.4987 185.45 55.0293 185.215 54.624C184.991 54.2187 184.682 53.9093 184.287 53.696C183.893 53.472 183.466 53.36 183.007 53.36C182.538 53.36 182.106 53.472 181.711 53.696C181.327 53.9093 181.018 54.2187 180.783 54.624C180.549 55.0293 180.431 55.4987 180.431 56.032C180.431 56.5653 180.549 57.0347 180.783 57.44C181.018 57.8453 181.327 58.16 181.711 58.384C182.106 58.5973 182.538 58.704 183.007 58.704ZM188.919 52.064H190.583V53.408C190.871 52.9173 191.255 52.5333 191.735 52.256C192.215 51.9787 192.737 51.84 193.303 51.84C194.124 51.84 194.791 52.0853 195.303 52.576C195.825 53.056 196.087 53.728 196.087 54.592V60H194.423V55.184C194.423 54.608 194.268 54.16 193.959 53.84C193.66 53.52 193.228 53.36 192.663 53.36C192.279 53.36 191.927 53.4667 191.607 53.68C191.297 53.8933 191.047 54.1867 190.855 54.56C190.673 54.9227 190.583 55.3387 190.583 55.808V60H188.919V52.064ZM200.976 60.224C200.091 60.224 199.355 60.0053 198.768 59.568C198.192 59.1307 197.76 58.5653 197.472 57.872L198.816 57.04C198.998 57.5947 199.275 58.032 199.648 58.352C200.022 58.672 200.475 58.832 201.008 58.832C201.435 58.832 201.787 58.7307 202.064 58.528C202.352 58.3147 202.496 58.0373 202.496 57.696C202.496 57.376 202.347 57.1253 202.048 56.944C201.76 56.752 201.291 56.5973 200.64 56.48C199.819 56.32 199.158 56.0427 198.656 55.648C198.166 55.2533 197.92 54.72 197.92 54.048C197.92 53.3653 198.192 52.8267 198.736 52.432C199.291 52.0373 199.968 51.84 200.768 51.84C201.59 51.84 202.251 52.0053 202.752 52.336C203.254 52.656 203.654 53.1467 203.952 53.808L202.736 54.528C202.555 54.0693 202.294 53.7173 201.952 53.472C201.622 53.216 201.238 53.088 200.8 53.088C200.395 53.088 200.059 53.168 199.792 53.328C199.526 53.4773 199.392 53.696 199.392 53.984C199.392 54.2933 199.558 54.5493 199.888 54.752C200.23 54.9547 200.731 55.12 201.392 55.248C202.288 55.4293 202.95 55.712 203.376 56.096C203.814 56.4693 204.032 56.9867 204.032 57.648C204.032 58.1173 203.91 58.5493 203.664 58.944C203.43 59.3387 203.078 59.6533 202.608 59.888C202.15 60.112 201.606 60.224 200.976 60.224ZM205.862 52.528V48.8H207.59V52.528L207.35 56.864H206.086L205.862 52.528ZM205.798 58.08H207.638V60H205.798V58.08ZM217.06 55.52L213.38 48.8H215.268L217.572 53.152C217.71 53.4293 217.828 53.6907 217.924 53.936C218.02 53.6907 218.137 53.4293 218.276 53.152L220.58 48.8H222.468L218.788 55.52V60H217.06V55.52ZM225.789 60.224C225.042 60.224 224.343 60.064 223.693 59.744C223.042 59.4133 222.519 58.9333 222.125 58.304C221.73 57.664 221.533 56.9067 221.533 56.032C221.533 55.1573 221.73 54.4053 222.125 53.776C222.519 53.136 223.042 52.656 223.693 52.336C224.343 52.0053 225.042 51.84 225.789 51.84C226.525 51.84 227.218 52.0053 227.869 52.336C228.519 52.656 229.042 53.136 229.437 53.776C229.831 54.4053 230.029 55.1573 230.029 56.032C230.029 56.9067 229.831 57.664 229.437 58.304C229.042 58.9333 228.519 59.4133 227.869 59.744C227.218 60.064 226.525 60.224 225.789 60.224ZM225.789 58.704C226.247 58.704 226.674 58.5973 227.069 58.384C227.463 58.16 227.773 57.8453 227.997 57.44C228.231 57.0347 228.349 56.5653 228.349 56.032C228.349 55.4987 228.231 55.0293 227.997 54.624C227.773 54.2187 227.463 53.9093 227.069 53.696C226.674 53.472 226.247 53.36 225.789 53.36C225.319 53.36 224.887 53.472 224.493 53.696C224.109 53.9093 223.799 54.2187 223.565 54.624C223.33 55.0293 223.213 55.4987 223.213 56.032C223.213 56.5653 223.33 57.0347 223.565 57.44C223.799 57.8453 224.109 58.16 224.493 58.384C224.887 58.5973 225.319 58.704 225.789 58.704ZM234.55 60.224C233.696 60.224 232.998 59.9627 232.454 59.44C231.91 58.9067 231.638 58.1333 231.638 57.12V52.064H233.302V56.8C233.302 57.4187 233.451 57.8933 233.75 58.224C234.059 58.544 234.496 58.704 235.062 58.704C235.659 58.704 236.155 58.4747 236.55 58.016C236.944 57.5467 237.142 56.9493 237.142 56.224V52.064H238.79V60H237.142V58.688C236.886 59.168 236.528 59.5467 236.07 59.824C235.611 60.0907 235.104 60.224 234.55 60.224ZM245.356 48.8H247.02V53.408C247.308 52.9173 247.698 52.5333 248.188 52.256C248.679 51.9787 249.223 51.84 249.82 51.84C250.684 51.84 251.367 52.0907 251.868 52.592C252.37 53.0933 252.62 53.7707 252.62 54.624V60H250.972V55.184C250.972 54.608 250.818 54.16 250.508 53.84C250.199 53.52 249.762 53.36 249.196 53.36C248.802 53.36 248.439 53.4667 248.108 53.68C247.778 53.8933 247.511 54.192 247.308 54.576C247.116 54.9493 247.02 55.3707 247.02 55.84V60H245.356V48.8ZM256.911 60.224C256.121 60.224 255.481 60 254.991 59.552C254.5 59.0933 254.255 58.496 254.255 57.76C254.255 57.0133 254.511 56.4267 255.023 56C255.545 55.5733 256.212 55.296 257.023 55.168L259.551 54.768V54.448C259.551 53.9893 259.407 53.6427 259.119 53.408C258.841 53.1733 258.436 53.056 257.903 53.056C257.38 53.056 256.969 53.1627 256.671 53.376C256.383 53.5787 256.239 53.8347 256.239 54.144C256.239 54.2187 256.249 54.288 256.271 54.352L254.815 54.848C254.729 54.6453 254.687 54.4267 254.687 54.192C254.687 53.776 254.815 53.392 255.071 53.04C255.337 52.6773 255.716 52.3893 256.207 52.176C256.697 51.952 257.263 51.84 257.903 51.84C258.969 51.84 259.785 52.0747 260.351 52.544C260.927 53.0133 261.215 53.696 261.215 54.592V58.032C261.215 58.48 261.252 58.848 261.327 59.136C261.401 59.4133 261.535 59.7013 261.727 60H260.047C259.759 59.6267 259.615 59.1573 259.615 58.592C259.369 59.104 259.001 59.504 258.511 59.792C258.031 60.08 257.497 60.224 256.911 60.224ZM257.263 58.848C257.945 58.848 258.495 58.6027 258.911 58.112C259.337 57.6107 259.551 56.9707 259.551 56.192V55.968L257.391 56.336C256.9 56.4213 256.521 56.576 256.255 56.8C255.999 57.024 255.871 57.3173 255.871 57.68C255.871 58.0427 255.993 58.3307 256.239 58.544C256.495 58.7467 256.836 58.848 257.263 58.848ZM262.303 52.064H264.079L266.303 57.952L268.527 52.064H270.303L267.103 60H265.503L262.303 52.064ZM274.752 60.224C274.026 60.224 273.354 60.048 272.736 59.696C272.128 59.344 271.642 58.848 271.28 58.208C270.917 57.568 270.736 56.8427 270.736 56.032C270.736 55.2213 270.917 54.5013 271.28 53.872C271.642 53.232 272.133 52.736 272.752 52.384C273.381 52.0213 274.074 51.84 274.832 51.84C275.589 51.84 276.256 52.0107 276.832 52.352C277.418 52.6827 277.872 53.152 278.192 53.76C278.512 54.3573 278.672 55.04 278.672 55.808V56.384H272.336C272.389 57.0987 272.64 57.68 273.088 58.128C273.536 58.576 274.101 58.8 274.784 58.8C275.37 58.8 275.856 58.6667 276.24 58.4C276.624 58.1227 276.949 57.7227 277.216 57.2L278.432 57.904C278.048 58.6827 277.557 59.264 276.96 59.648C276.362 60.032 275.626 60.224 274.752 60.224ZM277.088 55.088C277.024 54.48 276.778 54.0053 276.352 53.664C275.925 53.312 275.402 53.136 274.784 53.136C274.186 53.136 273.669 53.3227 273.232 53.696C272.794 54.0587 272.506 54.5227 272.368 55.088H277.088ZM288.33 60.224C287.604 60.224 286.932 60.048 286.314 59.696C285.706 59.344 285.22 58.848 284.858 58.208C284.495 57.568 284.314 56.8427 284.314 56.032C284.314 55.2213 284.495 54.5013 284.858 53.872C285.22 53.232 285.711 52.736 286.33 52.384C286.959 52.0213 287.652 51.84 288.41 51.84C289.167 51.84 289.834 52.0107 290.41 52.352C290.996 52.6827 291.45 53.152 291.77 53.76C292.09 54.3573 292.25 55.04 292.25 55.808V56.384H285.914C285.967 57.0987 286.218 57.68 286.666 58.128C287.114 58.576 287.679 58.8 288.362 58.8C288.948 58.8 289.434 58.6667 289.818 58.4C290.202 58.1227 290.527 57.7227 290.794 57.2L292.01 57.904C291.626 58.6827 291.135 59.264 290.538 59.648C289.94 60.032 289.204 60.224 288.33 60.224ZM290.666 55.088C290.602 54.48 290.356 54.0053 289.93 53.664C289.503 53.312 288.98 53.136 288.362 53.136C287.764 53.136 287.247 53.3227 286.81 53.696C286.372 54.0587 286.084 54.5227 285.946 55.088H290.666ZM296.239 60.224C295.449 60.224 294.809 60 294.319 59.552C293.828 59.0933 293.583 58.496 293.583 57.76C293.583 57.0133 293.839 56.4267 294.351 56C294.873 55.5733 295.54 55.296 296.351 55.168L298.879 54.768V54.448C298.879 53.9893 298.735 53.6427 298.447 53.408C298.169 53.1733 297.764 53.056 297.231 53.056C296.708 53.056 296.297 53.1627 295.999 53.376C295.711 53.5787 295.567 53.8347 295.567 54.144C295.567 54.2187 295.577 54.288 295.599 54.352L294.143 54.848C294.057 54.6453 294.015 54.4267 294.015 54.192C294.015 53.776 294.143 53.392 294.399 53.04C294.665 52.6773 295.044 52.3893 295.535 52.176C296.025 51.952 296.591 51.84 297.231 51.84C298.297 51.84 299.113 52.0747 299.679 52.544C300.255 53.0133 300.543 53.696 300.543 54.592V58.032C300.543 58.48 300.58 58.848 300.655 59.136C300.729 59.4133 300.863 59.7013 301.055 60H299.375C299.087 59.6267 298.943 59.1573 298.943 58.592C298.697 59.104 298.329 59.504 297.839 59.792C297.359 60.08 296.825 60.224 296.239 60.224ZM296.591 58.848C297.273 58.848 297.823 58.6027 298.239 58.112C298.665 57.6107 298.879 56.9707 298.879 56.192V55.968L296.719 56.336C296.228 56.4213 295.849 56.576 295.583 56.8C295.327 57.024 295.199 57.3173 295.199 57.68C295.199 58.0427 295.321 58.3307 295.567 58.544C295.823 58.7467 296.164 58.848 296.591 58.848ZM302.606 52.064H304.27V53.408C304.484 52.928 304.782 52.5493 305.166 52.272C305.561 51.984 306.004 51.84 306.494 51.84C306.729 51.84 306.958 51.872 307.182 51.936L306.91 53.472C306.708 53.3973 306.494 53.36 306.27 53.36C305.684 53.36 305.204 53.6107 304.83 54.112C304.457 54.6027 304.27 55.2107 304.27 55.936V60H302.606V52.064ZM308.481 52.064H310.145V53.408C310.433 52.9173 310.817 52.5333 311.297 52.256C311.777 51.9787 312.3 51.84 312.865 51.84C313.687 51.84 314.353 52.0853 314.865 52.576C315.388 53.056 315.649 53.728 315.649 54.592V60H313.985V55.184C313.985 54.608 313.831 54.16 313.521 53.84C313.223 53.52 312.791 53.36 312.225 53.36C311.841 53.36 311.489 53.4667 311.169 53.68C310.86 53.8933 310.609 54.1867 310.417 54.56C310.236 54.9227 310.145 55.3387 310.145 55.808V60H308.481V52.064ZM321.22 60.224C320.495 60.224 319.823 60.048 319.204 59.696C318.596 59.344 318.111 58.848 317.748 58.208C317.386 57.568 317.204 56.8427 317.204 56.032C317.204 55.2213 317.386 54.5013 317.748 53.872C318.111 53.232 318.602 52.736 319.22 52.384C319.85 52.0213 320.543 51.84 321.3 51.84C322.058 51.84 322.724 52.0107 323.3 52.352C323.887 52.6827 324.34 53.152 324.66 53.76C324.98 54.3573 325.14 55.04 325.14 55.808V56.384H318.804C318.858 57.0987 319.108 57.68 319.556 58.128C320.004 58.576 320.57 58.8 321.252 58.8C321.839 58.8 322.324 58.6667 322.708 58.4C323.092 58.1227 323.418 57.7227 323.684 57.2L324.9 57.904C324.516 58.6827 324.026 59.264 323.428 59.648C322.831 60.032 322.095 60.224 321.22 60.224ZM323.556 55.088C323.492 54.48 323.247 54.0053 322.82 53.664C322.394 53.312 321.871 53.136 321.252 53.136C320.655 53.136 320.138 53.3227 319.7 53.696C319.263 54.0587 318.975 54.5227 318.836 55.088H323.556ZM330.217 60.224C329.492 60.224 328.836 60.0533 328.249 59.712C327.662 59.36 327.198 58.8693 326.857 58.24C326.516 57.6 326.345 56.864 326.345 56.032C326.345 55.2107 326.521 54.4853 326.873 53.856C327.236 53.216 327.71 52.72 328.297 52.368C328.894 52.016 329.529 51.84 330.201 51.84C330.798 51.84 331.326 51.9627 331.785 52.208C332.244 52.4533 332.596 52.7893 332.841 53.216V48.8H334.505V60H332.841V58.736C332.606 59.1733 332.26 59.5307 331.801 59.808C331.342 60.0853 330.814 60.224 330.217 60.224ZM330.505 58.704C330.974 58.704 331.396 58.592 331.769 58.368C332.142 58.1333 332.436 57.8133 332.649 57.408C332.862 57.0027 332.969 56.544 332.969 56.032C332.969 55.52 332.862 55.0613 332.649 54.656C332.436 54.2507 332.142 53.936 331.769 53.712C331.396 53.4773 330.974 53.36 330.505 53.36C329.78 53.36 329.188 53.6107 328.729 54.112C328.27 54.6133 328.041 55.2533 328.041 56.032C328.041 56.8107 328.27 57.4507 328.729 57.952C329.188 58.4533 329.78 58.704 330.505 58.704ZM91.0669 83.224C90.2776 83.224 89.6376 83 89.1469 82.552C88.6563 82.0933 88.4109 81.496 88.4109 80.76C88.4109 80.0133 88.6669 79.4267 89.1789 79C89.7016 78.5733 90.3683 78.296 91.1789 78.168L93.7069 77.768V77.448C93.7069 76.9893 93.5629 76.6427 93.2749 76.408C92.9976 76.1733 92.5923 76.056 92.0589 76.056C91.5363 76.056 91.1256 76.1627 90.8269 76.376C90.5389 76.5787 90.3949 76.8347 90.3949 77.144C90.3949 77.2187 90.4056 77.288 90.4269 77.352L88.9709 77.848C88.8856 77.6453 88.8429 77.4267 88.8429 77.192C88.8429 76.776 88.9709 76.392 89.2269 76.04C89.4936 75.6773 89.8723 75.3893 90.3629 75.176C90.8536 74.952 91.4189 74.84 92.0589 74.84C93.1256 74.84 93.9416 75.0747 94.5069 75.544C95.0829 76.0133 95.3709 76.696 95.3709 77.592V81.032C95.3709 81.48 95.4083 81.848 95.4829 82.136C95.5576 82.4133 95.6909 82.7013 95.8829 83H94.2029C93.9149 82.6267 93.7709 82.1573 93.7709 81.592C93.5256 82.104 93.1576 82.504 92.6669 82.792C92.1869 83.08 91.6536 83.224 91.0669 83.224ZM91.4189 81.848C92.1016 81.848 92.6509 81.6027 93.0669 81.112C93.4936 80.6107 93.7069 79.9707 93.7069 79.192V78.968L91.5469 79.336C91.0563 79.4213 90.6776 79.576 90.4109 79.8C90.1549 80.024 90.0269 80.3173 90.0269 80.68C90.0269 81.0427 90.1496 81.3307 90.3949 81.544C90.6509 81.7467 90.9923 81.848 91.4189 81.848ZM104.972 83.224C104.279 83.224 103.719 83.0373 103.292 82.664C102.866 82.28 102.652 81.6667 102.652 80.824V76.392H101.372V75.064H102.652V72.92H104.3V75.064H106.108V76.392H104.3V80.584C104.3 81.3733 104.652 81.768 105.356 81.768C105.57 81.768 105.783 81.736 105.996 81.672L106.156 83.032C105.794 83.16 105.399 83.224 104.972 83.224ZM111.257 83.224C110.511 83.224 109.812 83.064 109.161 82.744C108.511 82.4133 107.988 81.9333 107.593 81.304C107.199 80.664 107.001 79.9067 107.001 79.032C107.001 78.1573 107.199 77.4053 107.593 76.776C107.988 76.136 108.511 75.656 109.161 75.336C109.812 75.0053 110.511 74.84 111.257 74.84C111.993 74.84 112.687 75.0053 113.337 75.336C113.988 75.656 114.511 76.136 114.905 76.776C115.3 77.4053 115.497 78.1573 115.497 79.032C115.497 79.9067 115.3 80.664 114.905 81.304C114.511 81.9333 113.988 82.4133 113.337 82.744C112.687 83.064 111.993 83.224 111.257 83.224ZM111.257 81.704C111.716 81.704 112.143 81.5973 112.537 81.384C112.932 81.16 113.241 80.8453 113.465 80.44C113.7 80.0347 113.817 79.5653 113.817 79.032C113.817 78.4987 113.7 78.0293 113.465 77.624C113.241 77.2187 112.932 76.9093 112.537 76.696C112.143 76.472 111.716 76.36 111.257 76.36C110.788 76.36 110.356 76.472 109.961 76.696C109.577 76.9093 109.268 77.2187 109.033 77.624C108.799 78.0293 108.681 78.4987 108.681 79.032C108.681 79.5653 108.799 80.0347 109.033 80.44C109.268 80.8453 109.577 81.16 109.961 81.384C110.356 81.5973 110.788 81.704 111.257 81.704ZM119.832 83.224C119.138 83.224 118.578 83.0373 118.152 82.664C117.725 82.28 117.512 81.6667 117.512 80.824V76.392H116.232V75.064H117.512V72.92H119.16V75.064H120.968V76.392H119.16V80.584C119.16 81.3733 119.512 81.768 120.216 81.768C120.429 81.768 120.642 81.736 120.856 81.672L121.016 83.032C120.653 83.16 120.258 83.224 119.832 83.224ZM124.801 83.224C124.012 83.224 123.372 83 122.881 82.552C122.391 82.0933 122.145 81.496 122.145 80.76C122.145 80.0133 122.401 79.4267 122.913 79C123.436 78.5733 124.103 78.296 124.913 78.168L127.441 77.768V77.448C127.441 76.9893 127.297 76.6427 127.009 76.408C126.732 76.1733 126.327 76.056 125.793 76.056C125.271 76.056 124.86 76.1627 124.561 76.376C124.273 76.5787 124.129 76.8347 124.129 77.144C124.129 77.2187 124.14 77.288 124.161 77.352L122.705 77.848C122.62 77.6453 122.577 77.4267 122.577 77.192C122.577 76.776 122.705 76.392 122.961 76.04C123.228 75.6773 123.607 75.3893 124.097 75.176C124.588 74.952 125.153 74.84 125.793 74.84C126.86 74.84 127.676 75.0747 128.241 75.544C128.817 76.0133 129.105 76.696 129.105 77.592V81.032C129.105 81.48 129.143 81.848 129.217 82.136C129.292 82.4133 129.425 82.7013 129.617 83H127.937C127.649 82.6267 127.505 82.1573 127.505 81.592C127.26 82.104 126.892 82.504 126.401 82.792C125.921 83.08 125.388 83.224 124.801 83.224ZM125.153 81.848C125.836 81.848 126.385 81.6027 126.801 81.112C127.228 80.6107 127.441 79.9707 127.441 79.192V78.968L125.281 79.336C124.791 79.4213 124.412 79.576 124.145 79.8C123.889 80.024 123.761 80.3173 123.761 80.68C123.761 81.0427 123.884 81.3307 124.129 81.544C124.385 81.7467 124.727 81.848 125.153 81.848ZM131.106 71.8H132.77V83H131.106V71.8ZM143.117 83.224C142.37 83.224 141.671 83.064 141.021 82.744C140.37 82.4133 139.847 81.9333 139.453 81.304C139.058 80.664 138.861 79.9067 138.861 79.032C138.861 78.1573 139.058 77.4053 139.453 76.776C139.847 76.136 140.37 75.656 141.021 75.336C141.671 75.0053 142.37 74.84 143.117 74.84C143.853 74.84 144.546 75.0053 145.197 75.336C145.847 75.656 146.37 76.136 146.765 76.776C147.159 77.4053 147.357 78.1573 147.357 79.032C147.357 79.9067 147.159 80.664 146.765 81.304C146.37 81.9333 145.847 82.4133 145.197 82.744C144.546 83.064 143.853 83.224 143.117 83.224ZM143.117 81.704C143.575 81.704 144.002 81.5973 144.397 81.384C144.791 81.16 145.101 80.8453 145.325 80.44C145.559 80.0347 145.677 79.5653 145.677 79.032C145.677 78.4987 145.559 78.0293 145.325 77.624C145.101 77.2187 144.791 76.9093 144.397 76.696C144.002 76.472 143.575 76.36 143.117 76.36C142.647 76.36 142.215 76.472 141.821 76.696C141.437 76.9093 141.127 77.2187 140.893 77.624C140.658 78.0293 140.541 78.4987 140.541 79.032C140.541 79.5653 140.658 80.0347 140.893 80.44C141.127 80.8453 141.437 81.16 141.821 81.384C142.215 81.5973 142.647 81.704 143.117 81.704ZM149.304 76.392H148.104V75.064H149.304V73.768C149.304 72.8933 149.534 72.216 149.992 71.736C150.462 71.2453 151.107 71 151.928 71C152.27 71 152.579 71.0533 152.856 71.16L152.568 72.616C152.355 72.5413 152.158 72.504 151.976 72.504C151.656 72.504 151.406 72.6053 151.224 72.808C151.043 73.0107 150.952 73.3093 150.952 73.704V75.064H152.744V76.392H150.952V83H149.304V76.392ZM162.255 83.224C161.445 83.224 160.741 83.0693 160.143 82.76C159.557 82.4507 159.109 82.0453 158.799 81.544C158.49 81.032 158.335 80.4827 158.335 79.896C158.335 79.5227 158.394 79.2027 158.511 78.936L160.143 79.336C160.09 79.4747 160.063 79.6507 160.063 79.864C160.063 80.4187 160.266 80.872 160.671 81.224C161.077 81.576 161.605 81.752 162.255 81.752C162.906 81.752 163.434 81.576 163.839 81.224C164.255 80.8613 164.463 80.36 164.463 79.72C164.463 79.0267 164.186 78.5147 163.631 78.184C163.077 77.8427 162.351 77.672 161.455 77.672V76.328C162.277 76.328 162.901 76.1627 163.327 75.832C163.754 75.5013 163.967 75.0693 163.967 74.536C163.967 74.0667 163.802 73.6933 163.471 73.416C163.151 73.1387 162.714 73 162.159 73C161.626 73 161.183 73.1493 160.831 73.448C160.479 73.736 160.303 74.1147 160.303 74.584C160.303 74.776 160.335 74.9467 160.399 75.096L158.799 75.432C158.703 75.144 158.655 74.8667 158.655 74.6C158.655 74.056 158.799 73.5547 159.087 73.096C159.386 72.6373 159.802 72.2693 160.335 71.992C160.869 71.7147 161.482 71.576 162.175 71.576C163.285 71.576 164.138 71.832 164.735 72.344C165.343 72.8453 165.647 73.5013 165.647 74.312C165.647 74.8773 165.487 75.3893 165.167 75.848C164.858 76.3067 164.431 76.6427 163.887 76.856C164.559 77.0587 165.109 77.4 165.535 77.88C165.973 78.36 166.191 78.9627 166.191 79.688C166.191 80.4027 166.021 81.0267 165.679 81.56C165.349 82.0933 164.885 82.504 164.287 82.792C163.69 83.08 163.013 83.224 162.255 83.224ZM171.644 83.224C170.876 83.224 170.198 83.0853 169.612 82.808C169.025 82.5307 168.566 82.1413 168.236 81.64C167.916 81.1387 167.756 80.5573 167.756 79.896C167.756 79.2347 167.926 78.6533 168.268 78.152C168.62 77.6507 169.084 77.2667 169.66 77C169.169 76.744 168.785 76.4027 168.508 75.976C168.241 75.5387 168.108 75.048 168.108 74.504C168.108 73.9387 168.257 73.4373 168.556 73C168.865 72.552 169.286 72.2053 169.82 71.96C170.353 71.704 170.961 71.576 171.644 71.576C172.326 71.576 172.934 71.704 173.468 71.96C174.001 72.2053 174.417 72.552 174.716 73C175.025 73.4373 175.18 73.9387 175.18 74.504C175.18 75.048 175.041 75.5387 174.764 75.976C174.497 76.4027 174.118 76.744 173.628 77C174.204 77.2667 174.662 77.6507 175.004 78.152C175.356 78.6533 175.532 79.2347 175.532 79.896C175.532 80.5573 175.366 81.1387 175.036 81.64C174.716 82.1413 174.262 82.5307 173.676 82.808C173.089 83.0853 172.412 83.224 171.644 83.224ZM171.644 76.36C172.188 76.36 172.636 76.2053 172.988 75.896C173.35 75.576 173.532 75.1493 173.532 74.616C173.532 74.0827 173.35 73.6613 172.988 73.352C172.625 73.0427 172.177 72.888 171.644 72.888C171.11 72.888 170.662 73.0427 170.3 73.352C169.937 73.6613 169.756 74.0827 169.756 74.616C169.756 75.1493 169.932 75.576 170.284 75.896C170.646 76.2053 171.1 76.36 171.644 76.36ZM171.644 81.8C172.284 81.8 172.806 81.6133 173.212 81.24C173.628 80.856 173.836 80.3707 173.836 79.784C173.836 79.1973 173.622 78.7173 173.196 78.344C172.78 77.96 172.262 77.768 171.644 77.768C171.025 77.768 170.502 77.96 170.076 78.344C169.66 78.7173 169.452 79.1973 169.452 79.784C169.452 80.3707 169.654 80.856 170.06 81.24C170.476 81.6133 171.004 81.8 171.644 81.8ZM182.072 73.384H176.408V71.8H183.816V73.288L179.48 83H177.768L182.072 73.384ZM189.684 83.224C188.724 83.224 187.866 82.984 187.108 82.504C186.362 82.0133 185.775 81.3307 185.348 80.456C184.932 79.5707 184.724 78.552 184.724 77.4C184.724 76.248 184.932 75.2347 185.348 74.36C185.775 73.4747 186.362 72.792 187.108 72.312C187.866 71.8213 188.724 71.576 189.684 71.576C190.644 71.576 191.498 71.8213 192.244 72.312C193.002 72.792 193.594 73.4747 194.02 74.36C194.447 75.2347 194.66 76.248 194.66 77.4C194.66 78.552 194.447 79.5707 194.02 80.456C193.594 81.3307 193.002 82.0133 192.244 82.504C191.498 82.984 190.644 83.224 189.684 83.224ZM189.684 81.64C190.314 81.64 190.874 81.4693 191.364 81.128C191.855 80.7867 192.239 80.296 192.516 79.656C192.794 79.016 192.932 78.264 192.932 77.4C192.932 76.536 192.794 75.784 192.516 75.144C192.239 74.504 191.855 74.0133 191.364 73.672C190.874 73.3307 190.314 73.16 189.684 73.16C189.055 73.16 188.495 73.3307 188.004 73.672C187.514 74.0133 187.13 74.504 186.852 75.144C186.575 75.784 186.436 76.536 186.436 77.4C186.436 78.264 186.575 79.016 186.852 79.656C187.13 80.296 187.514 80.7867 188.004 81.128C188.495 81.4693 189.055 81.64 189.684 81.64ZM204.455 83.224C203.729 83.224 203.057 83.048 202.439 82.696C201.831 82.344 201.345 81.848 200.983 81.208C200.62 80.568 200.439 79.8427 200.439 79.032C200.439 78.2213 200.62 77.5013 200.983 76.872C201.345 76.232 201.836 75.736 202.455 75.384C203.084 75.0213 203.777 74.84 204.535 74.84C205.292 74.84 205.959 75.0107 206.535 75.352C207.121 75.6827 207.575 76.152 207.895 76.76C208.215 77.3573 208.375 78.04 208.375 78.808V79.384H202.039C202.092 80.0987 202.343 80.68 202.791 81.128C203.239 81.576 203.804 81.8 204.487 81.8C205.073 81.8 205.559 81.6667 205.943 81.4C206.327 81.1227 206.652 80.7227 206.919 80.2L208.135 80.904C207.751 81.6827 207.26 82.264 206.663 82.648C206.065 83.032 205.329 83.224 204.455 83.224ZM206.791 78.088C206.727 77.48 206.481 77.0053 206.055 76.664C205.628 76.312 205.105 76.136 204.487 76.136C203.889 76.136 203.372 76.3227 202.935 76.696C202.497 77.0587 202.209 77.5227 202.071 78.088H206.791ZM212.815 83.224C211.962 83.224 211.263 82.9627 210.719 82.44C210.175 81.9067 209.903 81.1333 209.903 80.12V75.064H211.567V79.8C211.567 80.4187 211.717 80.8933 212.015 81.224C212.325 81.544 212.762 81.704 213.327 81.704C213.925 81.704 214.421 81.4747 214.815 81.016C215.21 80.5467 215.407 79.9493 215.407 79.224V75.064H217.055V83H215.407V81.688C215.151 82.168 214.794 82.5467 214.335 82.824C213.877 83.0907 213.37 83.224 212.815 83.224ZM219.122 75.064H220.786V76.408C220.999 75.928 221.298 75.5493 221.682 75.272C222.077 74.984 222.519 74.84 223.01 74.84C223.245 74.84 223.474 74.872 223.698 74.936L223.426 76.472C223.223 76.3973 223.01 76.36 222.786 76.36C222.199 76.36 221.719 76.6107 221.346 77.112C220.973 77.6027 220.786 78.2107 220.786 78.936V83H219.122V75.064ZM228.398 83.224C227.651 83.224 226.953 83.064 226.302 82.744C225.651 82.4133 225.129 81.9333 224.734 81.304C224.339 80.664 224.142 79.9067 224.142 79.032C224.142 78.1573 224.339 77.4053 224.734 76.776C225.129 76.136 225.651 75.656 226.302 75.336C226.953 75.0053 227.651 74.84 228.398 74.84C229.134 74.84 229.827 75.0053 230.478 75.336C231.129 75.656 231.651 76.136 232.046 76.776C232.441 77.4053 232.638 78.1573 232.638 79.032C232.638 79.9067 232.441 80.664 232.046 81.304C231.651 81.9333 231.129 82.4133 230.478 82.744C229.827 83.064 229.134 83.224 228.398 83.224ZM228.398 81.704C228.857 81.704 229.283 81.5973 229.678 81.384C230.073 81.16 230.382 80.8453 230.606 80.44C230.841 80.0347 230.958 79.5653 230.958 79.032C230.958 78.4987 230.841 78.0293 230.606 77.624C230.382 77.2187 230.073 76.9093 229.678 76.696C229.283 76.472 228.857 76.36 228.398 76.36C227.929 76.36 227.497 76.472 227.102 76.696C226.718 76.9093 226.409 77.2187 226.174 77.624C225.939 78.0293 225.822 78.4987 225.822 79.032C225.822 79.5653 225.939 80.0347 226.174 80.44C226.409 80.8453 226.718 81.16 227.102 81.384C227.497 81.5973 227.929 81.704 228.398 81.704ZM237.226 83.224C236.341 83.224 235.605 83.0053 235.018 82.568C234.442 82.1307 234.01 81.5653 233.722 80.872L235.066 80.04C235.248 80.5947 235.525 81.032 235.898 81.352C236.272 81.672 236.725 81.832 237.258 81.832C237.685 81.832 238.037 81.7307 238.314 81.528C238.602 81.3147 238.746 81.0373 238.746 80.696C238.746 80.376 238.597 80.1253 238.298 79.944C238.01 79.752 237.541 79.5973 236.89 79.48C236.069 79.32 235.408 79.0427 234.906 78.648C234.416 78.2533 234.17 77.72 234.17 77.048C234.17 76.3653 234.442 75.8267 234.986 75.432C235.541 75.0373 236.218 74.84 237.018 74.84C237.84 74.84 238.501 75.0053 239.002 75.336C239.504 75.656 239.904 76.1467 240.202 76.808L238.986 77.528C238.805 77.0693 238.544 76.7173 238.202 76.472C237.872 76.216 237.488 76.088 237.05 76.088C236.645 76.088 236.309 76.168 236.042 76.328C235.776 76.4773 235.642 76.696 235.642 76.984C235.642 77.2933 235.808 77.5493 236.138 77.752C236.48 77.9547 236.981 78.12 237.642 78.248C238.538 78.4293 239.2 78.712 239.626 79.096C240.064 79.4693 240.282 79.9867 240.282 80.648C240.282 81.1173 240.16 81.5493 239.914 81.944C239.68 82.3387 239.328 82.6533 238.858 82.888C238.4 83.112 237.856 83.224 237.226 83.224ZM246.294 75.064H247.958V83H246.294V75.064ZM246.198 71.96H248.07V73.8H246.198V71.96ZM250.106 75.064H251.77V76.408C252.058 75.9173 252.442 75.5333 252.922 75.256C253.402 74.9787 253.925 74.84 254.49 74.84C255.312 74.84 255.978 75.0853 256.49 75.576C257.013 76.056 257.274 76.728 257.274 77.592V83H255.61V78.184C255.61 77.608 255.456 77.16 255.146 76.84C254.848 76.52 254.416 76.36 253.85 76.36C253.466 76.36 253.114 76.4667 252.794 76.68C252.485 76.8933 252.234 77.1867 252.042 77.56C251.861 77.9227 251.77 78.3387 251.77 78.808V83H250.106V75.064ZM267.361 71.8H269.057L273.569 83H271.729L270.513 79.896H265.905L264.689 83H262.849L267.361 71.8ZM269.937 78.36L268.561 74.824L268.209 73.784L267.857 74.824L266.481 78.36H269.937ZM277.456 83.224C276.602 83.224 275.904 82.9627 275.36 82.44C274.816 81.9067 274.544 81.1333 274.544 80.12V75.064H276.208V79.8C276.208 80.4187 276.357 80.8933 276.656 81.224C276.965 81.544 277.402 81.704 277.968 81.704C278.565 81.704 279.061 81.4747 279.456 81.016C279.85 80.5467 280.048 79.9493 280.048 79.224V75.064H281.696V83H280.048V81.688C279.792 82.168 279.434 82.5467 278.976 82.824C278.517 83.0907 278.01 83.224 277.456 83.224ZM287.393 86.488C286.241 86.488 285.339 86.2587 284.689 85.8C284.049 85.3413 283.729 84.7227 283.729 83.944C283.729 83.624 283.803 83.3307 283.953 83.064L285.521 83.544C285.446 83.736 285.409 83.9227 285.409 84.104C285.409 84.424 285.585 84.68 285.937 84.872C286.289 85.064 286.774 85.16 287.393 85.16C288.865 85.16 289.601 84.3173 289.601 82.632V81.544C289.355 81.9493 289.025 82.2747 288.609 82.52C288.203 82.7547 287.713 82.872 287.137 82.872C286.443 82.872 285.809 82.7067 285.233 82.376C284.657 82.0347 284.198 81.56 283.857 80.952C283.526 80.344 283.361 79.6453 283.361 78.856C283.361 78.0667 283.531 77.368 283.873 76.76C284.225 76.1413 284.689 75.6667 285.265 75.336C285.851 75.0053 286.481 74.84 287.153 74.84C287.697 74.84 288.177 74.952 288.593 75.176C289.019 75.3893 289.355 75.688 289.601 76.072V75.064H291.249V82.472C291.249 83.7627 290.907 84.7547 290.225 85.448C289.542 86.1413 288.598 86.488 287.393 86.488ZM287.329 81.432C288.011 81.432 288.577 81.2027 289.025 80.744C289.483 80.2747 289.713 79.6453 289.713 78.856C289.713 78.0667 289.483 77.4427 289.025 76.984C288.577 76.5147 288.011 76.28 287.329 76.28C286.646 76.28 286.086 76.5147 285.649 76.984C285.211 77.4427 284.993 78.0667 284.993 78.856C284.993 79.6453 285.211 80.2747 285.649 80.744C286.086 81.2027 286.646 81.432 287.329 81.432ZM296.19 83.224C295.337 83.224 294.638 82.9627 294.094 82.44C293.55 81.9067 293.278 81.1333 293.278 80.12V75.064H294.942V79.8C294.942 80.4187 295.092 80.8933 295.39 81.224C295.7 81.544 296.137 81.704 296.702 81.704C297.3 81.704 297.796 81.4747 298.19 81.016C298.585 80.5467 298.782 79.9493 298.782 79.224V75.064H300.43V83H298.782V81.688C298.526 82.168 298.169 82.5467 297.71 82.824C297.252 83.0907 296.745 83.224 296.19 83.224ZM305.414 83.224C304.528 83.224 303.792 83.0053 303.206 82.568C302.63 82.1307 302.198 81.5653 301.91 80.872L303.254 80.04C303.435 80.5947 303.712 81.032 304.086 81.352C304.459 81.672 304.912 81.832 305.446 81.832C305.872 81.832 306.224 81.7307 306.502 81.528C306.79 81.3147 306.934 81.0373 306.934 80.696C306.934 80.376 306.784 80.1253 306.486 79.944C306.198 79.752 305.728 79.5973 305.078 79.48C304.256 79.32 303.595 79.0427 303.094 78.648C302.603 78.2533 302.358 77.72 302.358 77.048C302.358 76.3653 302.63 75.8267 303.174 75.432C303.728 75.0373 304.406 74.84 305.206 74.84C306.027 74.84 306.688 75.0053 307.19 75.336C307.691 75.656 308.091 76.1467 308.39 76.808L307.174 77.528C306.992 77.0693 306.731 76.7173 306.39 76.472C306.059 76.216 305.675 76.088 305.238 76.088C304.832 76.088 304.496 76.168 304.23 76.328C303.963 76.4773 303.83 76.696 303.83 76.984C303.83 77.2933 303.995 77.5493 304.326 77.752C304.667 77.9547 305.168 78.12 305.83 78.248C306.726 78.4293 307.387 78.712 307.814 79.096C308.251 79.4693 308.47 79.9867 308.47 80.648C308.47 81.1173 308.347 81.5493 308.102 81.944C307.867 82.3387 307.515 82.6533 307.046 82.888C306.587 83.112 306.043 83.224 305.414 83.224ZM312.847 83.224C312.154 83.224 311.594 83.0373 311.167 82.664C310.741 82.28 310.527 81.6667 310.527 80.824V76.392H309.247V75.064H310.527V72.92H312.175V75.064H313.983V76.392H312.175V80.584C312.175 81.3733 312.527 81.768 313.231 81.768C313.445 81.768 313.658 81.736 313.871 81.672L314.031 83.032C313.669 83.16 313.274 83.224 312.847 83.224ZM315.222 81.128H317.078V83H315.222V81.128Z" fill="black"/>
</g>
<defs>
<filter id="filter0_b_2453_73630" x="-50" y="-50" width="533" height="207" filterUnits="userSpaceOnUse" color-interpolation-filters="sRGB">
<feFlood flood-opacity="0" result="BackgroundImageFix"/>
<feGaussianBlur in="BackgroundImageFix" stdDeviation="25"/>
<feComposite in2="SourceAlpha" operator="in" result="effect1_backgroundBlur_2453_73630"/>
<feBlend mode="normal" in="SourceGraphic" in2="effect1_backgroundBlur_2453_73630" result="shape"/>
</filter>
</defs>
</svg>
