<svg width="624" height="253" viewBox="0 0 624 253" fill="none" xmlns="http://www.w3.org/2000/svg">
<g opacity="0.2">
<line y1="0.5" x2="624" y2="0.5" stroke="#BEE5E4"/>
<line y1="52.5" x2="624" y2="52.5" stroke="#BEE5E4"/>
<line y1="104.5" x2="624" y2="104.5" stroke="#BEE5E4"/>
<line y1="156.5" x2="624" y2="156.5" stroke="#BEE5E4"/>
<line y1="208.5" x2="624" y2="208.5" stroke="#BEE5E4"/>
</g>
<g filter="url(#filter0_b_1_2542)">
<path d="M21.333 196C21.333 187.163 28.4965 180 37.333 180H132.666C141.503 180 148.666 187.163 148.666 196V208H21.333V196Z" fill="#10A19F"/>
<path d="M21.933 196C21.933 187.495 28.8278 180.6 37.333 180.6H132.666C141.172 180.6 148.066 187.495 148.066 196V207.4H21.933V196Z" stroke="#2AEEE4" stroke-width="1.2"/>
</g>
<g filter="url(#filter1_b_1_2542)">
<path d="M172.666 171C172.666 162.163 179.83 155 188.666 155H284C292.836 155 300 162.163 300 171V208H172.666V171Z" fill="#10A19F"/>
<path d="M173.266 171C173.266 162.495 180.161 155.6 188.666 155.6H284C292.505 155.6 299.4 162.495 299.4 171V207.4H173.266V171Z" stroke="#2AEEE4" stroke-width="1.2"/>
</g>
<g filter="url(#filter2_b_1_2542)">
<path d="M324 128C324 119.163 331.163 112 340 112H435.333C444.17 112 451.333 119.163 451.333 128V208H324V128Z" fill="#10A19F"/>
<path d="M324.6 128C324.6 119.495 331.495 112.6 340 112.6H435.333C443.838 112.6 450.733 119.495 450.733 128V207.4H324.6V128Z" stroke="#2AEEE4" stroke-width="1.2"/>
</g>
<path d="M475.333 25C475.333 16.1634 482.496 9 491.333 9H586.666C595.503 9 602.666 16.1634 602.666 25V208H475.333V25Z" fill="#2AEEE4"/>
<path d="M490.514 227.8H492.354L495.154 235.608L495.57 236.968L495.986 235.608L498.786 227.8H500.626L496.466 239H494.674L490.514 227.8ZM503.049 239.224C502.26 239.224 501.62 239 501.129 238.552C500.639 238.093 500.393 237.496 500.393 236.76C500.393 236.013 500.649 235.427 501.161 235C501.684 234.573 502.351 234.296 503.161 234.168L505.689 233.768V233.448C505.689 232.989 505.545 232.643 505.257 232.408C504.98 232.173 504.575 232.056 504.041 232.056C503.519 232.056 503.108 232.163 502.809 232.376C502.521 232.579 502.377 232.835 502.377 233.144C502.377 233.219 502.388 233.288 502.409 233.352L500.953 233.848C500.868 233.645 500.825 233.427 500.825 233.192C500.825 232.776 500.953 232.392 501.209 232.04C501.476 231.677 501.855 231.389 502.345 231.176C502.836 230.952 503.401 230.84 504.041 230.84C505.108 230.84 505.924 231.075 506.489 231.544C507.065 232.013 507.353 232.696 507.353 233.592V237.032C507.353 237.48 507.391 237.848 507.465 238.136C507.54 238.413 507.673 238.701 507.865 239H506.185C505.897 238.627 505.753 238.157 505.753 237.592C505.508 238.104 505.14 238.504 504.649 238.792C504.169 239.08 503.636 239.224 503.049 239.224ZM503.401 237.848C504.084 237.848 504.633 237.603 505.049 237.112C505.476 236.611 505.689 235.971 505.689 235.192V234.968L503.529 235.336C503.039 235.421 502.66 235.576 502.393 235.8C502.137 236.024 502.009 236.317 502.009 236.68C502.009 237.043 502.132 237.331 502.377 237.544C502.633 237.747 502.975 237.848 503.401 237.848ZM513.303 239.224C512.524 239.224 511.82 239.048 511.191 238.696C510.561 238.344 510.065 237.853 509.703 237.224C509.351 236.584 509.175 235.853 509.175 235.032C509.175 234.221 509.361 233.501 509.735 232.872C510.108 232.232 510.609 231.736 511.239 231.384C511.879 231.021 512.567 230.84 513.303 230.84C514.156 230.84 514.876 231.011 515.463 231.352C516.06 231.693 516.503 232.189 516.791 232.84L515.431 233.672C514.972 232.808 514.263 232.376 513.303 232.376C512.844 232.376 512.428 232.488 512.055 232.712C511.692 232.925 511.404 233.235 511.191 233.64C510.977 234.035 510.871 234.499 510.871 235.032C510.871 235.832 511.095 236.477 511.543 236.968C512.001 237.448 512.588 237.688 513.303 237.688C513.836 237.688 514.273 237.576 514.615 237.352C514.956 237.128 515.255 236.792 515.511 236.344L516.839 237.16C516.028 238.536 514.849 239.224 513.303 239.224ZM520.807 239.224C520.017 239.224 519.377 239 518.887 238.552C518.396 238.093 518.151 237.496 518.151 236.76C518.151 236.013 518.407 235.427 518.919 235C519.441 234.573 520.108 234.296 520.919 234.168L523.447 233.768V233.448C523.447 232.989 523.303 232.643 523.015 232.408C522.737 232.173 522.332 232.056 521.799 232.056C521.276 232.056 520.865 232.163 520.567 232.376C520.279 232.579 520.135 232.835 520.135 233.144C520.135 233.219 520.145 233.288 520.167 233.352L518.711 233.848C518.625 233.645 518.583 233.427 518.583 233.192C518.583 232.776 518.711 232.392 518.967 232.04C519.233 231.677 519.612 231.389 520.103 231.176C520.593 230.952 521.159 230.84 521.799 230.84C522.865 230.84 523.681 231.075 524.247 231.544C524.823 232.013 525.111 232.696 525.111 233.592V237.032C525.111 237.48 525.148 237.848 525.223 238.136C525.297 238.413 525.431 238.701 525.623 239H523.943C523.655 238.627 523.511 238.157 523.511 237.592C523.265 238.104 522.897 238.504 522.407 238.792C521.927 239.08 521.393 239.224 520.807 239.224ZM521.159 237.848C521.841 237.848 522.391 237.603 522.807 237.112C523.233 236.611 523.447 235.971 523.447 235.192V234.968L521.287 235.336C520.796 235.421 520.417 235.576 520.151 235.8C519.895 236.024 519.767 236.317 519.767 236.68C519.767 237.043 519.889 237.331 520.135 237.544C520.391 237.747 520.732 237.848 521.159 237.848ZM530.091 239.224C529.397 239.224 528.837 239.037 528.411 238.664C527.984 238.28 527.771 237.667 527.771 236.824V232.392H526.491V231.064H527.771V228.92H529.419V231.064H531.227V232.392H529.419V236.584C529.419 237.373 529.771 237.768 530.475 237.768C530.688 237.768 530.901 237.736 531.115 237.672L531.275 239.032C530.912 239.16 530.517 239.224 530.091 239.224ZM533.01 231.064H534.674V239H533.01V231.064ZM532.914 227.96H534.786V229.8H532.914V227.96ZM540.727 239.224C539.98 239.224 539.282 239.064 538.631 238.744C537.98 238.413 537.458 237.933 537.063 237.304C536.668 236.664 536.471 235.907 536.471 235.032C536.471 234.157 536.668 233.405 537.063 232.776C537.458 232.136 537.98 231.656 538.631 231.336C539.282 231.005 539.98 230.84 540.727 230.84C541.463 230.84 542.156 231.005 542.807 231.336C543.458 231.656 543.98 232.136 544.375 232.776C544.77 233.405 544.967 234.157 544.967 235.032C544.967 235.907 544.77 236.664 544.375 237.304C543.98 237.933 543.458 238.413 542.807 238.744C542.156 239.064 541.463 239.224 540.727 239.224ZM540.727 237.704C541.186 237.704 541.612 237.597 542.007 237.384C542.402 237.16 542.711 236.845 542.935 236.44C543.17 236.035 543.287 235.565 543.287 235.032C543.287 234.499 543.17 234.029 542.935 233.624C542.711 233.219 542.402 232.909 542.007 232.696C541.612 232.472 541.186 232.36 540.727 232.36C540.258 232.36 539.826 232.472 539.431 232.696C539.047 232.909 538.738 233.219 538.503 233.624C538.268 234.029 538.151 234.499 538.151 235.032C538.151 235.565 538.268 236.035 538.503 236.44C538.738 236.845 539.047 237.16 539.431 237.384C539.826 237.597 540.258 237.704 540.727 237.704ZM546.799 231.064H548.463V232.408C548.751 231.917 549.135 231.533 549.615 231.256C550.095 230.979 550.617 230.84 551.183 230.84C552.004 230.84 552.671 231.085 553.183 231.576C553.705 232.056 553.967 232.728 553.967 233.592V239H552.303V234.184C552.303 233.608 552.148 233.16 551.839 232.84C551.54 232.52 551.108 232.36 550.543 232.36C550.159 232.36 549.807 232.467 549.487 232.68C549.177 232.893 548.927 233.187 548.735 233.56C548.553 233.923 548.463 234.339 548.463 234.808V239H546.799V231.064ZM561.045 227.8H565.653C566.432 227.8 567.104 227.933 567.669 228.2C568.245 228.456 568.682 228.824 568.981 229.304C569.29 229.784 569.445 230.333 569.445 230.952C569.445 231.773 569.216 232.456 568.757 233C568.298 233.533 567.653 233.917 566.821 234.152L569.573 239H567.621L564.949 234.312H562.773V239H561.045V227.8ZM565.573 232.792C566.277 232.792 566.81 232.648 567.173 232.36C567.536 232.061 567.717 231.624 567.717 231.048C567.717 230.483 567.536 230.056 567.173 229.768C566.81 229.469 566.277 229.32 565.573 229.32H562.773V232.792H565.573ZM574.393 239.224C573.667 239.224 572.995 239.048 572.377 238.696C571.769 238.344 571.283 237.848 570.921 237.208C570.558 236.568 570.377 235.843 570.377 235.032C570.377 234.221 570.558 233.501 570.921 232.872C571.283 232.232 571.774 231.736 572.393 231.384C573.022 231.021 573.715 230.84 574.473 230.84C575.23 230.84 575.897 231.011 576.473 231.352C577.059 231.683 577.513 232.152 577.833 232.76C578.153 233.357 578.313 234.04 578.313 234.808V235.384H571.977C572.03 236.099 572.281 236.68 572.729 237.128C573.177 237.576 573.742 237.8 574.425 237.8C575.011 237.8 575.497 237.667 575.881 237.4C576.265 237.123 576.59 236.723 576.857 236.2L578.073 236.904C577.689 237.683 577.198 238.264 576.601 238.648C576.003 239.032 575.267 239.224 574.393 239.224ZM576.729 234.088C576.665 233.48 576.419 233.005 575.993 232.664C575.566 232.312 575.043 232.136 574.425 232.136C573.827 232.136 573.31 232.323 572.873 232.696C572.435 233.059 572.147 233.523 572.009 234.088H576.729ZM580.173 231.064H581.837V232.408C582.125 231.917 582.509 231.533 582.989 231.256C583.469 230.979 583.992 230.84 584.557 230.84C585.378 230.84 586.045 231.085 586.557 231.576C587.08 232.056 587.341 232.728 587.341 233.592V239H585.677V234.184C585.677 233.608 585.522 233.16 585.213 232.84C584.914 232.52 584.482 232.36 583.917 232.36C583.533 232.36 583.181 232.467 582.861 232.68C582.552 232.893 582.301 233.187 582.109 233.56C581.928 233.923 581.837 234.339 581.837 234.808V239H580.173V231.064ZM592.183 239.224C591.49 239.224 590.93 239.037 590.503 238.664C590.077 238.28 589.863 237.667 589.863 236.824V232.392H588.583V231.064H589.863V228.92H591.511V231.064H593.319V232.392H591.511V236.584C591.511 237.373 591.863 237.768 592.567 237.768C592.781 237.768 592.994 237.736 593.207 237.672L593.367 239.032C593.005 239.16 592.61 239.224 592.183 239.224ZM597.313 239.224C596.524 239.224 595.884 239 595.393 238.552C594.902 238.093 594.657 237.496 594.657 236.76C594.657 236.013 594.913 235.427 595.425 235C595.948 234.573 596.614 234.296 597.425 234.168L599.953 233.768V233.448C599.953 232.989 599.809 232.643 599.521 232.408C599.244 232.173 598.838 232.056 598.305 232.056C597.782 232.056 597.372 232.163 597.073 232.376C596.785 232.579 596.641 232.835 596.641 233.144C596.641 233.219 596.652 233.288 596.673 233.352L595.217 233.848C595.132 233.645 595.089 233.427 595.089 233.192C595.089 232.776 595.217 232.392 595.473 232.04C595.74 231.677 596.118 231.389 596.609 231.176C597.1 230.952 597.665 230.84 598.305 230.84C599.372 230.84 600.188 231.075 600.753 231.544C601.329 232.013 601.617 232.696 601.617 233.592V237.032C601.617 237.48 601.654 237.848 601.729 238.136C601.804 238.413 601.937 238.701 602.129 239H600.449C600.161 238.627 600.017 238.157 600.017 237.592C599.772 238.104 599.404 238.504 598.913 238.792C598.433 239.08 597.9 239.224 597.313 239.224ZM597.665 237.848C598.348 237.848 598.897 237.603 599.313 237.112C599.74 236.611 599.953 235.971 599.953 235.192V234.968L597.793 235.336C597.302 235.421 596.924 235.576 596.657 235.8C596.401 236.024 596.273 236.317 596.273 236.68C596.273 237.043 596.396 237.331 596.641 237.544C596.897 237.747 597.238 237.848 597.665 237.848ZM603.778 227.8H605.442V239H603.778V227.8Z" fill="#F6F4F4"/>
<path d="M332.024 229.384H328.584V227.8H337.192V229.384H333.752V239H332.024V229.384ZM337.169 231.064H338.833V232.408C339.046 231.928 339.345 231.549 339.729 231.272C340.124 230.984 340.566 230.84 341.057 230.84C341.292 230.84 341.521 230.872 341.745 230.936L341.473 232.472C341.27 232.397 341.057 232.36 340.833 232.36C340.246 232.36 339.766 232.611 339.393 233.112C339.02 233.603 338.833 234.211 338.833 234.936V239H337.169V231.064ZM345.164 239.224C344.375 239.224 343.735 239 343.244 238.552C342.754 238.093 342.508 237.496 342.508 236.76C342.508 236.013 342.764 235.427 343.276 235C343.799 234.573 344.466 234.296 345.276 234.168L347.804 233.768V233.448C347.804 232.989 347.66 232.643 347.372 232.408C347.095 232.173 346.69 232.056 346.156 232.056C345.634 232.056 345.223 232.163 344.924 232.376C344.636 232.579 344.492 232.835 344.492 233.144C344.492 233.219 344.503 233.288 344.524 233.352L343.068 233.848C342.983 233.645 342.94 233.427 342.94 233.192C342.94 232.776 343.068 232.392 343.324 232.04C343.591 231.677 343.97 231.389 344.46 231.176C344.951 230.952 345.516 230.84 346.156 230.84C347.223 230.84 348.039 231.075 348.604 231.544C349.18 232.013 349.468 232.696 349.468 233.592V237.032C349.468 237.48 349.506 237.848 349.58 238.136C349.655 238.413 349.788 238.701 349.98 239H348.3C348.012 238.627 347.868 238.157 347.868 237.592C347.623 238.104 347.255 238.504 346.764 238.792C346.284 239.08 345.751 239.224 345.164 239.224ZM345.516 237.848C346.199 237.848 346.748 237.603 347.164 237.112C347.591 236.611 347.804 235.971 347.804 235.192V234.968L345.644 235.336C345.154 235.421 344.775 235.576 344.508 235.8C344.252 236.024 344.124 236.317 344.124 236.68C344.124 237.043 344.247 237.331 344.492 237.544C344.748 237.747 345.09 237.848 345.516 237.848ZM355.162 239.224C354.437 239.224 353.781 239.053 353.194 238.712C352.607 238.36 352.143 237.869 351.802 237.24C351.461 236.6 351.29 235.864 351.29 235.032C351.29 234.211 351.466 233.485 351.818 232.856C352.181 232.216 352.655 231.72 353.242 231.368C353.839 231.016 354.474 230.84 355.146 230.84C355.743 230.84 356.271 230.963 356.73 231.208C357.189 231.453 357.541 231.789 357.786 232.216V227.8H359.45V239H357.786V237.736C357.551 238.173 357.205 238.531 356.746 238.808C356.287 239.085 355.759 239.224 355.162 239.224ZM355.45 237.704C355.919 237.704 356.341 237.592 356.714 237.368C357.087 237.133 357.381 236.813 357.594 236.408C357.807 236.003 357.914 235.544 357.914 235.032C357.914 234.52 357.807 234.061 357.594 233.656C357.381 233.251 357.087 232.936 356.714 232.712C356.341 232.477 355.919 232.36 355.45 232.36C354.725 232.36 354.133 232.611 353.674 233.112C353.215 233.613 352.986 234.253 352.986 235.032C352.986 235.811 353.215 236.451 353.674 236.952C354.133 237.453 354.725 237.704 355.45 237.704ZM361.758 231.064H363.422V239H361.758V231.064ZM361.662 227.96H363.534V229.8H361.662V227.96ZM368.675 239.224C367.981 239.224 367.421 239.037 366.995 238.664C366.568 238.28 366.355 237.667 366.355 236.824V232.392H365.075V231.064H366.355V228.92H368.003V231.064H369.811V232.392H368.003V236.584C368.003 237.373 368.355 237.768 369.059 237.768C369.272 237.768 369.485 237.736 369.699 237.672L369.859 239.032C369.496 239.16 369.101 239.224 368.675 239.224ZM371.594 231.064H373.258V239H371.594V231.064ZM371.498 227.96H373.37V229.8H371.498V227.96ZM379.311 239.224C378.564 239.224 377.866 239.064 377.215 238.744C376.564 238.413 376.042 237.933 375.647 237.304C375.252 236.664 375.055 235.907 375.055 235.032C375.055 234.157 375.252 233.405 375.647 232.776C376.042 232.136 376.564 231.656 377.215 231.336C377.866 231.005 378.564 230.84 379.311 230.84C380.047 230.84 380.74 231.005 381.391 231.336C382.042 231.656 382.564 232.136 382.959 232.776C383.354 233.405 383.551 234.157 383.551 235.032C383.551 235.907 383.354 236.664 382.959 237.304C382.564 237.933 382.042 238.413 381.391 238.744C380.74 239.064 380.047 239.224 379.311 239.224ZM379.311 237.704C379.77 237.704 380.196 237.597 380.591 237.384C380.986 237.16 381.295 236.845 381.519 236.44C381.754 236.035 381.871 235.565 381.871 235.032C381.871 234.499 381.754 234.029 381.519 233.624C381.295 233.219 380.986 232.909 380.591 232.696C380.196 232.472 379.77 232.36 379.311 232.36C378.842 232.36 378.41 232.472 378.015 232.696C377.631 232.909 377.322 233.219 377.087 233.624C376.852 234.029 376.735 234.499 376.735 235.032C376.735 235.565 376.852 236.035 377.087 236.44C377.322 236.845 377.631 237.16 378.015 237.384C378.41 237.597 378.842 237.704 379.311 237.704ZM385.383 231.064H387.047V232.408C387.335 231.917 387.719 231.533 388.199 231.256C388.679 230.979 389.201 230.84 389.767 230.84C390.588 230.84 391.255 231.085 391.767 231.576C392.289 232.056 392.551 232.728 392.551 233.592V239H390.887V234.184C390.887 233.608 390.732 233.16 390.423 232.84C390.124 232.52 389.692 232.36 389.127 232.36C388.743 232.36 388.391 232.467 388.071 232.68C387.761 232.893 387.511 233.187 387.319 233.56C387.137 233.923 387.047 234.339 387.047 234.808V239H385.383V231.064ZM397.003 239.224C396.214 239.224 395.574 239 395.083 238.552C394.593 238.093 394.347 237.496 394.347 236.76C394.347 236.013 394.603 235.427 395.115 235C395.638 234.573 396.305 234.296 397.115 234.168L399.643 233.768V233.448C399.643 232.989 399.499 232.643 399.211 232.408C398.934 232.173 398.529 232.056 397.995 232.056C397.473 232.056 397.062 232.163 396.763 232.376C396.475 232.579 396.331 232.835 396.331 233.144C396.331 233.219 396.342 233.288 396.363 233.352L394.907 233.848C394.822 233.645 394.779 233.427 394.779 233.192C394.779 232.776 394.907 232.392 395.163 232.04C395.43 231.677 395.809 231.389 396.299 231.176C396.79 230.952 397.355 230.84 397.995 230.84C399.062 230.84 399.878 231.075 400.443 231.544C401.019 232.013 401.307 232.696 401.307 233.592V237.032C401.307 237.48 401.345 237.848 401.419 238.136C401.494 238.413 401.627 238.701 401.819 239H400.139C399.851 238.627 399.707 238.157 399.707 237.592C399.462 238.104 399.094 238.504 398.603 238.792C398.123 239.08 397.59 239.224 397.003 239.224ZM397.355 237.848C398.038 237.848 398.587 237.603 399.003 237.112C399.43 236.611 399.643 235.971 399.643 235.192V234.968L397.483 235.336C396.993 235.421 396.614 235.576 396.347 235.8C396.091 236.024 395.963 236.317 395.963 236.68C395.963 237.043 396.086 237.331 396.331 237.544C396.587 237.747 396.929 237.848 397.355 237.848ZM403.468 227.8H405.132V239H403.468V227.8ZM412.215 227.8H416.823C417.601 227.8 418.273 227.933 418.839 228.2C419.415 228.456 419.852 228.824 420.151 229.304C420.46 229.784 420.615 230.333 420.615 230.952C420.615 231.773 420.385 232.456 419.927 233C419.468 233.533 418.823 233.917 417.991 234.152L420.743 239H418.791L416.119 234.312H413.943V239H412.215V227.8ZM416.743 232.792C417.447 232.792 417.98 232.648 418.343 232.36C418.705 232.061 418.887 231.624 418.887 231.048C418.887 230.483 418.705 230.056 418.343 229.768C417.98 229.469 417.447 229.32 416.743 229.32H413.943V232.792H416.743ZM425.562 239.224C424.837 239.224 424.165 239.048 423.546 238.696C422.938 238.344 422.453 237.848 422.09 237.208C421.728 236.568 421.546 235.843 421.546 235.032C421.546 234.221 421.728 233.501 422.09 232.872C422.453 232.232 422.944 231.736 423.562 231.384C424.192 231.021 424.885 230.84 425.642 230.84C426.4 230.84 427.066 231.011 427.642 231.352C428.229 231.683 428.682 232.152 429.002 232.76C429.322 233.357 429.482 234.04 429.482 234.808V235.384H423.146C423.2 236.099 423.45 236.68 423.898 237.128C424.346 237.576 424.912 237.8 425.594 237.8C426.181 237.8 426.666 237.667 427.05 237.4C427.434 237.123 427.76 236.723 428.026 236.2L429.242 236.904C428.858 237.683 428.368 238.264 427.77 238.648C427.173 239.032 426.437 239.224 425.562 239.224ZM427.898 234.088C427.834 233.48 427.589 233.005 427.162 232.664C426.736 232.312 426.213 232.136 425.594 232.136C424.997 232.136 424.48 232.323 424.042 232.696C423.605 233.059 423.317 233.523 423.178 234.088H427.898ZM431.343 231.064H433.007V232.408C433.295 231.917 433.679 231.533 434.159 231.256C434.639 230.979 435.161 230.84 435.727 230.84C436.548 230.84 437.215 231.085 437.727 231.576C438.249 232.056 438.511 232.728 438.511 233.592V239H436.847V234.184C436.847 233.608 436.692 233.16 436.383 232.84C436.084 232.52 435.652 232.36 435.087 232.36C434.703 232.36 434.351 232.467 434.031 232.68C433.721 232.893 433.471 233.187 433.279 233.56C433.097 233.923 433.007 234.339 433.007 234.808V239H431.343V231.064ZM443.353 239.224C442.66 239.224 442.1 239.037 441.673 238.664C441.246 238.28 441.033 237.667 441.033 236.824V232.392H439.753V231.064H441.033V228.92H442.681V231.064H444.489V232.392H442.681V236.584C442.681 237.373 443.033 237.768 443.737 237.768C443.95 237.768 444.164 237.736 444.377 237.672L444.537 239.032C444.174 239.16 443.78 239.224 443.353 239.224ZM448.483 239.224C447.693 239.224 447.053 239 446.563 238.552C446.072 238.093 445.827 237.496 445.827 236.76C445.827 236.013 446.083 235.427 446.595 235C447.117 234.573 447.784 234.296 448.595 234.168L451.123 233.768V233.448C451.123 232.989 450.979 232.643 450.691 232.408C450.413 232.173 450.008 232.056 449.475 232.056C448.952 232.056 448.541 232.163 448.243 232.376C447.955 232.579 447.811 232.835 447.811 233.144C447.811 233.219 447.821 233.288 447.843 233.352L446.387 233.848C446.301 233.645 446.259 233.427 446.259 233.192C446.259 232.776 446.387 232.392 446.643 232.04C446.909 231.677 447.288 231.389 447.779 231.176C448.269 230.952 448.835 230.84 449.475 230.84C450.541 230.84 451.357 231.075 451.923 231.544C452.499 232.013 452.787 232.696 452.787 233.592V237.032C452.787 237.48 452.824 237.848 452.899 238.136C452.973 238.413 453.107 238.701 453.299 239H451.619C451.331 238.627 451.187 238.157 451.187 237.592C450.941 238.104 450.573 238.504 450.083 238.792C449.603 239.08 449.069 239.224 448.483 239.224ZM448.835 237.848C449.517 237.848 450.067 237.603 450.483 237.112C450.909 236.611 451.123 235.971 451.123 235.192V234.968L448.963 235.336C448.472 235.421 448.093 235.576 447.827 235.8C447.571 236.024 447.443 236.317 447.443 236.68C447.443 237.043 447.565 237.331 447.811 237.544C448.067 237.747 448.408 237.848 448.835 237.848ZM454.948 227.8H456.612V239H454.948V227.8Z" fill="#F6F4F4"/>
<path d="M207.004 239.224C205.724 239.224 204.695 238.904 203.916 238.264C203.148 237.613 202.652 236.76 202.428 235.704L203.964 234.904C204.306 236.771 205.319 237.704 207.004 237.704C207.73 237.704 208.311 237.533 208.748 237.192C209.186 236.851 209.404 236.424 209.404 235.912C209.404 235.357 209.17 234.925 208.7 234.616C208.231 234.296 207.506 234.045 206.524 233.864C205.404 233.651 204.524 233.277 203.884 232.744C203.255 232.2 202.94 231.475 202.94 230.568C202.94 229.981 203.1 229.464 203.42 229.016C203.751 228.557 204.204 228.205 204.78 227.96C205.356 227.704 206.018 227.576 206.764 227.576C207.799 227.576 208.674 227.816 209.388 228.296C210.103 228.776 210.62 229.469 210.94 230.376L209.564 231.176C209.33 230.504 208.972 229.992 208.492 229.64C208.012 229.277 207.431 229.096 206.748 229.096C206.13 229.096 205.612 229.224 205.196 229.48C204.791 229.725 204.588 230.077 204.588 230.536C204.588 231.037 204.823 231.437 205.292 231.736C205.772 232.035 206.508 232.285 207.5 232.488C208.716 232.744 209.623 233.139 210.22 233.672C210.828 234.205 211.132 234.92 211.132 235.816C211.132 236.435 210.962 237.005 210.62 237.528C210.279 238.051 209.794 238.467 209.164 238.776C208.546 239.075 207.826 239.224 207.004 239.224ZM216.611 239.224C215.929 239.224 215.321 239.08 214.787 238.792C214.254 238.493 213.833 238.088 213.523 237.576C213.225 237.053 213.075 236.461 213.075 235.8C213.075 235.064 213.262 234.429 213.635 233.896C214.019 233.352 214.547 232.872 215.219 232.456C214.718 231.688 214.467 230.947 214.467 230.232C214.467 229.72 214.585 229.261 214.819 228.856C215.065 228.451 215.395 228.136 215.811 227.912C216.227 227.688 216.686 227.576 217.187 227.576C217.966 227.576 218.595 227.784 219.075 228.2C219.566 228.605 219.811 229.155 219.811 229.848C219.811 230.445 219.609 230.979 219.203 231.448C218.809 231.907 218.174 232.36 217.299 232.808L219.651 235.864C219.971 235.245 220.222 234.461 220.403 233.512L221.699 234.248C221.422 235.379 221.043 236.317 220.563 237.064L222.051 239H220.131L219.523 238.2C218.723 238.883 217.753 239.224 216.611 239.224ZM216.531 231.8C217.225 231.48 217.705 231.187 217.971 230.92C218.249 230.643 218.387 230.323 218.387 229.96C218.387 229.64 218.27 229.379 218.035 229.176C217.811 228.973 217.529 228.872 217.187 228.872C216.846 228.872 216.547 228.989 216.291 229.224C216.046 229.459 215.923 229.784 215.923 230.2C215.923 230.701 216.126 231.235 216.531 231.8ZM216.803 237.784C217.518 237.784 218.147 237.549 218.691 237.08L216.019 233.544C215.582 233.853 215.257 234.184 215.043 234.536C214.83 234.877 214.723 235.283 214.723 235.752C214.723 236.36 214.921 236.851 215.315 237.224C215.721 237.597 216.217 237.784 216.803 237.784ZM224.057 227.8H228.937C230.185 227.8 231.172 228.12 231.897 228.76C232.633 229.389 233.001 230.264 233.001 231.384C233.001 232.504 232.633 233.379 231.897 234.008C231.172 234.637 230.185 234.952 228.937 234.952H225.785V239H224.057V227.8ZM228.889 233.416C229.678 233.416 230.27 233.24 230.665 232.888C231.07 232.525 231.273 232.024 231.273 231.384C231.273 230.733 231.07 230.232 230.665 229.88C230.27 229.517 229.678 229.336 228.889 229.336H225.785V233.416H228.889ZM243.161 239.224C242.372 239.224 241.684 239.08 241.097 238.792C240.51 238.493 240.062 238.104 239.753 237.624C239.444 237.144 239.289 236.627 239.289 236.072C239.289 235.773 239.342 235.491 239.449 235.224L241.081 235.608C241.038 235.757 241.017 235.907 241.017 236.056C241.017 236.589 241.209 237.005 241.593 237.304C241.988 237.603 242.51 237.752 243.161 237.752C243.886 237.752 244.473 237.523 244.921 237.064C245.369 236.605 245.593 235.981 245.593 235.192C245.593 234.424 245.38 233.821 244.953 233.384C244.526 232.947 243.945 232.728 243.209 232.728C242.718 232.728 242.249 232.872 241.801 233.16C241.364 233.448 241.017 233.816 240.761 234.264L239.385 233.896L239.929 227.8H246.633V229.384H241.161L240.825 232.552C241.156 232.157 241.561 231.859 242.041 231.656C242.521 231.453 243.006 231.352 243.497 231.352C244.713 231.352 245.652 231.704 246.313 232.408C246.985 233.101 247.321 234.029 247.321 235.192C247.321 235.96 247.145 236.648 246.793 237.256C246.441 237.864 245.95 238.344 245.321 238.696C244.692 239.048 243.972 239.224 243.161 239.224ZM253.954 239.224C252.994 239.224 252.136 238.984 251.378 238.504C250.632 238.013 250.045 237.331 249.618 236.456C249.202 235.571 248.994 234.552 248.994 233.4C248.994 232.248 249.202 231.235 249.618 230.36C250.045 229.475 250.632 228.792 251.378 228.312C252.136 227.821 252.994 227.576 253.954 227.576C254.914 227.576 255.768 227.821 256.514 228.312C257.272 228.792 257.864 229.475 258.29 230.36C258.717 231.235 258.93 232.248 258.93 233.4C258.93 234.552 258.717 235.571 258.29 236.456C257.864 237.331 257.272 238.013 256.514 238.504C255.768 238.984 254.914 239.224 253.954 239.224ZM253.954 237.64C254.584 237.64 255.144 237.469 255.634 237.128C256.125 236.787 256.509 236.296 256.786 235.656C257.064 235.016 257.202 234.264 257.202 233.4C257.202 232.536 257.064 231.784 256.786 231.144C256.509 230.504 256.125 230.013 255.634 229.672C255.144 229.331 254.584 229.16 253.954 229.16C253.325 229.16 252.765 229.331 252.274 229.672C251.784 230.013 251.4 230.504 251.122 231.144C250.845 231.784 250.706 232.536 250.706 233.4C250.706 234.264 250.845 235.016 251.122 235.656C251.4 236.296 251.784 236.787 252.274 237.128C252.765 237.469 253.325 237.64 253.954 237.64ZM265.583 239.224C264.623 239.224 263.764 238.984 263.007 238.504C262.26 238.013 261.674 237.331 261.247 236.456C260.831 235.571 260.623 234.552 260.623 233.4C260.623 232.248 260.831 231.235 261.247 230.36C261.674 229.475 262.26 228.792 263.007 228.312C263.764 227.821 264.623 227.576 265.583 227.576C266.543 227.576 267.396 227.821 268.143 228.312C268.9 228.792 269.492 229.475 269.919 230.36C270.346 231.235 270.559 232.248 270.559 233.4C270.559 234.552 270.346 235.571 269.919 236.456C269.492 237.331 268.9 238.013 268.143 238.504C267.396 238.984 266.543 239.224 265.583 239.224ZM265.583 237.64C266.212 237.64 266.772 237.469 267.263 237.128C267.754 236.787 268.138 236.296 268.415 235.656C268.692 235.016 268.831 234.264 268.831 233.4C268.831 232.536 268.692 231.784 268.415 231.144C268.138 230.504 267.754 230.013 267.263 229.672C266.772 229.331 266.212 229.16 265.583 229.16C264.954 229.16 264.394 229.331 263.903 229.672C263.412 230.013 263.028 230.504 262.751 231.144C262.474 231.784 262.335 232.536 262.335 233.4C262.335 234.264 262.474 235.016 262.751 235.656C263.028 236.296 263.412 236.787 263.903 237.128C264.394 237.469 264.954 237.64 265.583 237.64Z" fill="#F6F4F4"/>
<path d="M46.6262 227.8H50.9622C52.0715 227.8 52.9409 228.045 53.5702 228.536C54.1995 229.027 54.5142 229.683 54.5142 230.504C54.5142 231.091 54.3489 231.597 54.0182 232.024C53.6982 232.44 53.2982 232.749 52.8182 232.952C54.2475 233.475 54.9622 234.392 54.9622 235.704C54.9622 236.365 54.7862 236.947 54.4342 237.448C54.0822 237.949 53.6075 238.333 53.0102 238.6C52.4129 238.867 51.7569 239 51.0422 239H46.6262V227.8ZM50.8502 232.312C52.1729 232.312 52.8342 231.811 52.8342 230.808C52.8342 229.816 52.1729 229.32 50.8502 229.32H48.3542V232.312H50.8502ZM50.8822 237.464C51.6289 237.464 52.2049 237.309 52.6102 237C53.0262 236.691 53.2342 236.237 53.2342 235.64C53.2342 235.043 53.0262 234.595 52.6102 234.296C52.2049 233.987 51.6289 233.832 50.8822 233.832H48.3542V237.464H50.8822ZM58.9142 239.224C58.1249 239.224 57.4849 239 56.9942 238.552C56.5035 238.093 56.2582 237.496 56.2582 236.76C56.2582 236.013 56.5142 235.427 57.0262 235C57.5489 234.573 58.2155 234.296 59.0262 234.168L61.5542 233.768V233.448C61.5542 232.989 61.4102 232.643 61.1222 232.408C60.8449 232.173 60.4395 232.056 59.9062 232.056C59.3835 232.056 58.9729 232.163 58.6742 232.376C58.3862 232.579 58.2422 232.835 58.2422 233.144C58.2422 233.219 58.2529 233.288 58.2742 233.352L56.8182 233.848C56.7329 233.645 56.6902 233.427 56.6902 233.192C56.6902 232.776 56.8182 232.392 57.0742 232.04C57.3409 231.677 57.7195 231.389 58.2102 231.176C58.7009 230.952 59.2662 230.84 59.9062 230.84C60.9729 230.84 61.7889 231.075 62.3542 231.544C62.9302 232.013 63.2182 232.696 63.2182 233.592V237.032C63.2182 237.48 63.2555 237.848 63.3302 238.136C63.4049 238.413 63.5382 238.701 63.7302 239H62.0502C61.7622 238.627 61.6182 238.157 61.6182 237.592C61.3729 238.104 61.0049 238.504 60.5142 238.792C60.0342 239.08 59.5009 239.224 58.9142 239.224ZM59.2662 237.848C59.9489 237.848 60.4982 237.603 60.9142 237.112C61.3409 236.611 61.5542 235.971 61.5542 235.192V234.968L59.3942 235.336C58.9035 235.421 58.5249 235.576 58.2582 235.8C58.0022 236.024 57.8742 236.317 57.8742 236.68C57.8742 237.043 57.9969 237.331 58.2422 237.544C58.4982 237.747 58.8395 237.848 59.2662 237.848ZM65.4417 231.064H67.1057V232.408C67.3937 231.917 67.7777 231.533 68.2577 231.256C68.7377 230.979 69.2604 230.84 69.8257 230.84C70.647 230.84 71.3137 231.085 71.8257 231.576C72.3484 232.056 72.6097 232.728 72.6097 233.592V239H70.9457V234.184C70.9457 233.608 70.791 233.16 70.4817 232.84C70.183 232.52 69.751 232.36 69.1857 232.36C68.8017 232.36 68.4497 232.467 68.1297 232.68C67.8204 232.893 67.5697 233.187 67.3777 233.56C67.1964 233.923 67.1057 234.339 67.1057 234.808V239H65.4417V231.064ZM74.7736 227.8H76.4376V233.768L79.1896 231.064H81.2536L78.3896 233.864L81.6856 239H79.7976L77.2216 235L76.4376 235.768V239H74.7736V227.8ZM88.0512 227.8H91.2672C92.4192 227.8 93.4379 228.019 94.3232 228.456C95.2192 228.883 95.9179 229.517 96.4192 230.36C96.9205 231.203 97.1712 232.216 97.1712 233.4C97.1712 234.584 96.9205 235.597 96.4192 236.44C95.9179 237.283 95.2192 237.923 94.3232 238.36C93.4379 238.787 92.4192 239 91.2672 239H88.0512V227.8ZM91.3152 237.416C92.5739 237.416 93.5712 237.075 94.3072 236.392C95.0539 235.709 95.4272 234.712 95.4272 233.4C95.4272 232.088 95.0539 231.091 94.3072 230.408C93.5712 229.725 92.5739 229.384 91.3152 229.384H89.7792V237.416H91.3152ZM102.727 239.224C102.002 239.224 101.33 239.048 100.711 238.696C100.103 238.344 99.6177 237.848 99.2551 237.208C98.8924 236.568 98.7111 235.843 98.7111 235.032C98.7111 234.221 98.8924 233.501 99.2551 232.872C99.6177 232.232 100.108 231.736 100.727 231.384C101.356 231.021 102.05 230.84 102.807 230.84C103.564 230.84 104.231 231.011 104.807 231.352C105.394 231.683 105.847 232.152 106.167 232.76C106.487 233.357 106.647 234.04 106.647 234.808V235.384H100.311C100.364 236.099 100.615 236.68 101.063 237.128C101.511 237.576 102.076 237.8 102.759 237.8C103.346 237.8 103.831 237.667 104.215 237.4C104.599 237.123 104.924 236.723 105.191 236.2L106.407 236.904C106.023 237.683 105.532 238.264 104.935 238.648C104.338 239.032 103.602 239.224 102.727 239.224ZM105.063 234.088C104.999 233.48 104.754 233.005 104.327 232.664C103.9 232.312 103.378 232.136 102.759 232.136C102.162 232.136 101.644 232.323 101.207 232.696C100.77 233.059 100.482 233.523 100.343 234.088H105.063ZM108.476 231.064H110.14V232.36C110.396 231.923 110.775 231.56 111.276 231.272C111.788 230.984 112.348 230.84 112.956 230.84C113.639 230.84 114.257 231.016 114.812 231.368C115.377 231.709 115.82 232.2 116.14 232.84C116.471 233.469 116.636 234.2 116.636 235.032C116.636 235.843 116.465 236.568 116.124 237.208C115.793 237.837 115.34 238.333 114.764 238.696C114.188 239.048 113.543 239.224 112.828 239.224C112.252 239.224 111.729 239.107 111.26 238.872C110.801 238.627 110.428 238.296 110.14 237.88V242.264H108.476V231.064ZM112.476 237.704C112.945 237.704 113.367 237.592 113.74 237.368C114.124 237.133 114.417 236.813 114.62 236.408C114.833 235.992 114.94 235.533 114.94 235.032C114.94 234.531 114.833 234.077 114.62 233.672C114.417 233.256 114.124 232.936 113.74 232.712C113.367 232.477 112.945 232.36 112.476 232.36C112.007 232.36 111.585 232.477 111.212 232.712C110.839 232.947 110.545 233.267 110.332 233.672C110.119 234.077 110.012 234.531 110.012 235.032C110.012 235.533 110.119 235.987 110.332 236.392C110.545 236.797 110.839 237.117 111.212 237.352C111.585 237.587 112.007 237.704 112.476 237.704ZM122.24 239.224C121.494 239.224 120.795 239.064 120.144 238.744C119.494 238.413 118.971 237.933 118.576 237.304C118.182 236.664 117.984 235.907 117.984 235.032C117.984 234.157 118.182 233.405 118.576 232.776C118.971 232.136 119.494 231.656 120.144 231.336C120.795 231.005 121.494 230.84 122.24 230.84C122.976 230.84 123.67 231.005 124.32 231.336C124.971 231.656 125.494 232.136 125.888 232.776C126.283 233.405 126.48 234.157 126.48 235.032C126.48 235.907 126.283 236.664 125.888 237.304C125.494 237.933 124.971 238.413 124.32 238.744C123.67 239.064 122.976 239.224 122.24 239.224ZM122.24 237.704C122.699 237.704 123.126 237.597 123.52 237.384C123.915 237.16 124.224 236.845 124.448 236.44C124.683 236.035 124.8 235.565 124.8 235.032C124.8 234.499 124.683 234.029 124.448 233.624C124.224 233.219 123.915 232.909 123.52 232.696C123.126 232.472 122.699 232.36 122.24 232.36C121.771 232.36 121.339 232.472 120.944 232.696C120.56 232.909 120.251 233.219 120.016 233.624C119.782 234.029 119.664 234.499 119.664 235.032C119.664 235.565 119.782 236.035 120.016 236.44C120.251 236.845 120.56 237.16 120.944 237.384C121.339 237.597 121.771 237.704 122.24 237.704ZM131.229 239.224C130.343 239.224 129.607 239.005 129.021 238.568C128.445 238.131 128.013 237.565 127.725 236.872L129.069 236.04C129.25 236.595 129.527 237.032 129.901 237.352C130.274 237.672 130.727 237.832 131.261 237.832C131.687 237.832 132.039 237.731 132.317 237.528C132.605 237.315 132.749 237.037 132.749 236.696C132.749 236.376 132.599 236.125 132.301 235.944C132.013 235.752 131.543 235.597 130.893 235.48C130.071 235.32 129.41 235.043 128.909 234.648C128.418 234.253 128.173 233.72 128.173 233.048C128.173 232.365 128.445 231.827 128.989 231.432C129.543 231.037 130.221 230.84 131.021 230.84C131.842 230.84 132.503 231.005 133.005 231.336C133.506 231.656 133.906 232.147 134.205 232.808L132.989 233.528C132.807 233.069 132.546 232.717 132.205 232.472C131.874 232.216 131.49 232.088 131.053 232.088C130.647 232.088 130.311 232.168 130.045 232.328C129.778 232.477 129.645 232.696 129.645 232.984C129.645 233.293 129.81 233.549 130.141 233.752C130.482 233.955 130.983 234.12 131.645 234.248C132.541 234.429 133.202 234.712 133.629 235.096C134.066 235.469 134.285 235.987 134.285 236.648C134.285 237.117 134.162 237.549 133.917 237.944C133.682 238.339 133.33 238.653 132.861 238.888C132.402 239.112 131.858 239.224 131.229 239.224ZM136.034 231.064H137.698V239H136.034V231.064ZM135.938 227.96H137.81V229.8H135.938V227.96ZM142.951 239.224C142.257 239.224 141.697 239.037 141.271 238.664C140.844 238.28 140.631 237.667 140.631 236.824V232.392H139.351V231.064H140.631V228.92H142.279V231.064H144.087V232.392H142.279V236.584C142.279 237.373 142.631 237.768 143.335 237.768C143.548 237.768 143.761 237.736 143.975 237.672L144.135 239.032C143.772 239.16 143.377 239.224 142.951 239.224Z" fill="#F6F4F4"/>
<defs>
<filter id="filter0_b_1_2542" x="15.333" y="174" width="139.333" height="40" filterUnits="userSpaceOnUse" color-interpolation-filters="sRGB">
<feFlood flood-opacity="0" result="BackgroundImageFix"/>
<feGaussianBlur in="BackgroundImageFix" stdDeviation="3"/>
<feComposite in2="SourceAlpha" operator="in" result="effect1_backgroundBlur_1_2542"/>
<feBlend mode="normal" in="SourceGraphic" in2="effect1_backgroundBlur_1_2542" result="shape"/>
</filter>
<filter id="filter1_b_1_2542" x="166.666" y="149" width="139.333" height="65" filterUnits="userSpaceOnUse" color-interpolation-filters="sRGB">
<feFlood flood-opacity="0" result="BackgroundImageFix"/>
<feGaussianBlur in="BackgroundImageFix" stdDeviation="3"/>
<feComposite in2="SourceAlpha" operator="in" result="effect1_backgroundBlur_1_2542"/>
<feBlend mode="normal" in="SourceGraphic" in2="effect1_backgroundBlur_1_2542" result="shape"/>
</filter>
<filter id="filter2_b_1_2542" x="318" y="106" width="139.333" height="108" filterUnits="userSpaceOnUse" color-interpolation-filters="sRGB">
<feFlood flood-opacity="0" result="BackgroundImageFix"/>
<feGaussianBlur in="BackgroundImageFix" stdDeviation="3"/>
<feComposite in2="SourceAlpha" operator="in" result="effect1_backgroundBlur_1_2542"/>
<feBlend mode="normal" in="SourceGraphic" in2="effect1_backgroundBlur_1_2542" result="shape"/>
</filter>
</defs>
</svg>
