<svg width="40" height="40" viewBox="0 0 40 40" fill="none" xmlns="http://www.w3.org/2000/svg">
<path d="M16.25 32.5H8.75C8.08696 32.5 7.45107 32.2366 6.98223 31.7678C6.51339 31.2989 6.25 30.663 6.25 30V17.5" stroke="#02636C" stroke-width="1.5" stroke-linecap="round" stroke-linejoin="round"/>
<path d="M1.25 15L15.885 2.61668C16.3364 2.23466 16.9086 2.02502 17.5 2.02502C18.0914 2.02502 18.6636 2.23466 19.115 2.61668L31.2817 12.9117" stroke="#02636C" stroke-width="1.5" stroke-linecap="round" stroke-linejoin="round"/>
<path d="M26.25 2.5H31.25V7.5" stroke="#02636C" stroke-width="1.5" stroke-linecap="round" stroke-linejoin="round"/>
<path d="M17.6017 17.9083L26.295 36.8967C26.401 37.0944 26.5632 37.2563 26.761 37.3621C26.9589 37.4678 27.1836 37.5126 27.4069 37.4909C27.6302 37.4692 27.8421 37.3818 28.0158 37.2399C28.1896 37.098 28.3175 36.9078 28.3833 36.6934L30.9283 29.6783L37.9433 27.1334C38.1578 27.0675 38.348 26.9396 38.4899 26.7659C38.6318 26.5921 38.7192 26.3802 38.7409 26.1569C38.7626 25.9336 38.7178 25.7089 38.6121 25.511C38.5063 25.3132 38.3444 25.151 38.1467 25.045L19.1667 16.3517C18.9486 16.26 18.7082 16.2352 18.476 16.2804C18.2439 16.3257 18.0303 16.4389 17.8626 16.6057C17.6949 16.7725 17.5806 16.9854 17.5341 17.2173C17.4876 17.4493 17.5112 17.6898 17.6017 17.9083Z" stroke="#15BEB6" stroke-width="1.5" stroke-linecap="round" stroke-linejoin="round"/>
</svg>
