<svg width="16" height="16" viewBox="0 0 16 16" fill="none" xmlns="http://www.w3.org/2000/svg">
<g clip-path="url(#clip0_2453_73401)">
<path d="M8.5 9.22949H15.5L15.0573 11.8868C14.9017 12.8209 14.4197 13.6695 13.6972 14.2816C12.9746 14.8937 12.0583 15.2296 11.1113 15.2295H4.88867C3.94169 15.2296 3.0254 14.8937 2.30283 14.2816C1.58026 13.6695 1.09829 12.8209 0.942667 11.8868L0.5 9.22949H3.5" stroke="#404657" stroke-width="0.8" stroke-linecap="round" stroke-linejoin="round"/>
<path d="M8 13.2295H4C3.86739 13.2295 3.74021 13.1768 3.64645 13.083C3.55268 12.9893 3.5 12.8621 3.5 12.7295V9.22949C3.5 8.96428 3.60536 8.70992 3.79289 8.52239C3.98043 8.33485 4.23478 8.22949 4.5 8.22949H7.5C7.76522 8.22949 8.01957 8.33485 8.20711 8.52239C8.39464 8.70992 8.5 8.96428 8.5 9.22949V12.7295C8.5 12.8621 8.44732 12.9893 8.35355 13.083C8.25979 13.1768 8.13261 13.2295 8 13.2295Z" stroke="#404657" stroke-width="0.8" stroke-linecap="round" stroke-linejoin="round"/>
<path d="M10.5 2.22949C10.5 1.69906 10.7107 1.19035 11.0858 0.815279C11.4609 0.440206 11.9696 0.229492 12.5 0.229492C13.0304 0.229492 13.5391 0.440206 13.9142 0.815279C14.2893 1.19035 14.5 1.69906 14.5 2.22949V9.22949" stroke="#404657" stroke-width="0.8" stroke-linecap="round" stroke-linejoin="round"/>
<path d="M8.5 4.22949C8.5 3.69906 8.71071 3.19035 9.08579 2.81528C9.46086 2.44021 9.96957 2.22949 10.5 2.22949C11.0304 2.22949 11.5391 2.44021 11.9142 2.81528C12.2893 3.19035 12.5 3.69906 12.5 4.22949H8.5Z" stroke="#404657" stroke-width="0.8" stroke-linecap="round" stroke-linejoin="round"/>
</g>
<defs>
<clipPath id="clip0_2453_73401">
<rect width="16" height="16" fill="white"/>
</clipPath>
</defs>
</svg>
