<svg width="36" height="36" viewBox="0 0 36 36" fill="none" xmlns="http://www.w3.org/2000/svg">
<g clip-path="url(#clip0_2746_74814)">
<path d="M16.173 15.7693C14.5035 14.2968 12.3511 13.4892 10.125 13.4998C7.92076 13.4825 5.78682 14.2748 4.1279 15.7263C2.46899 17.1779 1.40047 19.1878 1.125 21.3748" stroke="#02636C" stroke-width="1.5" stroke-linecap="round" stroke-linejoin="round"/>
<path d="M10.125 11.25C12.9209 11.25 15.1875 8.98344 15.1875 6.1875C15.1875 3.39156 12.9209 1.125 10.125 1.125C7.32906 1.125 5.0625 3.39156 5.0625 6.1875C5.0625 8.98344 7.32906 11.25 10.125 11.25Z" stroke="#02636C" stroke-width="1.5" stroke-linecap="round" stroke-linejoin="round"/>
<path d="M24.75 9C26.9246 9 28.6875 7.23712 28.6875 5.0625C28.6875 2.88788 26.9246 1.125 24.75 1.125C22.5754 1.125 20.8125 2.88788 20.8125 5.0625C20.8125 7.23712 22.5754 9 24.75 9Z" stroke="#02636C" stroke-width="1.5" stroke-linecap="round" stroke-linejoin="round"/>
<path d="M30.6004 13.4998C30.0633 12.5703 29.3123 11.7822 28.4097 11.2011C27.5071 10.6199 26.4788 10.2624 25.4104 10.1583C24.3419 10.0542 23.264 10.2064 22.2661 10.6023C21.2683 10.9982 20.3793 11.6265 19.6729 12.4348" stroke="#02636C" stroke-width="1.5" stroke-linecap="round" stroke-linejoin="round"/>
<path d="M34.875 23.625L30.375 25.125V23.625C30.375 23.0283 30.1379 22.456 29.716 22.034C29.294 21.6121 28.7217 21.375 28.125 21.375H19.125C18.5283 21.375 17.956 21.6121 17.534 22.034C17.1121 22.456 16.875 23.0283 16.875 23.625V32.625C16.875 33.2217 17.1121 33.794 17.534 34.216C17.956 34.6379 18.5283 34.875 19.125 34.875H28.125C28.7217 34.875 29.294 34.6379 29.716 34.216C30.1379 33.794 30.375 33.2217 30.375 32.625V31.125L34.875 32.625V23.625Z" stroke="#15BEB6" stroke-width="1.5" stroke-linecap="round" stroke-linejoin="round"/>
</g>
<defs>
<clipPath id="clip0_2746_74814">
<rect width="36" height="36" fill="white"/>
</clipPath>
</defs>
</svg>
