<svg width="36" height="36" viewBox="0 0 36 36" fill="none" xmlns="http://www.w3.org/2000/svg">
<g clip-path="url(#clip0_2746_74799)">
<path d="M13.75 29.25H3.75C3.08696 29.25 2.45107 28.9866 1.98223 28.5178C1.51339 28.0489 1.25 27.413 1.25 26.75V6.75C1.25 6.08696 1.51339 5.45107 1.98223 4.98223C2.45107 4.51339 3.08696 4.25 3.75 4.25H26.25C26.913 4.25 27.5489 4.51339 28.0178 4.98223C28.4866 5.45107 28.75 6.08696 28.75 6.75V14.25" stroke="#02636C" stroke-width="1.5" stroke-linecap="round" stroke-linejoin="round"/>
<path d="M1.25 11.75H28.75" stroke="#02636C" stroke-width="1.5" stroke-linejoin="round"/>
<path d="M8.75 6.75V1.75" stroke="#02636C" stroke-width="1.5" stroke-linecap="round" stroke-linejoin="round"/>
<path d="M21.25 6.75V1.75" stroke="#02636C" stroke-width="1.5" stroke-linecap="round" stroke-linejoin="round"/>
<path d="M30.7969 28.8115L29.3077 30.3008C27.9537 31.6549 26.4555 32.8566 24.8398 33.8845H24.8313C24.0759 34.3653 23.1791 34.5741 22.289 34.4766C21.3989 34.379 20.5686 33.9808 19.9353 33.3478L19.384 32.7965C19.1381 32.5504 19 32.2167 19 31.8688C19 31.521 19.1381 31.1873 19.384 30.9412L21.7015 28.6237C21.9475 28.3778 22.2812 28.2397 22.6291 28.2397C22.9769 28.2397 23.3106 28.3778 23.5567 28.6237C23.803 28.8696 24.1368 29.0078 24.4849 29.0078C24.8329 29.0078 25.1668 28.8696 25.4131 28.6237L29.1235 24.9132C29.2455 24.7914 29.3424 24.6467 29.4085 24.4875C29.4746 24.3282 29.5086 24.1574 29.5086 23.985C29.5086 23.8125 29.4746 23.6418 29.4085 23.4825C29.3424 23.3232 29.2455 23.1785 29.1235 23.0567C28.8776 22.8107 28.7395 22.477 28.7395 22.1291C28.7395 21.7813 28.8776 21.4476 29.1235 21.2015L31.4409 18.884C31.687 18.6381 32.0207 18.5 32.3685 18.5C32.7164 18.5 33.0501 18.6381 33.2962 18.884L33.8475 19.4353C34.4807 20.0685 34.879 20.8988 34.9766 21.789C35.0741 22.6792 34.8652 23.576 34.3841 24.3314V24.3411C33.355 25.9577 32.1521 27.4567 30.7969 28.8115Z" stroke="#15BEB6" stroke-width="1.5" stroke-linecap="round" stroke-linejoin="round"/>
</g>
<defs>
<clipPath id="clip0_2746_74799">
<rect width="36" height="35" fill="white" transform="translate(0 0.5)"/>
</clipPath>
</defs>
</svg>
