<svg width="32" height="32" viewBox="0 0 32 32" fill="none" xmlns="http://www.w3.org/2000/svg">
<g clip-path="url(#clip0_1_2608)">
<path d="M25.5559 25.9373L18.5706 27.3347" stroke="#15BEB6" stroke-width="2" stroke-linecap="round" stroke-linejoin="round"/>
<path d="M19.3334 19.444L16.0374 20.8C15.5271 21.0003 14.9594 20.9965 14.4519 20.7894C13.9444 20.5823 13.5361 20.1879 13.3116 19.6878C13.0871 19.1878 13.0638 18.6205 13.2463 18.1037C13.4288 17.5869 13.8033 17.1601 14.292 16.912L17.5854 15.312C17.9438 15.1331 18.335 15.029 18.735 15.0061C19.135 14.9832 19.5354 15.0419 19.912 15.1787L25.924 17.48" stroke="#15BEB6" stroke-width="2" stroke-linecap="round" stroke-linejoin="round"/>
<path d="M6 27.444H8.48667L12.628 30.5933C12.8363 30.8278 13.1272 30.9726 13.4398 30.9974C13.7525 31.0223 14.0626 30.9253 14.3053 30.7266L20.52 25.7333C20.7654 25.5321 20.9224 25.243 20.9575 24.9276C20.9927 24.6122 20.9031 24.2956 20.708 24.0453L17.2907 20.2813" stroke="#15BEB6" stroke-width="2" stroke-linecap="round" stroke-linejoin="round"/>
<path d="M14.0187 17.0893L13.5733 16.7226C13.216 16.4593 12.7974 16.2915 12.3572 16.235C11.9169 16.1785 11.4695 16.2353 11.0573 16.4L6 18.556" stroke="#15BEB6" stroke-width="2" stroke-linecap="round" stroke-linejoin="round"/>
<path d="M1.55591 29.2227H4.22257C4.45609 29.2227 4.68732 29.1767 4.90304 29.0873C5.11876 28.9979 5.31475 28.8668 5.47981 28.7016C5.64487 28.5365 5.77576 28.3404 5.865 28.1246C5.95424 27.9088 6.00008 27.6775 5.99991 27.444V18.556C6.00008 18.3225 5.95424 18.0912 5.865 17.8754C5.77576 17.6597 5.64487 17.4636 5.47981 17.2984C5.31475 17.1332 5.11876 17.0022 4.90304 16.9128C4.68732 16.8234 4.45609 16.7773 4.22257 16.7773H1.55591" stroke="#15BEB6" stroke-width="2" stroke-linecap="round" stroke-linejoin="round"/>
<path d="M29.9999 29.2227H27.3332C27.0997 29.2227 26.8685 29.1767 26.6528 29.0873C26.4371 28.9979 26.2411 28.8668 26.076 28.7016C25.9109 28.5365 25.7801 28.3404 25.6908 28.1246C25.6016 27.9088 25.5557 27.6775 25.5559 27.444V18.556C25.5557 18.3225 25.6016 18.0912 25.6908 17.8754C25.7801 17.6597 25.9109 17.4636 26.076 17.2984C26.2411 17.1332 26.4371 17.0022 26.6528 16.9128C26.8685 16.8234 27.0997 16.7773 27.3332 16.7773H29.9999" stroke="#15BEB6" stroke-width="2" stroke-linecap="round" stroke-linejoin="round"/>
<path d="M28.7773 12L15.7773 1L2.77734 12" stroke="#02636C" stroke-width="2" stroke-linecap="round" stroke-linejoin="round"/>
<path d="M22.7773 2H26.7773V6" stroke="#02636C" stroke-width="2" stroke-linecap="round" stroke-linejoin="round"/>
</g>
<defs>
<clipPath id="clip0_1_2608">
<rect width="32" height="32" fill="white"/>
</clipPath>
</defs>
</svg>
