<svg width="32" height="32" viewBox="0 0 32 32" fill="none" xmlns="http://www.w3.org/2000/svg">
<g clip-path="url(#clip0_1_2596)">
<path d="M31 23C31 24.5823 30.5308 26.129 29.6518 27.4446C28.7727 28.7602 27.5233 29.7855 26.0615 30.391C24.5997 30.9965 22.9911 31.155 21.4393 30.8463C19.8874 30.5376 18.462 29.7757 17.3431 28.6569C16.2243 27.538 15.4624 26.1126 15.1537 24.5607C14.845 23.0089 15.0035 21.4003 15.609 19.9385C16.2145 18.4767 17.2398 17.2273 18.5554 16.3482C19.871 15.4692 21.4178 15 23 15" stroke="#15BEB6" stroke-width="2" stroke-linecap="round" stroke-linejoin="round"/>
<path d="M31 17L23.7067 24.292C23.6139 24.3849 23.5038 24.4586 23.3825 24.5089C23.2612 24.5591 23.1313 24.585 23 24.585C22.8687 24.585 22.7388 24.5591 22.6175 24.5089C22.4962 24.4586 22.3861 24.3849 22.2933 24.292L20 22" stroke="#15BEB6" stroke-width="2" stroke-linecap="round" stroke-linejoin="round"/>
<path d="M14.0001 31H2.99609C2.46566 31 1.95695 30.7893 1.58188 30.4142C1.20681 30.0391 0.996094 29.5304 0.996094 29V3C0.996094 2.46957 1.20681 1.96086 1.58188 1.58579C1.95695 1.21071 2.46566 1 2.99609 1H24.0001C24.5305 1 25.0392 1.21071 25.4143 1.58579C25.7894 1.96086 26.0001 2.46957 26.0001 3V13" stroke="#02636C" stroke-width="2" stroke-linecap="round" stroke-linejoin="round"/>
<path d="M11.988 17.7053H7.98804C7.72282 17.7053 7.46847 17.6 7.28093 17.4124C7.09339 17.2249 6.98804 16.9705 6.98804 16.7053V13.7053" stroke="#02636C" stroke-width="2" stroke-linecap="round" stroke-linejoin="round"/>
<path d="M4.98804 10.7053L10.988 5.70532L16.988 10.7053" stroke="#02636C" stroke-width="2" stroke-linecap="round" stroke-linejoin="round"/>
</g>
<defs>
<clipPath id="clip0_1_2596">
<rect width="32" height="32" fill="white"/>
</clipPath>
</defs>
</svg>
