<svg width="16" height="16" viewBox="0 0 16 16" fill="none" xmlns="http://www.w3.org/2000/svg">
<path d="M4.44444 0C1.99022 0 0 1.99022 0 4.44444V11.5556C0 14.0098 1.99022 16 4.44444 16H11.5556C14.0098 16 16 14.0098 16 11.5556V4.44444C16 1.99022 14.0098 0 11.5556 0H4.44444ZM13.3333 1.77778C13.824 1.77778 14.2222 2.176 14.2222 2.66667C14.2222 3.15733 13.824 3.55556 13.3333 3.55556C12.8427 3.55556 12.4444 3.15733 12.4444 2.66667C12.4444 2.176 12.8427 1.77778 13.3333 1.77778ZM8 3.55556C10.4542 3.55556 12.4444 5.54578 12.4444 8C12.4444 10.4542 10.4542 12.4444 8 12.4444C5.54578 12.4444 3.55556 10.4542 3.55556 8C3.55556 5.54578 5.54578 3.55556 8 3.55556ZM8 5.33333C7.29276 5.33333 6.61448 5.61428 6.11438 6.11438C5.61428 6.61448 5.33333 7.29276 5.33333 8C5.33333 8.70724 5.61428 9.38552 6.11438 9.88562C6.61448 10.3857 7.29276 10.6667 8 10.6667C8.70724 10.6667 9.38552 10.3857 9.88562 9.88562C10.3857 9.38552 10.6667 8.70724 10.6667 8C10.6667 7.29276 10.3857 6.61448 9.88562 6.11438C9.38552 5.61428 8.70724 5.33333 8 5.33333Z" fill="#A8ACB7"/>
</svg>
