<svg width="32" height="40" viewBox="0 0 32 40" fill="none" xmlns="http://www.w3.org/2000/svg">
<path fill-rule="evenodd" clip-rule="evenodd" d="M22.3168 32.0405C26.5585 27.7336 31.2491 22.9708 31.2491 15.3846C31.2491 11.3044 29.6029 7.39123 26.6727 4.50605C23.7424 1.62087 19.7682 0 15.6241 0C11.4801 0 7.50586 1.62087 4.5756 4.50605C1.64535 7.39123 -0.000854492 11.3044 -0.000854492 15.3846C-0.000854492 22.9778 4.69916 27.7477 8.94313 32.0548C9.54313 32.6637 10.134 33.2634 10.7012 33.8605C12.4936 35.7847 14.1391 37.8368 15.6241 40C17.1144 37.8328 18.764 35.776 20.5596 33.8462C21.1267 33.2489 21.7172 32.6493 22.3168 32.0405ZM21.2491 14.8558C21.2491 17.9624 18.7307 20.4808 15.6241 20.4808C12.5175 20.4808 9.99915 17.9624 9.99915 14.8558C9.99915 11.7492 12.5175 9.23077 15.6241 9.23077C18.7307 9.23077 21.2491 11.7492 21.2491 14.8558Z" fill="#15BEB6"/>
</svg>
