<svg width="17" height="18" viewBox="0 0 17 18" fill="none" xmlns="http://www.w3.org/2000/svg">
<g clip-path="url(#clip0_2453_73408)">
<path d="M14.5465 6.17438L6.54684 6.2429C5.99457 6.24763 5.55071 6.69916 5.55544 7.25143L5.62396 15.2511C5.62869 15.8034 6.08023 16.2473 6.63249 16.2425L14.6322 16.174C15.1845 16.1693 15.6283 15.7177 15.6236 15.1655L15.5551 7.16578C15.5503 6.61351 15.0988 6.16965 14.5465 6.17438Z" stroke="#404657" stroke-width="0.8" stroke-linecap="round" stroke-linejoin="round"/>
<path d="M5.57263 9.25098L8.07254 9.22956" stroke="#404657" stroke-width="0.8" stroke-linecap="round" stroke-linejoin="round"/>
<path d="M5.6156 14.251L8.61549 14.2253L8.63262 16.2252" stroke="#404657" stroke-width="0.8" stroke-linecap="round" stroke-linejoin="round"/>
<path d="M12.6064 13.1909L15.6063 13.1652" stroke="#404657" stroke-width="0.8" stroke-linecap="round" stroke-linejoin="round"/>
<path d="M15.5678 8.66573L12.0679 8.69571L12.0465 6.1958" stroke="#404657" stroke-width="0.8" stroke-linecap="round" stroke-linejoin="round"/>
<path d="M10.0468 6.21247L10.0939 11.7123L7.59398 11.7337" stroke="#404657" stroke-width="0.8" stroke-linecap="round" stroke-linejoin="round"/>
<path d="M2.02991 4.28125L2.13269 16.2808" stroke="#404657" stroke-width="0.8" stroke-linecap="round" stroke-linejoin="round"/>
<path d="M0.619751 14.7939L2.13254 16.281L3.61964 14.7682" stroke="#404657" stroke-width="0.8" stroke-linecap="round" stroke-linejoin="round"/>
<path d="M3.54265 5.76868L2.02985 4.28159L0.542755 5.79438" stroke="#404657" stroke-width="0.8" stroke-linecap="round" stroke-linejoin="round"/>
<path d="M15.5165 2.66577L3.51697 2.76855" stroke="#404657" stroke-width="0.8" stroke-linecap="round" stroke-linejoin="round"/>
<path d="M5.00422 1.25571L3.51712 2.7685L5.02991 4.2556" stroke="#404657" stroke-width="0.8" stroke-linecap="round" stroke-linejoin="round"/>
<path d="M14.0296 4.1786L15.5167 2.66581L14.0039 1.17871" stroke="#404657" stroke-width="0.8" stroke-linecap="round" stroke-linejoin="round"/>
<path d="M12.5938 11.6909L12.6323 16.1908" stroke="#404657" stroke-width="0.8" stroke-linecap="round" stroke-linejoin="round"/>
</g>
<defs>
<clipPath id="clip0_2453_73408">
<rect width="16" height="16" fill="white" transform="translate(0 1.06885) rotate(-0.490752)"/>
</clipPath>
</defs>
</svg>
