<svg width="21" height="20" viewBox="0 0 21 20" fill="none" xmlns="http://www.w3.org/2000/svg">
<g clip-path="url(#clip0_3423_83895)">
<path d="M11.1213 18.4711L11.1296 18.4769C11.8497 18.9354 12.7046 19.1345 13.5531 19.0413C14.4016 18.9481 15.1929 18.5682 15.7963 17.9644L16.3204 17.4402C16.4366 17.3241 16.5287 17.1863 16.5916 17.0346C16.6545 16.8829 16.6868 16.7203 16.6868 16.5561C16.6868 16.3918 16.6545 16.2292 16.5916 16.0775C16.5287 15.9258 16.4366 15.788 16.3204 15.6719L14.1113 13.4627C13.9952 13.3466 13.8574 13.2544 13.7056 13.1916C13.5539 13.1287 13.3913 13.0963 13.2271 13.0963C13.0629 13.0963 12.9003 13.1287 12.7486 13.1916C12.5969 13.2544 12.459 13.3466 12.3429 13.4627C12.1085 13.6971 11.7906 13.8287 11.4592 13.8287C11.1277 13.8287 10.8099 13.6971 10.5754 13.4627L7.03878 9.9269C6.80444 9.69249 6.67279 9.37461 6.67279 9.04315C6.67279 8.7117 6.80444 8.39381 7.03878 8.1594C7.15493 8.04332 7.24708 7.90548 7.30995 7.75377C7.37282 7.60206 7.40518 7.43945 7.40518 7.27523C7.40518 7.11101 7.37282 6.9484 7.30995 6.7967C7.24708 6.64499 7.15493 6.50715 7.03878 6.39107L4.82878 4.1819C4.59437 3.94756 4.27648 3.81592 3.94503 3.81592C3.61357 3.81592 3.29569 3.94756 3.06128 4.1819L2.53628 4.70607C1.9326 5.30955 1.55288 6.10093 1.45985 6.94943C1.36681 7.79793 1.56604 8.65278 2.02461 9.37273L2.02961 9.38107C4.45143 12.9642 7.53768 16.0499 11.1213 18.4711Z" stroke="#02636C" stroke-width="1.5" stroke-linecap="round" stroke-linejoin="round"/>
<path d="M11.4375 9.0625L19.5625 0.9375" stroke="#15BEB6" stroke-width="1.5" stroke-linecap="round" stroke-linejoin="round"/>
<path d="M16.4375 9.0625H11.4375V4.0625" stroke="#15BEB6" stroke-width="1.5" stroke-linecap="round" stroke-linejoin="round"/>
</g>
<defs>
<clipPath id="clip0_3423_83895">
<rect width="20" height="20" fill="white" transform="translate(0.5)"/>
</clipPath>
</defs>
</svg>
