<svg width="25" height="24" viewBox="0 0 25 24" fill="none" xmlns="http://www.w3.org/2000/svg">
<g clip-path="url(#clip0_1_2180)">
<path d="M12.519 13.631C11.6194 12.9032 10.8862 11.9911 10.3687 10.9562C9.85124 9.9212 9.56151 8.78737 9.51904 7.63101C9.54745 6.58836 9.78171 5.56161 10.2084 4.60982C10.635 3.65803 11.2456 2.79998 12.005 2.08501C12.1424 1.95034 12.3272 1.87491 12.5195 1.87491C12.7119 1.87491 12.8967 1.95034 13.034 2.08501C13.7931 2.8002 14.4034 3.65832 14.8299 4.61008C15.2563 5.56183 15.4905 6.58847 15.519 7.63101C15.4766 8.78737 15.1868 9.9212 14.6694 10.9562C14.1519 11.9911 13.4186 12.9032 12.519 13.631V13.631Z" stroke="#7E869B" stroke-width="1.2" stroke-linecap="round" stroke-linejoin="round"/>
<path d="M15.44 6.58099C16.8727 5.60657 18.5674 5.09013 20.3 5.09999C20.4976 5.10025 20.687 5.17863 20.8269 5.31801C20.9669 5.4574 21.046 5.64648 21.047 5.84399C21.0767 6.88388 20.9008 7.91938 20.5294 8.89115C20.1581 9.86293 19.5986 10.7519 18.883 11.507C18.0353 12.2946 17.0287 12.8914 15.9309 13.2573C14.8332 13.6231 13.6698 13.7495 12.519 13.628" stroke="#7E869B" stroke-width="1.2" stroke-linecap="round" stroke-linejoin="round"/>
<path d="M9.60001 6.59201C8.1594 5.60172 6.44805 5.08064 4.70001 5.10001C4.50223 5.1 4.31247 5.17823 4.17215 5.31762C4.03182 5.457 3.95233 5.64623 3.95101 5.84401C3.9206 6.88419 4.09583 7.92013 4.46667 8.89244C4.8375 9.86474 5.39664 10.7543 6.11201 11.51C6.96767 12.2989 7.98178 12.8961 9.08663 13.2619C10.1915 13.6276 11.3617 13.7535 12.519 13.631" stroke="#7E869B" stroke-width="1.2" stroke-linecap="round" stroke-linejoin="round"/>
<path d="M20 14.625C20 16.696 16.642 18.375 12.5 18.375C8.358 18.375 5 16.7 5 14.625" stroke="#7E869B" stroke-width="1.2" stroke-linecap="round" stroke-linejoin="round"/>
<path d="M22.8097 11.6221C23.4109 12.5079 23.7372 13.5515 23.7477 14.6221C23.7477 18.7641 18.7107 22.1221 12.4977 22.1221C6.28468 22.1221 1.24768 18.7671 1.24768 14.6251C1.25769 13.5548 1.58329 12.5112 2.18368 11.6251" stroke="#7E869B" stroke-width="1.2" stroke-linecap="round" stroke-linejoin="round"/>
</g>
<defs>
<clipPath id="clip0_1_2180">
<rect width="24" height="24" fill="white" transform="translate(0.5)"/>
</clipPath>
</defs>
</svg>
