<svg width="25" height="24" viewBox="0 0 25 24" fill="none" xmlns="http://www.w3.org/2000/svg">
<g clip-path="url(#clip0_1_2127)">
<path d="M8.75 7.5L15.1 11.387C15.2089 11.4536 15.3334 11.4904 15.461 11.4938C15.5887 11.4972 15.7149 11.467 15.8272 11.4063C15.9395 11.3455 16.0339 11.2563 16.1009 11.1477C16.1679 11.039 16.2052 10.9146 16.209 10.787C16.2983 9.96508 16.1371 9.13534 15.7465 8.40669C15.3558 7.67804 14.754 7.08451 14.02 6.704C13.3872 6.38824 12.7032 6.18778 12 6.112" stroke="#7E869B" stroke-width="1.2" stroke-linecap="round" stroke-linejoin="round"/>
<path d="M8.75 7.50001H2C1.87955 7.49407 1.7622 7.45988 1.6574 7.40021C1.55261 7.34054 1.46332 7.25706 1.39674 7.15651C1.33016 7.05596 1.28817 6.94116 1.27414 6.82139C1.26011 6.70162 1.27445 6.58022 1.316 6.46701C1.62074 5.66816 2.16395 4.98245 2.87186 4.503C3.57978 4.02354 4.4181 3.77356 5.273 3.78701C6.19696 3.81235 7.09997 4.06809 7.9 4.53102" stroke="#7E869B" stroke-width="1.2" stroke-linecap="round" stroke-linejoin="round"/>
<path d="M13.3636 6.42903L16.6726 4.45903C16.7643 4.40611 16.8419 4.33165 16.8985 4.24208C16.955 4.15251 16.989 4.05051 16.9974 3.9449C17.0057 3.83928 16.9883 3.73321 16.9465 3.63585C16.9047 3.53848 16.8399 3.45275 16.7576 3.38603C16.1545 2.8742 15.421 2.54019 14.639 2.42134C13.8571 2.30249 13.0574 2.40348 12.3296 2.71303C11.6761 3.00635 11.1381 3.50778 10.7996 4.13903" stroke="#7E869B" stroke-width="1.2" stroke-linecap="round" stroke-linejoin="round"/>
<path d="M6.40704 3.93898L5.21204 1.71998C5.15674 1.6183 5.12933 1.50379 5.13258 1.38809C5.13584 1.27239 5.16965 1.15961 5.23059 1.0612C5.29152 0.962792 5.37741 0.882257 5.47953 0.827772C5.58165 0.773288 5.69637 0.746793 5.81204 0.750978C6.55067 0.79509 7.28336 0.909949 8.00004 1.09398C8.67973 1.33613 9.29041 1.73978 9.77955 2.2702C10.2687 2.80063 10.6216 3.44194 10.808 4.13898" stroke="#7E869B" stroke-width="1.2" stroke-linecap="round" stroke-linejoin="round"/>
<path d="M23.75 20.25H14.883C14.6153 20.2501 14.3525 20.1786 14.1218 20.0428C13.8911 19.9071 13.7009 19.712 13.571 19.478L11 14.25" stroke="#7E869B" stroke-width="1.2" stroke-linecap="round" stroke-linejoin="round"/>
<path d="M20.7523 20.25L21.5023 23.25" stroke="#7E869B" stroke-width="1.2" stroke-linecap="round" stroke-linejoin="round"/>
<path d="M14.1103 20.0339L12.5023 23.2499" stroke="#7E869B" stroke-width="1.2" stroke-linecap="round" stroke-linejoin="round"/>
<path d="M12.1074 16.5H17.0004" stroke="#7E869B" stroke-width="1.2" stroke-linecap="round" stroke-linejoin="round"/>
<path d="M1.25 23.25C1.367 21.258 1.34 12.828 8 7.5" stroke="#7E869B" stroke-width="1.2" stroke-linecap="round" stroke-linejoin="round"/>
<path d="M8.75002 7.5C6.67333 12.4734 5.89894 17.8941 6.50002 23.25" stroke="#7E869B" stroke-width="1.2" stroke-linecap="round" stroke-linejoin="round"/>
</g>
<defs>
<clipPath id="clip0_1_2127">
<rect width="24" height="24" fill="white" transform="translate(0.5)"/>
</clipPath>
</defs>
</svg>
