<svg width="31" height="24" viewBox="0 0 31 24" fill="none" xmlns="http://www.w3.org/2000/svg">
<g clip-path="url(#clip0_3423_83884)">
<path d="M17.417 11.9998L20.2603 15.2498L24.0837 17.6931L24.7503 12.0198L24.0837 6.47314L20.187 8.61981L17.417 11.9998Z" fill="#00832D"/>
<path d="M0.916992 17.1665V21.9998C0.916992 23.1048 1.81199 23.9998 2.91699 23.9998H7.75033L8.75033 20.3465L7.75033 17.1665L4.43366 16.1665L0.916992 17.1665Z" fill="#0066DA"/>
<path d="M7.75033 0L0.916992 6.83333L4.43366 7.83333L7.75033 6.83333L8.73366 3.69667L7.75033 0Z" fill="#E94235"/>
<path d="M7.75033 6.8335H0.916992V17.1668H7.75033V6.8335Z" fill="#2684FC"/>
<path d="M28.45 2.89322L24.0833 6.47322V17.6932L28.47 21.2899C29.1267 21.8032 30.0867 21.3349 30.0867 20.4999V3.66655C30.0867 2.82155 29.105 2.35822 28.45 2.89322ZM17.4167 11.9999V17.1666H7.75V23.9999H22.0833C23.1883 23.9999 24.0833 23.1049 24.0833 21.9999V17.6932L17.4167 11.9999Z" fill="#00AC47"/>
<path d="M22.0833 0H7.75V6.83333H17.4167V12L24.0833 6.47667V2C24.0833 0.895 23.1883 0 22.0833 0Z" fill="#FFBA00"/>
</g>
<defs>
<clipPath id="clip0_3423_83884">
<rect width="29.1667" height="24" fill="white" transform="translate(0.916992)"/>
</clipPath>
</defs>
</svg>
