<svg width="25" height="24" viewBox="0 0 25 24" fill="none" xmlns="http://www.w3.org/2000/svg">
<g clip-path="url(#clip0_3423_83880)">
<path d="M12.5 24C19.1274 24 24.5 18.6274 24.5 12C24.5 5.37259 19.1274 0 12.5 0C5.87259 0 0.5 5.37259 0.5 12C0.5 18.6274 5.87259 24 12.5 24Z" fill="#34AADF"/>
<path d="M5.49383 11.8959C5.49383 11.8959 11.4938 9.43349 13.5747 8.56642C14.3724 8.21962 17.0776 7.10976 17.0776 7.10976C17.0776 7.10976 18.3262 6.62424 18.2221 7.80341C18.1874 8.28898 17.91 9.98837 17.6325 11.8265C17.2163 14.4277 16.7655 17.2716 16.7655 17.2716C16.7655 17.2716 16.6961 18.0693 16.1065 18.208C15.5169 18.3468 14.5458 17.7225 14.3724 17.5837C14.2337 17.4797 11.7713 15.919 10.8695 15.156C10.6268 14.9479 10.3493 14.5318 10.9042 14.0462C12.1528 12.9017 13.6441 11.4797 14.5458 10.578C14.962 10.1618 15.3782 9.19071 13.6441 10.3699C11.1817 12.0693 8.75394 13.6647 8.75394 13.6647C8.75394 13.6647 8.19901 14.0115 7.15857 13.6993C6.11807 13.3872 4.9042 12.971 4.9042 12.971C4.9042 12.971 4.07188 12.4508 5.49383 11.8959Z" fill="white"/>
</g>
<defs>
<clipPath id="clip0_3423_83880">
<rect width="24" height="24" fill="white" transform="translate(0.5)"/>
</clipPath>
</defs>
</svg>
