<svg width="25" height="24" viewBox="0 0 25 24" fill="none" xmlns="http://www.w3.org/2000/svg">
<g clip-path="url(#clip0_3423_83874)">
<path d="M11.3285 23.419C9.98932 23.3326 8.59732 22.939 7.35892 22.2958C6.18772 21.6814 6.17812 21.6814 5.98132 21.7342C5.88532 21.7582 5.55412 21.8494 5.25172 21.9358C4.42132 22.1662 3.63412 22.3678 3.28372 22.4398C3.11092 22.4782 2.84692 22.5502 2.69812 22.603C2.54452 22.6606 2.36692 22.7038 2.30452 22.7038C2.23732 22.7038 2.13172 22.723 2.06452 22.7518C1.95892 22.7902 1.93012 22.7806 1.86292 22.6798C1.79572 22.5742 1.79572 22.5358 1.88692 22.1902C1.93972 21.9838 1.99732 21.763 2.01652 21.6958C2.06452 21.4942 2.25652 20.8078 2.53972 19.8094C2.90932 18.5182 2.90932 18.5038 2.49172 17.8078C1.80052 16.6414 1.28692 15.3598 1.04692 14.2078C0.806916 13.0462 0.787716 11.1694 1.00372 10.0078C1.11892 9.37425 1.52692 7.92945 1.73332 7.42065C2.26132 6.11985 3.06292 4.92945 4.14772 3.83505C5.09332 2.88465 6.15892 2.11665 7.33492 1.53585C8.45332 0.983847 9.26452 0.719847 10.6037 0.475047C11.3189 0.345447 12.8597 0.297447 13.5989 0.379047C14.4677 0.479847 15.9701 0.825447 16.4549 1.03185C16.5365 1.06545 16.7765 1.16625 16.9877 1.25745C17.8277 1.60305 18.8069 2.20305 19.6277 2.86545C22.2197 4.95345 23.7605 7.96785 23.9669 11.3518C24.1205 13.8526 23.5205 16.1662 22.1957 18.1486C20.9333 20.035 19.4213 21.3934 17.5637 22.2958C15.5525 23.275 13.8581 23.5774 11.3285 23.419Z" fill="#02E677"/>
<path d="M15.7403 18.403C15.6875 18.3934 15.5195 18.3502 15.3659 18.307C15.2171 18.2686 14.9723 18.2158 14.8283 18.1918C14.6843 18.1678 14.4971 18.115 14.4107 18.0766C14.3243 18.0382 14.1467 17.9806 14.0123 17.947C13.8827 17.9182 13.7291 17.8654 13.6763 17.8318C13.6235 17.803 13.4939 17.7454 13.3883 17.7118C13.2827 17.6782 13.1003 17.6014 12.9803 17.539C12.8603 17.4766 12.7307 17.4238 12.6827 17.4238C12.6395 17.4238 12.5675 17.3902 12.5243 17.347C12.4811 17.3038 12.3755 17.2414 12.2939 17.2126C12.1643 17.1646 11.8475 17.0014 11.5883 16.843C11.5499 16.819 11.4395 16.7566 11.3435 16.7086C11.2523 16.6558 11.1467 16.579 11.1131 16.5406C11.0747 16.4974 11.0171 16.4638 10.9835 16.4638C10.9451 16.4638 10.8779 16.4254 10.8299 16.3822C10.7819 16.3342 10.6139 16.2094 10.4555 16.1038C9.9995 15.8014 9.6539 15.4942 8.7083 14.5438C7.6571 13.4974 7.1579 12.9166 6.7355 12.2638C6.6683 12.1582 6.5723 12.0094 6.5195 11.9326C6.2603 11.5486 5.7803 10.6414 5.7803 10.5406C5.7803 10.5022 5.7467 10.4494 5.7083 10.4158C5.6699 10.3822 5.6219 10.2814 5.6075 10.1806C5.5883 10.0846 5.5211 9.86861 5.4539 9.69581C5.3483 9.41261 5.3339 9.31661 5.3339 8.63981C5.3291 7.91981 5.3387 7.88141 5.4875 7.43981C5.5739 7.19021 5.6747 6.95021 5.7131 6.90701C5.7515 6.86861 5.7803 6.81581 5.7803 6.79181C5.7803 6.71501 6.2171 6.09581 6.4235 5.87981C6.6011 5.69261 6.7307 5.60141 7.1243 5.39021C7.2971 5.29901 8.2859 5.30381 8.4635 5.39981C8.6459 5.49101 8.8187 5.70221 8.9435 5.98541C9.0059 6.11021 9.1019 6.32621 9.1643 6.45581C9.2267 6.59021 9.3323 6.81581 9.3995 6.95981C9.4667 7.10381 9.5243 7.25261 9.5243 7.28621C9.5243 7.31981 9.5675 7.43021 9.6203 7.52621C9.8651 7.98701 9.9755 8.32781 9.9947 8.72621C10.0091 9.12461 10.0091 9.12941 9.8267 9.39821C9.7259 9.54701 9.6059 9.70541 9.5627 9.75341C9.5147 9.80141 9.4763 9.85421 9.4763 9.87821C9.4763 9.89741 9.3803 10.0174 9.2603 10.1422C8.8043 10.6174 8.8283 10.9342 9.3803 11.7358C9.8939 12.475 10.5707 13.2046 11.2475 13.7518C11.4395 13.9102 11.6507 14.0878 11.7179 14.1502C11.7803 14.2078 11.8523 14.2558 11.8715 14.2558C11.8907 14.2558 11.9483 14.299 11.9915 14.347C12.0395 14.3998 12.1451 14.467 12.2267 14.5006C12.3131 14.5342 12.4139 14.587 12.4523 14.6206C12.5531 14.7022 13.1243 15.0046 13.2683 15.0478C13.3355 15.067 13.4171 15.1054 13.4507 15.1342C13.4891 15.163 13.6571 15.235 13.8299 15.2974C14.1227 15.3982 14.1467 15.3982 14.2667 15.3262C14.4107 15.2398 15.0251 14.611 15.3419 14.227C15.6491 13.8622 15.8123 13.7614 16.1195 13.7662C16.3115 13.7662 16.4459 13.8046 16.6523 13.915C16.8059 13.9966 16.9547 14.0638 16.9883 14.0638C17.0219 14.0638 17.0747 14.0974 17.1083 14.1358C17.1419 14.179 17.2619 14.2318 17.3771 14.2606C17.4923 14.2894 17.6123 14.3422 17.6411 14.3806C17.6699 14.419 17.7851 14.4718 17.8955 14.5006C18.0011 14.5294 18.1451 14.5918 18.2123 14.6398C18.2795 14.6878 18.3995 14.7406 18.4859 14.755C18.5723 14.7742 18.6875 14.827 18.7499 14.875C18.8123 14.923 18.9275 14.9758 19.0043 14.995C19.0859 15.0142 19.2059 15.0862 19.2827 15.1582C19.3979 15.2686 19.4123 15.3166 19.4123 15.5998C19.4123 15.8158 19.3739 16.027 19.2923 16.2622C19.2251 16.4494 19.1723 16.6366 19.1723 16.675C19.1723 16.7902 18.7739 17.2414 18.3995 17.5486C17.7515 18.0814 17.0267 18.3742 16.2731 18.4078C16.0331 18.4174 15.7931 18.4174 15.7403 18.403Z" fill="#F6FEFA"/>
</g>
<defs>
<clipPath id="clip0_3423_83874">
<rect width="24" height="24" fill="white" transform="translate(0.5)"/>
</clipPath>
</defs>
</svg>
