<svg width="67" height="24" viewBox="0 0 67 24" fill="none" xmlns="http://www.w3.org/2000/svg">
<path fill-rule="evenodd" clip-rule="evenodd" d="M53.7521 9.11799C53.997 9.54059 54.0772 10.0214 54.1036 10.5619L54.1384 11.2824V16.3203L54.1739 17.0415C54.245 18.2193 55.1136 19.0902 56.3005 19.1643L57.018 19.1998V11.2824L57.0535 10.5619C57.083 10.0274 57.1623 9.53756 57.4111 9.11194C57.6645 8.67539 58.0283 8.31319 58.466 8.06172C58.9037 7.81024 59.3999 7.67835 59.9046 7.67927C60.4094 7.68018 60.9051 7.81389 61.3419 8.06695C61.7786 8.32002 62.1412 8.68354 62.393 9.12102C62.6379 9.54361 62.7143 10.0335 62.7438 10.5619L62.7793 11.2801V16.3203L62.8148 17.0415C62.8889 18.2253 63.7508 19.0962 64.9414 19.1643L65.6589 19.1998V10.5619C65.6589 9.03451 65.0522 7.56962 63.9724 6.48936C62.8926 5.4091 61.4279 4.80192 59.9005 4.80132C59.083 4.80046 58.2747 4.97406 57.5297 5.31055C56.7846 5.64703 56.1199 6.13863 55.5801 6.75251C55.0399 6.13887 54.3752 5.64739 53.6303 5.31081C52.8853 4.97423 52.0771 4.80028 51.2596 4.80056C50.0636 4.80056 48.9539 5.16344 48.0346 5.79015C47.4736 5.16419 46.2187 4.80056 45.4983 4.80056V19.1998L46.2187 19.1643C47.4237 19.0849 48.2946 18.2374 48.3415 17.0415L48.3801 16.3203V11.2824L48.4156 10.5619C48.4458 10.0184 48.5214 9.54059 48.7671 9.11497C49.0208 8.67868 49.3845 8.31657 49.8218 8.06479C50.2592 7.81301 50.755 7.68037 51.2596 7.68011C51.7647 7.68022 52.2608 7.81312 52.6983 8.0655C53.1357 8.31787 53.4992 8.68084 53.7521 9.11799ZM4.45962 19.165L5.18008 19.1998H15.9793L15.9438 18.4816C15.8463 17.2977 15.0079 16.4329 13.8202 16.3558L13.0998 16.3203H6.62098L15.2589 7.67935L15.2233 6.96192C15.1674 5.76595 14.2935 4.90186 13.0998 4.83609L12.3793 4.80359L1.58008 4.80056L1.61561 5.52102C1.71011 6.69355 2.56059 7.57654 3.73841 7.64458L4.45962 7.68011H10.9384L2.30053 16.321L2.33606 17.0415C2.40713 18.2284 3.26366 19.0879 4.45962 19.1643V19.165ZM42.6716 6.90825C43.3403 7.57678 43.8707 8.37049 44.2326 9.24404C44.5945 10.1176 44.7808 11.0539 44.7808 11.9994C44.7808 12.945 44.5945 13.8813 44.2326 14.7548C43.8707 15.6284 43.3403 16.4221 42.6716 17.0906C41.3207 18.4405 39.4891 19.1987 37.5793 19.1987C35.6696 19.1987 33.8379 18.4405 32.487 17.0906C29.6755 14.2791 29.6755 9.71976 32.487 6.90825C33.1551 6.23994 33.9482 5.70977 34.8212 5.348C35.6941 4.98623 36.6298 4.79995 37.5748 4.79981C38.5213 4.79915 39.4586 4.9851 40.3332 5.34701C41.2077 5.70893 42.0024 6.23971 42.6716 6.909V6.90825ZM40.6343 8.94714C41.4441 9.75757 41.899 10.8564 41.899 12.0021C41.899 13.1478 41.4441 14.2466 40.6343 15.057C39.8238 15.8668 38.725 16.3217 37.5793 16.3217C36.4336 16.3217 35.3348 15.8668 34.5244 15.057C33.7146 14.2466 33.2597 13.1478 33.2597 12.0021C33.2597 10.8564 33.7146 9.75757 34.5244 8.94714C35.3348 8.13732 36.4336 7.68242 37.5793 7.68242C38.725 7.68242 39.8238 8.13732 40.6343 8.94714ZM22.4642 4.79981C23.4092 4.80005 24.3449 4.98645 25.2178 5.34835C26.0908 5.71025 26.8839 6.24056 27.5519 6.909C30.3642 9.71976 30.3642 14.2799 27.5519 17.0906C26.201 18.4405 24.3694 19.1987 22.4596 19.1987C20.5499 19.1987 18.7183 18.4405 17.3673 17.0906C14.5558 14.2791 14.5558 9.71976 17.3673 6.90825C18.0354 6.23994 18.8285 5.70977 19.7015 5.348C20.5745 4.98623 21.5101 4.79995 22.4551 4.79981H22.4642ZM25.5146 8.94563C26.3246 9.75609 26.7796 10.8551 26.7796 12.0009C26.7796 13.1468 26.3246 14.2458 25.5146 15.0563C24.7041 15.8661 23.6053 16.321 22.4596 16.321C21.3139 16.321 20.2151 15.8661 19.4047 15.0563C18.5949 14.2458 18.14 13.147 18.14 12.0013C18.14 10.8556 18.5949 9.75681 19.4047 8.94638C20.2151 8.13656 21.3139 7.68166 22.4596 7.68166C23.6053 7.68166 24.7041 8.13656 25.5146 8.94638V8.94563Z" fill="#2D8CFF"/>
</svg>
